<svg width="20" height="20" viewBox="0 0 20 20" fill="none" xmlns="http://www.w3.org/2000/svg">
<g id="Group 16 1" clip-path="url(#clip0_179_4605)">
<g id="Android Sepet">
<g id="01.00.Checkout">
<g id="Group">
<g id="Group 14">
<g id="delivery">
<path id="Shape" d="M14.8964 12.0552C13.5254 12.0552 12.4102 13.1705 12.4102 14.5414C12.4102 15.9123 13.5254 17.0276 14.8964 17.0276C16.2675 17.0276 17.3826 15.9123 17.3826 14.5414C17.3826 13.1705 16.2673 12.0552 14.8964 12.0552ZM14.8964 15.7845C14.2108 15.7845 13.6533 15.227 13.6533 14.5414C13.6533 13.8558 14.2108 13.2983 14.8964 13.2983C15.5819 13.2983 16.1395 13.8558 16.1395 14.5414C16.1395 15.227 15.5819 15.7845 14.8964 15.7845Z" fill="white"/>
<path id="Shape_2" d="M6.40223 12.0552C5.0313 12.0552 3.91602 13.1705 3.91602 14.5414C3.91602 15.9123 5.0313 17.0276 6.40223 17.0276C7.77316 17.0276 8.88845 15.9123 8.88845 14.5414C8.88845 13.1705 7.77316 12.0552 6.40223 12.0552ZM6.40223 15.7845C5.71667 15.7845 5.15912 15.227 5.15912 14.5414C5.15912 13.8558 5.71667 13.2983 6.40223 13.2983C7.0876 13.2983 7.64534 13.8558 7.64534 14.5414C7.64534 15.227 7.08779 15.7845 6.40223 15.7845Z" fill="white"/>
<path id="Path" d="M16.5712 4.93896C16.4655 4.72908 16.2507 4.59668 16.0157 4.59668H12.7422V5.83979H15.6324L17.3249 9.20611L18.4358 8.64752L16.5712 4.93896Z" fill="white"/>
<path id="Rectangle" d="M13.0312 13.9407H8.32812V15.1838H13.0312V13.9407Z" fill="white"/>
<path id="Path_2" d="M4.53794 13.9407H2.38325C2.03993 13.9407 1.76172 14.2189 1.76172 14.5622C1.76172 14.9055 2.03997 15.1837 2.38325 15.1837H4.53798C4.88129 15.1837 5.15951 14.9055 5.15951 14.5622C5.15951 14.2189 4.88126 13.9407 4.53794 13.9407Z" fill="white"/>
<path id="Path_3" d="M19.594 10.1409L18.3715 8.56625C18.254 8.41459 18.0727 8.32591 17.8806 8.32591H13.364V3.97505C13.364 3.63173 13.0858 3.35352 12.7425 3.35352H2.38325C2.03993 3.35352 1.76172 3.63177 1.76172 3.97505C1.76172 4.31833 2.03997 4.59658 2.38325 4.59658H12.1209V8.94744C12.1209 9.29076 12.3992 9.56898 12.7424 9.56898H17.5763L18.4814 10.735V13.9406H16.7618C16.4185 13.9406 16.1403 14.2188 16.1403 14.5621C16.1403 14.9054 16.4185 15.1836 16.7618 15.1836H19.103C19.4463 15.1836 19.7245 14.9054 19.7245 14.5621V10.5221C19.7245 10.3841 19.6785 10.2498 19.594 10.1409Z" fill="white"/>
<path id="Path_4" d="M4.49632 10.7915H1.63716C1.29384 10.7915 1.01562 11.0698 1.01562 11.413C1.01562 11.7564 1.29388 12.0346 1.63716 12.0346H4.49628C4.8396 12.0346 5.11781 11.7563 5.11781 11.413C5.11781 11.0698 4.8396 10.7915 4.49632 10.7915Z" fill="white"/>
<path id="Path_5" d="M5.92546 8.34668H0.621535C0.278254 8.34668 0 8.62493 0 8.96825C0 9.31157 0.278254 9.58979 0.621535 9.58979H5.92546C6.26878 9.58979 6.54699 9.31153 6.54699 8.96825C6.54699 8.62497 6.26878 8.34668 5.92546 8.34668Z" fill="white"/>
<path id="Path_6" d="M6.94108 5.90186H1.63716C1.29384 5.90186 1.01562 6.18011 1.01562 6.52339C1.01562 6.86671 1.29388 7.14492 1.63716 7.14492H6.94108C7.2844 7.14492 7.56262 6.86667 7.56262 6.52339C7.56262 6.18011 7.2844 5.90186 6.94108 5.90186Z" fill="white"/>
</g>
</g>
</g>
</g>
</g>
</g>
<defs>
<clipPath id="clip0_179_4605">
<rect width="20" height="20" fill="white"/>
</clipPath>
</defs>
</svg>
