<svg width="21" height="20" viewBox="0 0 21 20" fill="none" xmlns="http://www.w3.org/2000/svg">
<g id="Iconly/Light/Category">
<g id="Category">
<path id="Stroke 1" fill-rule="evenodd" clip-rule="evenodd" d="M13.8684 1.66675H16.5978C17.7271 1.66675 18.6432 2.58833 18.6432 3.72523V6.47017C18.6432 7.60621 17.7271 8.52865 16.5978 8.52865H13.8684C12.7382 8.52865 11.8221 7.60621 11.8221 6.47017V3.72523C11.8221 2.58833 12.7382 1.66675 13.8684 1.66675Z" stroke="#8D909B" stroke-width="1.5" stroke-linecap="round" stroke-linejoin="round"/>
<path id="Stroke 3" fill-rule="evenodd" clip-rule="evenodd" d="M3.97872 1.66675H6.7073C7.83744 1.66675 8.75353 2.58833 8.75353 3.72523V6.47017C8.75353 7.60621 7.83744 8.52865 6.7073 8.52865H3.97872C2.84859 8.52865 1.9325 7.60621 1.9325 6.47017V3.72523C1.9325 2.58833 2.84859 1.66675 3.97872 1.66675Z" stroke="#8D909B" stroke-width="1.5" stroke-linecap="round" stroke-linejoin="round"/>
<path id="Stroke 5" fill-rule="evenodd" clip-rule="evenodd" d="M3.97872 11.4714H6.7073C7.83744 11.4714 8.75353 12.393 8.75353 13.5308V16.2749C8.75353 17.4118 7.83744 18.3333 6.7073 18.3333H3.97872C2.84859 18.3333 1.9325 17.4118 1.9325 16.2749V13.5308C1.9325 12.393 2.84859 11.4714 3.97872 11.4714Z" stroke="#8D909B" stroke-width="1.5" stroke-linecap="round" stroke-linejoin="round"/>
<path id="Stroke 7" fill-rule="evenodd" clip-rule="evenodd" d="M13.8684 11.4714H16.5978C17.7271 11.4714 18.6432 12.393 18.6432 13.5308V16.2749C18.6432 17.4118 17.7271 18.3333 16.5978 18.3333H13.8684C12.7382 18.3333 11.8221 17.4118 11.8221 16.2749V13.5308C11.8221 12.393 12.7382 11.4714 13.8684 11.4714Z" stroke="#8D909B" stroke-width="1.5" stroke-linecap="round" stroke-linejoin="round"/>
</g>
</g>
</svg>
