<svg width="22" height="22" viewBox="0 0 22 22" fill="none" xmlns="http://www.w3.org/2000/svg">
<g id="shopping-cart">
<g id="Group 33040">
<path id="Vector (Stroke)" fill-rule="evenodd" clip-rule="evenodd" d="M6.53906 18.6253C6.53906 17.7509 7.24794 17.042 8.1224 17.042C8.99685 17.042 9.70573 17.7509 9.70573 18.6253C9.70573 19.4998 8.99685 20.2087 8.1224 20.2087C7.24794 20.2087 6.53906 19.4998 6.53906 18.6253Z" fill="#EF233C"/>
<path id="Vector (Stroke)_2" fill-rule="evenodd" clip-rule="evenodd" d="M15.25 18.6253C15.25 17.7509 15.9589 17.042 16.8333 17.042C17.7078 17.042 18.4167 17.7509 18.4167 18.6253C18.4167 19.4998 17.7078 20.2087 16.8333 20.2087C15.9589 20.2087 15.25 19.4998 15.25 18.6253Z" fill="#EF233C"/>
<path id="Vector (Stroke)_3" fill-rule="evenodd" clip-rule="evenodd" d="M1 2.79167C1 2.35444 1.35444 2 1.79167 2H4.95833C5.33566 2 5.66055 2.2663 5.7346 2.6363L6.39951 5.95833H19.2083C19.4443 5.95833 19.6679 6.06357 19.8183 6.24535C19.9687 6.42714 20.0302 6.66654 19.986 6.8983L18.7182 13.5463C18.6096 14.093 18.3121 14.5841 17.8779 14.9337C17.4459 15.2814 16.9059 15.467 16.3515 15.4583H8.67017C8.11579 15.467 7.57574 15.2814 7.14371 14.9337C6.70969 14.5843 6.41233 14.0934 6.30363 13.547C6.30359 13.5468 6.30368 13.5472 6.30363 13.547L4.98112 6.93937C4.97576 6.91751 4.9713 6.8953 4.96779 6.87277L4.30942 3.58333H1.79167C1.35444 3.58333 1 3.22889 1 2.79167ZM6.71641 7.54166L7.8565 13.2378C7.89269 13.4201 7.99183 13.5838 8.13657 13.7003C8.2813 13.8168 8.4624 13.8787 8.64816 13.8751L8.66333 13.875H16.3583L16.3735 13.8751C16.5593 13.8787 16.7404 13.8168 16.8851 13.7003C17.0292 13.5843 17.128 13.4216 17.1647 13.2404L18.2514 7.54166H6.71641Z" fill="#EF233C"/>
</g>
</g>
</svg>
