<svg width="23" height="22" viewBox="0 0 23 22" fill="none" xmlns="http://www.w3.org/2000/svg">
<g id="Huge-icon/interface/outline/invoice">
<path id="Vector" d="M7.99195 6.41659H11.6684M7.99195 10.0833H15.3449M7.99195 13.7499H15.3449M5.2346 1.83325H18.1023C19.1175 1.83325 19.9405 2.65406 19.9405 3.66659V17.5581C19.9405 18.8278 18.6775 19.7131 17.4796 19.283L16.0442 18.7676C15.5956 18.6066 15.1019 18.6256 14.6672 18.8207L12.4228 19.828C11.943 20.0433 11.3938 20.0433 10.9141 19.828L8.66969 18.8207C8.23496 18.6256 7.74123 18.6066 7.29269 18.7676L5.85725 19.283C4.65934 19.7131 3.39636 18.8278 3.39636 17.5581V3.66659C3.39636 2.65406 4.21937 1.83325 5.2346 1.83325Z" stroke="#8D909B" stroke-width="1.5" stroke-linecap="round"/>
</g>
</svg>
