<svg width="22" height="22" viewBox="0 0 22 22" fill="none" xmlns="http://www.w3.org/2000/svg">
<g id="Iconly/Light/Home">
<g id="Home">
<g id="Home_2">
<path fill-rule="evenodd" clip-rule="evenodd" d="M8.39346 19.0404V16.2292C8.39345 15.5142 8.97637 14.9332 9.69861 14.9284H12.3442C13.0699 14.9284 13.6581 15.5108 13.6581 16.2292V19.0491C13.658 19.6562 14.1474 20.1524 14.7605 20.1666H16.5242C18.2824 20.1666 19.7077 18.7555 19.7077 17.0149V9.01793C19.6983 8.33318 19.3735 7.69016 18.8258 7.27187L12.7939 2.46144C11.7372 1.62385 10.235 1.62385 9.17832 2.46144L3.17287 7.2806C2.62309 7.69719 2.29779 8.34128 2.29102 9.02666V17.0149C2.29102 18.7555 3.71632 20.1666 5.47452 20.1666H7.23823C7.86651 20.1666 8.37583 19.6624 8.37583 19.0404" fill="#EF233C"/>
<path d="M8.39346 19.0404V16.2292C8.39345 15.5142 8.97637 14.9332 9.69861 14.9284H12.3442C13.0699 14.9284 13.6581 15.5108 13.6581 16.2292V16.2292V19.0491C13.658 19.6562 14.1474 20.1524 14.7605 20.1666H16.5242C18.2824 20.1666 19.7077 18.7555 19.7077 17.0149V17.0149V9.01793C19.6983 8.33318 19.3735 7.69016 18.8258 7.27187L12.7939 2.46144C11.7372 1.62385 10.235 1.62385 9.17832 2.46144L3.17287 7.2806C2.62309 7.69719 2.29779 8.34128 2.29102 9.02666V17.0149C2.29102 18.7555 3.71632 20.1666 5.47452 20.1666H7.23823C7.86651 20.1666 8.37583 19.6624 8.37583 19.0404V19.0404" stroke="#EF233C" stroke-width="1.6" stroke-linecap="round" stroke-linejoin="round"/>
</g>
</g>
</g>
</svg>
