<svg width="23" height="22" viewBox="0 0 23 22" fill="none" xmlns="http://www.w3.org/2000/svg">
<g id="Iconly/Light/Home">
<g id="Home">
<path id="Home_2" d="M8.50133 19.0404V16.2292C8.50132 15.5142 9.0858 14.9332 9.80997 14.9284H12.4626C13.1902 14.9284 13.7801 15.5108 13.7801 16.2292V16.2292V19.0491C13.7799 19.6562 14.2707 20.1524 14.8854 20.1666H16.6538C18.4167 20.1666 19.8458 18.7555 19.8458 17.0149V17.0149V9.01793C19.8364 8.33318 19.5108 7.69016 18.9616 7.27187L12.9136 2.46144C11.854 1.62385 10.3478 1.62385 9.28828 2.46144L3.26678 7.2806C2.71553 7.69719 2.38936 8.34128 2.38257 9.02666V17.0149C2.38257 18.7555 3.81168 20.1666 5.57458 20.1666H7.34301C7.97297 20.1666 8.48365 19.6624 8.48365 19.0404V19.0404" stroke="#8D909B" stroke-width="1.6" stroke-linecap="round" stroke-linejoin="round"/>
</g>
</g>
</svg>
