<svg width="148" height="24" viewBox="0 0 148 24" fill="none" xmlns="http://www.w3.org/2000/svg">
<path d="M38.56 15.8L38.38 12.06L45.08 5H48.68L42.64 11.5L40.84 13.42L38.56 15.8ZM35.66 19V5H38.88V19H35.66ZM45.24 19L40.26 12.9L42.38 10.6L49.02 19H45.24ZM57.0103 19V16.9L56.8103 16.44V12.68C56.8103 12.0133 56.6036 11.4933 56.1903 11.12C55.7903 10.7467 55.1703 10.56 54.3303 10.56C53.757 10.56 53.1903 10.6533 52.6303 10.84C52.0836 11.0133 51.617 11.2533 51.2303 11.56L50.1103 9.38C50.697 8.96667 51.4036 8.64667 52.2303 8.42C53.057 8.19333 53.897 8.08 54.7503 8.08C56.3903 8.08 57.6636 8.46667 58.5703 9.24C59.477 10.0133 59.9303 11.22 59.9303 12.86V19H57.0103ZM53.7303 19.16C52.8903 19.16 52.1703 19.02 51.5703 18.74C50.9703 18.4467 50.5103 18.0533 50.1903 17.56C49.8703 17.0667 49.7103 16.5133 49.7103 15.9C49.7103 15.26 49.8636 14.7 50.1703 14.22C50.4903 13.74 50.9903 13.3667 51.6703 13.1C52.3503 12.82 53.237 12.68 54.3303 12.68H57.1903V14.5H54.6703C53.937 14.5 53.4303 14.62 53.1503 14.86C52.8836 15.1 52.7503 15.4 52.7503 15.76C52.7503 16.16 52.9036 16.48 53.2103 16.72C53.5303 16.9467 53.9636 17.06 54.5103 17.06C55.0303 17.06 55.497 16.94 55.9103 16.7C56.3236 16.4467 56.6236 16.08 56.8103 15.6L57.2903 17.04C57.0636 17.7333 56.6503 18.26 56.0503 18.62C55.4503 18.98 54.677 19.16 53.7303 19.16ZM63.1541 19V8.24H66.1341V11.28L65.7141 10.4C66.0341 9.64 66.5474 9.06667 67.2541 8.68C67.9607 8.28 68.8207 8.08 69.8341 8.08V10.96C69.7007 10.9467 69.5807 10.94 69.4741 10.94C69.3674 10.9267 69.2541 10.92 69.1341 10.92C68.2807 10.92 67.5874 11.1667 67.0541 11.66C66.5341 12.14 66.2741 12.8933 66.2741 13.92V19H63.1541ZM85.8888 8.08C86.7421 8.08 87.4954 8.25333 88.1488 8.6C88.8154 8.93333 89.3354 9.45333 89.7088 10.16C90.0954 10.8533 90.2888 11.7467 90.2888 12.84V19H87.1688V13.32C87.1688 12.4533 86.9888 11.8133 86.6288 11.4C86.2688 10.9867 85.7621 10.78 85.1088 10.78C84.6554 10.78 84.2488 10.8867 83.8888 11.1C83.5288 11.3 83.2488 11.6067 83.0488 12.02C82.8488 12.4333 82.7488 12.96 82.7488 13.6V19H79.6288V13.32C79.6288 12.4533 79.4488 11.8133 79.0888 11.4C78.7421 10.9867 78.2421 10.78 77.5888 10.78C77.1354 10.78 76.7288 10.8867 76.3688 11.1C76.0088 11.3 75.7288 11.6067 75.5288 12.02C75.3288 12.4333 75.2288 12.96 75.2288 13.6V19H72.1088V8.24H75.0888V11.18L74.5288 10.32C74.9021 9.58667 75.4288 9.03333 76.1088 8.66C76.8021 8.27333 77.5888 8.08 78.4688 8.08C79.4554 8.08 80.3154 8.33333 81.0488 8.84C81.7954 9.33333 82.2888 10.0933 82.5288 11.12L81.4288 10.82C81.7888 9.98 82.3621 9.31333 83.1488 8.82C83.9488 8.32667 84.8621 8.08 85.8888 8.08ZM100.085 19V16.9L99.8853 16.44V12.68C99.8853 12.0133 99.6786 11.4933 99.2653 11.12C98.8653 10.7467 98.2453 10.56 97.4053 10.56C96.832 10.56 96.2653 10.6533 95.7053 10.84C95.1586 11.0133 94.692 11.2533 94.3053 11.56L93.1853 9.38C93.772 8.96667 94.4786 8.64667 95.3053 8.42C96.132 8.19333 96.972 8.08 97.8253 8.08C99.4653 8.08 100.739 8.46667 101.645 9.24C102.552 10.0133 103.005 11.22 103.005 12.86V19H100.085ZM96.8053 19.16C95.9653 19.16 95.2453 19.02 94.6453 18.74C94.0453 18.4467 93.5853 18.0533 93.2653 17.56C92.9453 17.0667 92.7853 16.5133 92.7853 15.9C92.7853 15.26 92.9386 14.7 93.2453 14.22C93.5653 13.74 94.0653 13.3667 94.7453 13.1C95.4253 12.82 96.312 12.68 97.4053 12.68H100.265V14.5H97.7453C97.012 14.5 96.5053 14.62 96.2253 14.86C95.9586 15.1 95.8253 15.4 95.8253 15.76C95.8253 16.16 95.9786 16.48 96.2853 16.72C96.6053 16.9467 97.0386 17.06 97.5853 17.06C98.1053 17.06 98.572 16.94 98.9853 16.7C99.3986 16.4467 99.6986 16.08 99.8853 15.6L100.365 17.04C100.139 17.7333 99.7253 18.26 99.1253 18.62C98.5253 18.98 97.752 19.16 96.8053 19.16ZM112.769 8.08C113.622 8.08 114.382 8.25333 115.049 8.6C115.729 8.93333 116.262 9.45333 116.649 10.16C117.036 10.8533 117.229 11.7467 117.229 12.84V19H114.109V13.32C114.109 12.4533 113.916 11.8133 113.529 11.4C113.156 10.9867 112.622 10.78 111.929 10.78C111.436 10.78 110.989 10.8867 110.589 11.1C110.202 11.3 109.896 11.6133 109.669 12.04C109.456 12.4667 109.349 13.0133 109.349 13.68V19H106.229V8.24H109.209V11.22L108.649 10.32C109.036 9.6 109.589 9.04667 110.309 8.66C111.029 8.27333 111.849 8.08 112.769 8.08ZM127.437 19.24C126.331 19.24 125.311 19.0667 124.377 18.72C123.457 18.36 122.651 17.8533 121.957 17.2C121.277 16.5467 120.744 15.78 120.357 14.9C119.984 14.02 119.797 13.0533 119.797 12C119.797 10.9467 119.984 9.98 120.357 9.1C120.744 8.22 121.284 7.45333 121.977 6.8C122.671 6.14667 123.484 5.64667 124.417 5.3C125.351 4.94 126.377 4.76 127.497 4.76C128.737 4.76 129.851 4.96667 130.837 5.38C131.837 5.79333 132.677 6.39333 133.357 7.18L131.277 9.1C130.771 8.56667 130.217 8.17333 129.617 7.92C129.017 7.65333 128.364 7.52 127.657 7.52C126.977 7.52 126.357 7.62667 125.797 7.84C125.237 8.05333 124.751 8.36 124.337 8.76C123.937 9.16 123.624 9.63333 123.397 10.18C123.184 10.7267 123.077 11.3333 123.077 12C123.077 12.6533 123.184 13.2533 123.397 13.8C123.624 14.3467 123.937 14.8267 124.337 15.24C124.751 15.64 125.231 15.9467 125.777 16.16C126.337 16.3733 126.951 16.48 127.617 16.48C128.257 16.48 128.877 16.38 129.477 16.18C130.091 15.9667 130.684 15.6133 131.257 15.12L133.097 17.46C132.337 18.0333 131.451 18.4733 130.437 18.78C129.437 19.0867 128.437 19.24 127.437 19.24ZM130.137 17.04V11.78H133.097V17.46L130.137 17.04ZM141.407 19.16C140.26 19.16 139.24 18.92 138.347 18.44C137.467 17.96 136.767 17.3067 136.247 16.48C135.74 15.64 135.487 14.6867 135.487 13.62C135.487 12.54 135.74 11.5867 136.247 10.76C136.767 9.92 137.467 9.26667 138.347 8.8C139.24 8.32 140.26 8.08 141.407 8.08C142.54 8.08 143.554 8.32 144.447 8.8C145.34 9.26667 146.04 9.91333 146.547 10.74C147.054 11.5667 147.307 12.5267 147.307 13.62C147.307 14.6867 147.054 15.64 146.547 16.48C146.04 17.3067 145.34 17.96 144.447 18.44C143.554 18.92 142.54 19.16 141.407 19.16ZM141.407 16.6C141.927 16.6 142.394 16.48 142.807 16.24C143.22 16 143.547 15.66 143.787 15.22C144.027 14.7667 144.147 14.2333 144.147 13.62C144.147 12.9933 144.027 12.46 143.787 12.02C143.547 11.58 143.22 11.24 142.807 11C142.394 10.76 141.927 10.64 141.407 10.64C140.887 10.64 140.42 10.76 140.007 11C139.594 11.24 139.26 11.58 139.007 12.02C138.767 12.46 138.647 12.9933 138.647 13.62C138.647 14.2333 138.767 14.7667 139.007 15.22C139.26 15.66 139.594 16 140.007 16.24C140.42 16.48 140.887 16.6 141.407 16.6Z" fill="#EF233C"/>
<path d="M0.789817 1C0.580345 1 0.379452 1.08915 0.231332 1.24783C0.0832127 1.40652 0 1.62174 0 1.84615C0 2.07057 0.0832127 2.28579 0.231332 2.44448C0.379452 2.60316 0.580345 2.69231 0.789817 2.69231H2.2494C2.42842 2.69231 2.58428 2.82092 2.63062 3.00595L5.32442 13.8277C4.47834 14.0639 3.72927 14.594 3.19454 15.3351C2.65981 16.0762 2.36963 16.9864 2.36945 17.9231C2.36945 18.3902 2.72329 18.7692 3.15927 18.7692H19.7454C19.9549 18.7692 20.1558 18.6801 20.3039 18.5214C20.452 18.3627 20.5352 18.1475 20.5352 17.9231C20.5352 17.6987 20.452 17.4834 20.3039 17.3248C20.1558 17.1661 19.9549 17.0769 19.7454 17.0769H4.08388C4.24725 16.5819 4.54989 16.1533 4.95011 15.8502C5.35033 15.5471 5.82842 15.3845 6.31854 15.3846H18.1321C18.2801 15.3846 18.425 15.3401 18.5505 15.2561C18.676 15.1721 18.777 15.0521 18.8419 14.9096C20.0442 12.2664 21.0854 9.54245 21.959 6.75497C21.9935 6.6447 22.0065 6.52799 21.997 6.41213C21.9875 6.29627 21.9559 6.18374 21.904 6.08158C21.8521 5.97941 21.7811 5.88981 21.6955 5.81835C21.6098 5.74689 21.5113 5.69511 21.4061 5.66626C15.852 4.14899 10.1329 3.43676 4.40191 3.54862L4.1576 2.57046C4.0455 2.12002 3.79766 1.72185 3.45259 1.43785C3.10752 1.15386 2.68454 0.999931 2.2494 1H0.789817ZM2.36945 21.3077C2.36945 20.8589 2.53588 20.4284 2.83211 20.1111C3.12835 19.7937 3.53014 19.6154 3.94909 19.6154C4.36803 19.6154 4.76982 19.7937 5.06606 20.1111C5.36229 20.4284 5.52872 20.8589 5.52872 21.3077C5.52872 21.7565 5.36229 22.187 5.06606 22.5043C4.76982 22.8217 4.36803 23 3.94909 23C3.53014 23 3.12835 22.8217 2.83211 22.5043C2.53588 22.187 2.36945 21.7565 2.36945 21.3077ZM15.7963 21.3077C15.7963 20.8589 15.9628 20.4284 16.259 20.1111C16.5552 19.7937 16.957 19.6154 17.376 19.6154C17.7949 19.6154 18.1967 19.7937 18.4929 20.1111C18.7892 20.4284 18.9556 20.8589 18.9556 21.3077C18.9556 21.7565 18.7892 22.187 18.4929 22.5043C18.1967 22.8217 17.7949 23 17.376 23C16.957 23 16.5552 22.8217 16.259 22.5043C15.9628 22.187 15.7963 21.7565 15.7963 21.3077Z" fill="#EF233C"/>
</svg>
