<svg width="233" height="39" viewBox="0 0 233 39" fill="none" xmlns="http://www.w3.org/2000/svg">
<path d="M57.296 25.88L57.008 19.896L67.728 8.6H73.488L63.824 19L60.944 22.072L57.296 25.88ZM52.656 31V8.6H57.808V31H52.656ZM67.984 31L60.016 21.24L63.408 17.56L74.032 31H67.984ZM86.8165 31V27.64L86.4965 26.904V20.888C86.4965 19.8213 86.1658 18.9893 85.5045 18.392C84.8645 17.7947 83.8725 17.496 82.5285 17.496C81.6112 17.496 80.7045 17.6453 79.8085 17.944C78.9338 18.2213 78.1872 18.6053 77.5685 19.096L75.7765 15.608C76.7152 14.9467 77.8458 14.4347 79.1685 14.072C80.4912 13.7093 81.8352 13.528 83.2005 13.528C85.8245 13.528 87.8618 14.1467 89.3125 15.384C90.7632 16.6213 91.4885 18.552 91.4885 21.176V31H86.8165ZM81.5685 31.256C80.2245 31.256 79.0725 31.032 78.1125 30.584C77.1525 30.1147 76.4165 29.4853 75.9045 28.696C75.3925 27.9067 75.1365 27.0213 75.1365 26.04C75.1365 25.016 75.3818 24.12 75.8725 23.352C76.3845 22.584 77.1845 21.9867 78.2725 21.56C79.3605 21.112 80.7792 20.888 82.5285 20.888H87.1045V23.8H83.0725C81.8992 23.8 81.0885 23.992 80.6405 24.376C80.2138 24.76 80.0005 25.24 80.0005 25.816C80.0005 26.456 80.2458 26.968 80.7365 27.352C81.2485 27.7147 81.9418 27.896 82.8165 27.896C83.6485 27.896 84.3952 27.704 85.0565 27.32C85.7178 26.9147 86.1978 26.328 86.4965 25.56L87.2645 27.864C86.9018 28.9733 86.2405 29.816 85.2805 30.392C84.3205 30.968 83.0832 31.256 81.5685 31.256ZM96.6465 31V13.784H101.414V18.648L100.742 17.24C101.254 16.024 102.076 15.1067 103.206 14.488C104.337 13.848 105.713 13.528 107.334 13.528V18.136C107.121 18.1147 106.929 18.104 106.758 18.104C106.588 18.0827 106.406 18.072 106.214 18.072C104.849 18.072 103.74 18.4667 102.886 19.256C102.054 20.024 101.638 21.2293 101.638 22.872V31H96.6465ZM133.022 13.528C134.387 13.528 135.593 13.8053 136.638 14.36C137.705 14.8933 138.537 15.7253 139.134 16.856C139.753 17.9653 140.062 19.3947 140.062 21.144V31H135.07V21.912C135.07 20.5253 134.782 19.5013 134.206 18.84C133.63 18.1787 132.819 17.848 131.774 17.848C131.049 17.848 130.398 18.0187 129.822 18.36C129.246 18.68 128.798 19.1707 128.478 19.832C128.158 20.4933 127.998 21.336 127.998 22.36V31H123.006V21.912C123.006 20.5253 122.718 19.5013 122.142 18.84C121.587 18.1787 120.787 17.848 119.742 17.848C119.017 17.848 118.366 18.0187 117.79 18.36C117.214 18.68 116.766 19.1707 116.446 19.832C116.126 20.4933 115.966 21.336 115.966 22.36V31H110.974V13.784H115.742V18.488L114.846 17.112C115.443 15.9387 116.286 15.0533 117.374 14.456C118.483 13.8373 119.742 13.528 121.15 13.528C122.729 13.528 124.105 13.9333 125.278 14.744C126.473 15.5333 127.262 16.7493 127.646 18.392L125.886 17.912C126.462 16.568 127.379 15.5013 128.638 14.712C129.918 13.9227 131.379 13.528 133.022 13.528ZM155.736 31V27.64L155.416 26.904V20.888C155.416 19.8213 155.086 18.9893 154.424 18.392C153.784 17.7947 152.792 17.496 151.448 17.496C150.531 17.496 149.624 17.6453 148.728 17.944C147.854 18.2213 147.107 18.6053 146.488 19.096L144.696 15.608C145.635 14.9467 146.766 14.4347 148.088 14.072C149.411 13.7093 150.755 13.528 152.12 13.528C154.744 13.528 156.782 14.1467 158.232 15.384C159.683 16.6213 160.408 18.552 160.408 21.176V31H155.736ZM150.488 31.256C149.144 31.256 147.992 31.032 147.032 30.584C146.072 30.1147 145.336 29.4853 144.824 28.696C144.312 27.9067 144.056 27.0213 144.056 26.04C144.056 25.016 144.302 24.12 144.792 23.352C145.304 22.584 146.104 21.9867 147.192 21.56C148.28 21.112 149.699 20.888 151.448 20.888H156.024V23.8H151.992C150.819 23.8 150.008 23.992 149.56 24.376C149.134 24.76 148.92 25.24 148.92 25.816C148.92 26.456 149.166 26.968 149.656 27.352C150.168 27.7147 150.862 27.896 151.736 27.896C152.568 27.896 153.315 27.704 153.976 27.32C154.638 26.9147 155.118 26.328 155.416 25.56L156.184 27.864C155.822 28.9733 155.16 29.816 154.2 30.392C153.24 30.968 152.003 31.256 150.488 31.256ZM176.03 13.528C177.396 13.528 178.612 13.8053 179.678 14.36C180.766 14.8933 181.62 15.7253 182.238 16.856C182.857 17.9653 183.166 19.3947 183.166 21.144V31H178.174V21.912C178.174 20.5253 177.865 19.5013 177.246 18.84C176.649 18.1787 175.796 17.848 174.686 17.848C173.897 17.848 173.182 18.0187 172.542 18.36C171.924 18.68 171.433 19.1813 171.07 19.864C170.729 20.5467 170.558 21.4213 170.558 22.488V31H165.566V13.784H170.334V18.552L169.438 17.112C170.057 15.96 170.942 15.0747 172.094 14.456C173.246 13.8373 174.558 13.528 176.03 13.528ZM199.499 31.384C197.729 31.384 196.097 31.1067 194.603 30.552C193.131 29.976 191.841 29.1653 190.731 28.12C189.643 27.0747 188.79 25.848 188.171 24.44C187.574 23.032 187.275 21.4853 187.275 19.8C187.275 18.1147 187.574 16.568 188.171 15.16C188.79 13.752 189.654 12.5253 190.763 11.48C191.873 10.4347 193.174 9.63467 194.667 9.08C196.161 8.504 197.803 8.216 199.595 8.216C201.579 8.216 203.361 8.54667 204.939 9.208C206.539 9.86933 207.883 10.8293 208.971 12.088L205.643 15.16C204.833 14.3067 203.947 13.6773 202.987 13.272C202.027 12.8453 200.982 12.632 199.851 12.632C198.763 12.632 197.771 12.8027 196.875 13.144C195.979 13.4853 195.201 13.976 194.539 14.616C193.899 15.256 193.398 16.0133 193.035 16.888C192.694 17.7627 192.523 18.7333 192.523 19.8C192.523 20.8453 192.694 21.8053 193.035 22.68C193.398 23.5547 193.899 24.3227 194.539 24.984C195.201 25.624 195.969 26.1147 196.843 26.456C197.739 26.7973 198.721 26.968 199.787 26.968C200.811 26.968 201.803 26.808 202.763 26.488C203.745 26.1467 204.694 25.5813 205.611 24.792L208.555 28.536C207.339 29.4533 205.921 30.1573 204.299 30.648C202.699 31.1387 201.099 31.384 199.499 31.384ZM203.819 27.864V19.448H208.555V28.536L203.819 27.864ZM221.851 31.256C220.016 31.256 218.384 30.872 216.955 30.104C215.547 29.336 214.427 28.2907 213.595 26.968C212.784 25.624 212.379 24.0987 212.379 22.392C212.379 20.664 212.784 19.1387 213.595 17.816C214.427 16.472 215.547 15.4267 216.955 14.68C218.384 13.912 220.016 13.528 221.851 13.528C223.664 13.528 225.286 13.912 226.715 14.68C228.144 15.4267 229.264 16.4613 230.075 17.784C230.886 19.1067 231.291 20.6427 231.291 22.392C231.291 24.0987 230.886 25.624 230.075 26.968C229.264 28.2907 228.144 29.336 226.715 30.104C225.286 30.872 223.664 31.256 221.851 31.256ZM221.851 27.16C222.683 27.16 223.43 26.968 224.091 26.584C224.752 26.2 225.275 25.656 225.659 24.952C226.043 24.2267 226.235 23.3733 226.235 22.392C226.235 21.3893 226.043 20.536 225.659 19.832C225.275 19.128 224.752 18.584 224.091 18.2C223.43 17.816 222.683 17.624 221.851 17.624C221.019 17.624 220.272 17.816 219.611 18.2C218.95 18.584 218.416 19.128 218.011 19.832C217.627 20.536 217.435 21.3893 217.435 22.392C217.435 23.3733 217.627 24.2267 218.011 24.952C218.416 25.656 218.95 26.2 219.611 26.584C220.272 26.968 221.019 27.16 221.851 27.16Z" fill="#EF233C"/>
<path d="M1.29243 2C0.949655 2 0.620921 2.14588 0.378543 2.40554C0.136166 2.66521 0 3.01739 0 3.38462C0 3.75184 0.136166 4.10402 0.378543 4.36369C0.620921 4.62335 0.949655 4.76923 1.29243 4.76923H3.68083C3.97378 4.76923 4.22882 4.97969 4.30465 5.28246L8.71269 22.9908C7.32819 23.3772 6.10244 24.2448 5.22743 25.4575C4.35242 26.6702 3.87758 28.1595 3.87728 29.6923C3.87728 30.4566 4.45629 31.0769 5.16971 31.0769H32.3107C32.6535 31.0769 32.9822 30.931 33.2246 30.6714C33.467 30.4117 33.6031 30.0595 33.6031 29.6923C33.6031 29.3251 33.467 28.9729 33.2246 28.7132C32.9822 28.4536 32.6535 28.3077 32.3107 28.3077H6.68271C6.95005 27.4976 7.44528 26.7963 8.10018 26.3003C8.75508 25.8044 9.53742 25.5382 10.3394 25.5385H29.6707C29.9128 25.5385 30.1501 25.4656 30.3554 25.3282C30.5608 25.1908 30.726 24.9943 30.8322 24.7612C32.7996 20.4359 34.5034 15.9785 35.9329 11.4172C35.9894 11.2368 36.0106 11.0458 35.9951 10.8562C35.9796 10.6666 35.9278 10.4825 35.8429 10.3153C35.758 10.1481 35.6418 10.0015 35.5017 9.88457C35.3615 9.76763 35.2003 9.68291 35.0282 9.63569C25.9396 7.15289 16.5811 5.98742 7.20313 6.17046L6.80334 4.56985C6.61992 3.83275 6.21436 3.18121 5.64969 2.71649C5.08503 2.25177 4.39288 1.99989 3.68083 2H1.29243ZM3.87728 35.2308C3.87728 34.4963 4.14962 33.792 4.63437 33.2726C5.11912 32.7533 5.77659 32.4615 6.46214 32.4615C7.14769 32.4615 7.80515 32.7533 8.28991 33.2726C8.77466 33.792 9.047 34.4963 9.047 35.2308C9.047 35.9652 8.77466 36.6696 8.28991 37.1889C7.80515 37.7082 7.14769 38 6.46214 38C5.77659 38 5.11912 37.7082 4.63437 37.1889C4.14962 36.6696 3.87728 35.9652 3.87728 35.2308ZM25.8486 35.2308C25.8486 34.4963 26.1209 33.792 26.6056 33.2726C27.0904 32.7533 27.7479 32.4615 28.4334 32.4615C29.119 32.4615 29.7764 32.7533 30.2612 33.2726C30.7459 33.792 31.0183 34.4963 31.0183 35.2308C31.0183 35.9652 30.7459 36.6696 30.2612 37.1889C29.7764 37.7082 29.119 38 28.4334 38C27.7479 38 27.0904 37.7082 26.6056 37.1889C26.1209 36.6696 25.8486 35.9652 25.8486 35.2308Z" fill="#EF233C"/>
</svg>
