<svg width="18" height="18" viewBox="0 0 18 18" fill="none" xmlns="http://www.w3.org/2000/svg">
<path fill-rule="evenodd" clip-rule="evenodd" d="M11.6829 0.0475218C12.1399 -0.0951221 12.6502 0.0912219 12.9405 0.501014C13.1612 0.813511 13.2278 1.20187 13.1245 1.56796C12.669 3.18321 11.3792 4.37631 9.84759 4.70695L11.6234 6.57781C11.776 6.73859 11.776 6.99997 11.6234 7.16075C11.5467 7.24073 11.4465 7.28113 11.3463 7.28113C11.2461 7.28113 11.146 7.24073 11.0693 7.15993L8.99843 4.97822L6.92759 7.16075C6.85089 7.24073 6.75072 7.28113 6.65054 7.28113C6.55036 7.28113 6.45019 7.24073 6.37349 7.15993C6.22088 6.99914 6.22088 6.73777 6.37349 6.57698L8.14928 4.70612C6.61689 4.37548 5.3279 3.18239 4.87162 1.56713C4.76832 1.20187 4.83562 0.812687 5.05632 0.501014C5.34668 0.0920464 5.85774 -0.0951221 6.31479 0.0483463C7.53335 0.430104 8.49364 1.37172 8.99843 2.54997C9.50323 1.37089 10.4635 0.430104 11.6829 0.0475218ZM5.68405 0.994322C5.64179 1.05369 5.5784 1.17654 5.62222 1.33238C6.02293 2.7514 7.20705 3.78124 8.58213 3.95686C8.41543 2.50899 7.43793 1.26147 6.09102 0.83931C6.05737 0.828592 6.02371 0.82282 5.99084 0.82282C5.87501 0.82282 5.75997 0.887133 5.68405 0.994322ZM12.3751 1.33238C11.9744 2.7514 10.7903 3.78124 9.41602 3.95686C9.58193 2.50899 10.5594 1.26065 11.9071 0.838486C11.94 0.828592 11.9737 0.82282 12.0073 0.82282C12.1231 0.82282 12.2382 0.887133 12.3141 0.994322C12.3564 1.05369 12.4198 1.17654 12.3751 1.33238ZM7.48273 7.74361C7.26046 7.97695 6.96541 8.10558 6.65236 8.10558C6.3393 8.10558 6.04425 7.97695 5.82199 7.74361C5.59972 7.51027 5.47841 7.19859 5.47841 6.86878C5.47841 6.53897 5.6005 6.22812 5.82199 5.99395L6.7181 5.04986C6.20156 4.77777 5.73903 4.41333 5.34223 3.98292H1.17395C0.52671 3.98292 0 4.53783 0 5.21972V7.69331C0 8.3752 0.52671 8.93011 1.17395 8.93011H8.60893V6.55628L7.48273 7.74361ZM12.6573 3.98292H16.8256C17.4728 3.98292 17.9996 4.53783 17.9996 5.21972V7.69331C17.9996 8.3752 17.4728 8.93011 16.8256 8.93011H9.39062V6.55628L10.5168 7.74361C10.7391 7.97695 11.0341 8.10558 11.3472 8.10558C11.6603 8.10558 11.9561 7.97778 12.1776 7.74361C12.3991 7.50944 12.5211 7.19942 12.5211 6.86878C12.5211 6.53814 12.3991 6.2273 12.1776 5.99395L11.2815 5.04986C11.798 4.77777 12.2605 4.41415 12.6573 3.98292ZM8.60951 9.75475H1.17452C1.04069 9.75475 0.909989 9.7399 0.783203 9.7127V15.9387C0.783203 17.0749 1.66131 18.0001 2.73978 18.0001H8.60951V9.75475ZM16.8256 9.75475H9.39062V18.0001H15.2604C16.3388 18.0001 17.2169 17.0749 17.2169 15.9387V9.7127C17.0901 9.7399 16.9594 9.75475 16.8256 9.75475Z" fill="white"/>
</svg>
