<svg width="16" height="16" viewBox="0 0 16 16" fill="none" xmlns="http://www.w3.org/2000/svg">
<path fill-rule="evenodd" clip-rule="evenodd" d="M8.332 0.468L15.528 7.664C15.82 7.956 16 8.356 16 8.8C16 9.24 15.82 9.64 15.532 9.932L9.932 15.532C9.644 15.82 9.24 16 8.8 16C8.36 16 7.96 15.82 7.672 15.532L0.472 8.332C0.18 8.044 0 7.644 0 7.2V1.6C0 0.716 0.716 0 1.6 0H7.2C7.64 0 8.04 0.18 8.332 0.468ZM1.59938 2.79996C1.59938 3.46396 2.13537 3.99996 2.79937 3.99996C3.46337 3.99996 3.99937 3.46396 3.99937 2.79996C3.99937 2.13596 3.46337 1.59996 2.79937 1.59996C2.13537 1.59996 1.59938 2.13596 1.59938 2.79996Z" fill="white"/>
</svg>
