<svg width="20" height="21" viewBox="0 0 20 21" fill="none" xmlns="http://www.w3.org/2000/svg">
<path d="M13.8025 9.03846V4.65385C13.8025 3.68479 13.4175 2.75542 12.7323 2.07019C12.047 1.38496 11.1177 1 10.1486 1C9.17955 1 8.25018 1.38496 7.56495 2.07019C6.87972 2.75542 6.49476 3.68479 6.49476 4.65385V9.03846M17.5596 7.09656L18.7902 18.7889C18.8584 19.4368 18.3517 20 17.6999 20H2.59733C2.44358 20.0002 2.29152 19.968 2.15102 19.9056C2.01052 19.8431 1.88473 19.7518 1.78181 19.6376C1.6789 19.5234 1.60116 19.3888 1.55365 19.2426C1.50614 19.0964 1.48992 18.9418 1.50605 18.7889L2.73764 7.09656C2.76605 6.82721 2.89317 6.57791 3.0945 6.39674C3.29582 6.21556 3.5571 6.11534 3.82794 6.11538H16.4693C17.0305 6.11538 17.5011 6.53923 17.5596 7.09656ZM6.86015 9.03846C6.86015 9.13537 6.82165 9.2283 6.75313 9.29683C6.68461 9.36535 6.59167 9.40385 6.49476 9.40385C6.39786 9.40385 6.30492 9.36535 6.2364 9.29683C6.16788 9.2283 6.12938 9.13537 6.12938 9.03846C6.12938 8.94156 6.16788 8.84862 6.2364 8.7801C6.30492 8.71157 6.39786 8.67308 6.49476 8.67308C6.59167 8.67308 6.68461 8.71157 6.75313 8.7801C6.82165 8.84862 6.86015 8.94156 6.86015 9.03846ZM14.1678 9.03846C14.1678 9.13537 14.1293 9.2283 14.0608 9.29683C13.9923 9.36535 13.8994 9.40385 13.8025 9.40385C13.7056 9.40385 13.6126 9.36535 13.5441 9.29683C13.4756 9.2283 13.4371 9.13537 13.4371 9.03846C13.4371 8.94156 13.4756 8.84862 13.5441 8.7801C13.6126 8.71157 13.7056 8.67308 13.8025 8.67308C13.8994 8.67308 13.9923 8.71157 14.0608 8.7801C14.1293 8.84862 14.1678 8.94156 14.1678 9.03846Z" stroke="#A6AEBF" stroke-width="1.5" stroke-linecap="round" stroke-linejoin="round"/>
</svg>
