<svg width="240" height="240" viewBox="0 0 240 240" fill="none" xmlns="http://www.w3.org/2000/svg">
<g id="notify/amico">
<g id="Floor">
<path id="Vector" d="M120 240C186.274 240 240 208.923 240 170.587C240 132.251 186.274 101.174 120 101.174C53.7258 101.174 0 132.251 0 170.587C0 208.923 53.7258 240 120 240Z" fill="#F5F5F5"/>
</g>
<g id="Shadows">
<path id="Vector_2" d="M167.224 147.783L207.643 171.158C208.152 171.454 208.731 171.61 209.32 171.61C209.909 171.61 210.487 171.454 210.996 171.158L233.484 158.141C233.636 158.053 233.762 157.926 233.85 157.774C233.937 157.622 233.983 157.45 233.983 157.274C233.983 157.098 233.937 156.926 233.85 156.774C233.762 156.622 233.636 156.495 233.484 156.407L193.076 133.092C192.568 132.799 191.991 132.644 191.405 132.644C190.818 132.644 190.242 132.799 189.734 133.092L167.229 146.044C167.078 146.133 166.951 146.259 166.863 146.411C166.776 146.564 166.729 146.736 166.729 146.912C166.728 147.088 166.773 147.261 166.86 147.414C166.947 147.567 167.073 147.694 167.224 147.783Z" fill="#E0E0E0"/>
<path id="Vector_3" d="M135.419 139.089L38.1974 195.458C37.4057 195.918 36.5075 196.163 35.5922 196.168C34.6768 196.172 33.7762 195.937 32.9798 195.485L7.72455 181.165C7.46222 181.014 7.24426 180.797 7.0927 180.534C6.94114 180.272 6.86133 179.974 6.86133 179.671C6.86133 179.368 6.94114 179.071 7.0927 178.808C7.24426 178.546 7.46222 178.328 7.72455 178.177L104.764 122.029C105.553 121.575 106.447 121.333 107.358 121.327C108.268 121.321 109.165 121.552 109.96 121.997L135.398 136.279C135.647 136.418 135.855 136.621 136 136.866C136.146 137.112 136.224 137.392 136.226 137.678C136.228 137.963 136.155 138.245 136.013 138.492C135.871 138.74 135.666 138.946 135.419 139.089Z" fill="#E0E0E0"/>
<path id="Vector_4" d="M150.98 195.663C165.714 195.663 177.659 188.753 177.659 180.229C177.659 171.705 165.714 164.795 150.98 164.795C136.245 164.795 124.301 171.705 124.301 180.229C124.301 188.753 136.245 195.663 150.98 195.663Z" fill="#E0E0E0"/>
<path id="Vector_5" d="M208.688 189.106C213.825 189.106 217.99 186.696 217.99 183.722C217.99 180.749 213.825 178.339 208.688 178.339C203.551 178.339 199.387 180.749 199.387 183.722C199.387 186.696 203.551 189.106 208.688 189.106Z" fill="#E0E0E0"/>
</g>
<g id="Furniture">
<path id="Vector_6" d="M208.99 98.9024L209.001 169.947L231.967 156.65V85.6755L208.99 98.9024Z" fill="#E6E6E6"/>
<path id="Vector_7" d="M169.982 147.38L208.999 169.947V98.9672L169.993 76.4702L169.982 147.38Z" fill="#EBEBEB"/>
<path id="Vector_8" d="M169.982 76.4L208.999 98.967L231.965 85.6755L192.965 63.1731L169.982 76.4Z" fill="#F5F5F5"/>
<path id="Vector_9" d="M174.554 102.38L204.199 119.532C204.329 119.606 204.475 119.645 204.625 119.645C204.774 119.644 204.921 119.605 205.05 119.531C205.179 119.456 205.287 119.349 205.362 119.219C205.437 119.09 205.477 118.944 205.478 118.794V103.726C205.476 103.354 205.375 102.989 205.187 102.668C204.998 102.348 204.728 102.083 204.403 101.901L174.806 84.8143C174.676 84.7398 174.529 84.7008 174.379 84.7012C174.23 84.7016 174.083 84.7414 173.953 84.8166C173.824 84.8919 173.716 84.9999 173.641 85.1299C173.567 85.2598 173.527 85.4072 173.527 85.5572V100.555C173.524 100.923 173.617 101.285 173.797 101.605C173.977 101.925 174.238 102.193 174.554 102.38Z" fill="#FAFAFA"/>
<path id="Vector_10" d="M192.105 98.6064C192.002 98.6055 191.902 98.5777 191.814 98.5257L186.581 95.511C186.46 95.426 186.376 95.2991 186.344 95.155C186.312 95.011 186.335 94.8603 186.408 94.7323C186.482 94.6044 186.6 94.5084 186.74 94.4632C186.88 94.4181 187.032 94.427 187.166 94.4881L192.4 97.5082C192.504 97.5763 192.583 97.6755 192.627 97.7916C192.67 97.9077 192.676 98.0346 192.643 98.1543C192.61 98.2739 192.541 98.38 192.444 98.4574C192.347 98.5347 192.228 98.5794 192.105 98.5849V98.6064Z" fill="#E0E0E0"/>
<path id="Vector_11" d="M174.554 123.418L204.199 140.564C204.329 140.638 204.475 140.677 204.625 140.677C204.774 140.677 204.92 140.638 205.05 140.563C205.179 140.489 205.287 140.381 205.362 140.252C205.437 140.123 205.477 139.976 205.478 139.827V124.753C205.475 124.381 205.375 124.016 205.186 123.696C204.997 123.375 204.727 123.111 204.403 122.928L174.806 105.879C174.677 105.805 174.53 105.766 174.381 105.766C174.231 105.766 174.085 105.806 173.955 105.88C173.826 105.955 173.719 106.062 173.643 106.191C173.568 106.321 173.528 106.467 173.527 106.617V121.615C173.528 121.979 173.623 122.336 173.803 122.652C173.983 122.968 174.242 123.232 174.554 123.418Z" fill="#FAFAFA"/>
<path id="Vector_12" d="M192.105 119.639C192.003 119.638 191.904 119.612 191.814 119.564L186.581 116.544C186.46 116.459 186.376 116.332 186.344 116.188C186.312 116.044 186.335 115.893 186.408 115.765C186.482 115.637 186.6 115.541 186.74 115.496C186.88 115.451 187.032 115.46 187.166 115.521L192.4 118.541C192.504 118.609 192.583 118.708 192.627 118.824C192.67 118.94 192.676 119.067 192.643 119.187C192.61 119.307 192.541 119.413 192.444 119.49C192.347 119.567 192.228 119.612 192.105 119.618V119.639Z" fill="#E0E0E0"/>
<path id="Vector_13" d="M174.554 144.451L204.199 161.597C204.329 161.671 204.475 161.71 204.625 161.71C204.774 161.71 204.921 161.671 205.05 161.596C205.179 161.521 205.287 161.414 205.362 161.285C205.437 161.156 205.477 161.009 205.478 160.859V145.786C205.475 145.414 205.375 145.049 205.186 144.729C204.997 144.408 204.727 144.143 204.403 143.961L174.806 126.874C174.677 126.8 174.53 126.761 174.381 126.761C174.232 126.761 174.085 126.801 173.956 126.875C173.826 126.95 173.719 127.057 173.644 127.186C173.568 127.316 173.528 127.462 173.528 127.612V142.615C173.523 142.985 173.615 143.349 173.795 143.671C173.975 143.993 174.237 144.262 174.554 144.451Z" fill="#FAFAFA"/>
<path id="Vector_14" d="M192.105 140.672C192.003 140.673 191.903 140.647 191.814 140.596L186.581 137.576C186.514 137.538 186.455 137.487 186.408 137.425C186.362 137.364 186.327 137.294 186.307 137.22C186.287 137.145 186.282 137.068 186.292 136.991C186.302 136.915 186.327 136.841 186.366 136.774C186.404 136.707 186.455 136.649 186.516 136.602C186.578 136.555 186.648 136.521 186.722 136.501C186.797 136.482 186.874 136.477 186.951 136.488C187.027 136.499 187.1 136.525 187.166 136.564L192.4 139.579C192.467 139.617 192.525 139.669 192.572 139.73C192.619 139.791 192.654 139.861 192.674 139.935C192.694 140.01 192.699 140.088 192.689 140.164C192.679 140.241 192.654 140.314 192.615 140.381C192.564 140.471 192.489 140.545 192.4 140.597C192.31 140.648 192.208 140.674 192.105 140.672Z" fill="#E0E0E0"/>
</g>
<g id="Pictures">
<path id="Vector_15" d="M194.369 27.363V46.3501L210.785 55.841V36.8539L194.369 27.363Z" fill="#FAFAFA"/>
<path id="Vector_16" d="M196.146 28.3858L210.805 36.8538V53.7845L196.167 45.3218V28.3858M195.275 26.8462L194.389 27.3845V46.3716L210.805 55.8409L211.691 55.3026V36.3424L195.254 26.8462H195.275Z" fill="#E0E0E0"/>
<path id="Vector_17" d="M195.256 28.8973L209.893 37.3653V54.2959L195.256 45.8279V28.8973ZM194.369 27.3577V46.3447L210.807 55.841V36.8539L194.369 27.3631V27.3577Z" fill="#EBEBEB"/>
<path id="Vector_18" d="M196.777 42.0058L209.195 49.1871L205.525 39.6263L202.989 42.6464L200.388 38.9426L196.777 42.0058Z" fill="#E0E0E0"/>
<path id="Vector_19" d="M201.086 36.041C201.107 36.4348 201.221 36.8181 201.418 37.1596C201.615 37.501 201.89 37.791 202.22 38.0059C202.843 38.3666 203.354 38.0705 203.354 37.3491C203.332 36.9555 203.218 36.5725 203.021 36.2312C202.824 35.8898 202.549 35.5997 202.22 35.3842C201.591 35.0235 201.086 35.3142 201.086 36.041Z" fill="#E0E0E0"/>
<path id="Vector_20" d="M215.701 50.3445V65.4717L228.775 73.0353V57.9081L215.701 50.3445Z" fill="#FAFAFA"/>
<path id="Vector_21" d="M217.114 51.1683L228.775 57.9082V71.4258L217.114 64.6805V51.2221M216.405 49.9893L215.701 50.3984V65.5257L228.775 73.0408L229.484 72.6317V57.5045L216.405 49.9678V49.9893Z" fill="#E0E0E0"/>
<path id="Vector_22" d="M216.405 51.5773L228.065 58.3172V71.8079L216.405 65.0626V51.5773ZM215.701 50.3445V65.4717L228.775 73.0407V57.9135L215.701 50.3768V50.3445Z" fill="#EBEBEB"/>
<path id="Vector_23" d="M217.621 62.0102L227.508 67.7327L224.59 60.1153L222.565 62.527L220.496 59.5715L217.621 62.0102Z" fill="#E0E0E0"/>
<path id="Vector_24" d="M221.049 57.2621C221.066 57.5758 221.157 57.8811 221.314 58.1533C221.47 58.4254 221.689 58.6568 221.952 58.8286C222.451 59.114 222.854 58.8825 222.854 58.2903C222.838 57.9763 222.748 57.6707 222.591 57.3984C222.434 57.1262 222.215 56.895 221.952 56.7237C221.452 56.4492 221.049 56.6861 221.049 57.2621Z" fill="#E0E0E0"/>
</g>
<g id="Plant">
<path id="Vector_25" d="M209.235 170.006C209.235 170.006 203.518 164.413 206.774 155.045C208.596 149.797 214.636 145.942 218.058 145.576C216.919 146.932 216.012 148.467 215.372 150.12L211.041 153.005L215.022 151.756L214.173 155.169C214.173 155.169 210.471 157.414 209.923 157.904L213.915 156.86C213.915 156.86 213.625 166.528 209.235 170.006Z" fill="#E8A842"/>
<path id="Vector_26" opacity="0.4" d="M209.235 170.006C209.235 170.006 203.518 164.413 206.774 155.045C208.596 149.797 214.636 145.942 218.058 145.576C216.919 146.932 216.012 148.467 215.372 150.12L211.041 153.005L215.022 151.756L214.173 155.169C214.173 155.169 210.471 157.414 209.923 157.904L213.915 156.86C213.915 156.86 213.625 166.528 209.235 170.006Z" fill="black"/>
<path id="Vector_27" d="M209.235 170.006C209.235 170.006 206.275 158.302 210.654 151.476C210.654 151.476 205.522 157.5 209.235 170.006Z" fill="white"/>
<path id="Vector_28" d="M215.772 171.589L208.786 171.502H208.716L201.731 171.589C201.731 171.589 201.65 180.202 204.305 183.733C205.041 184.67 206.755 185.348 208.759 185.348C210.764 185.348 212.488 184.686 213.219 183.733C215.852 180.213 215.772 171.589 215.772 171.589Z" fill="#37474F"/>
<path id="Vector_29" d="M215.772 171.589C215.772 173.677 212.628 175.357 208.743 175.357C204.858 175.357 201.715 173.661 201.715 171.589C201.715 169.516 204.864 167.82 208.743 167.82C212.623 167.82 215.772 169.5 215.772 171.589Z" fill="#455A64"/>
<path id="Vector_30" d="M208.744 170.587C211.162 170.587 213.209 171.363 213.934 172.439C214.111 172.19 214.208 171.894 214.214 171.589C214.214 170.097 211.763 168.897 208.744 168.897C205.724 168.897 203.273 170.108 203.273 171.589C203.278 171.895 203.378 172.192 203.558 172.439C204.278 171.363 206.326 170.587 208.744 170.587Z" fill="#263238"/>
<path id="Vector_31" d="M208.744 170.587C206.326 170.587 204.279 171.362 203.559 172.439C204.279 173.516 206.326 174.296 208.744 174.296C211.162 174.296 213.209 173.516 213.935 172.439C213.209 171.362 211.162 170.587 208.744 170.587Z" fill="#E0E0E0"/>
<path id="Vector_32" d="M208.83 172.908C208.83 172.908 206.144 172.805 203.801 169.198C202.839 167.713 202.377 166.932 202.377 166.932L206.138 166.647L201.909 165.57L199.91 162.507L203.419 162.243C201.973 161.738 200.466 161.425 198.938 161.312C198.938 161.312 195.714 155.584 194.752 154.766C197.209 154.915 199.611 155.558 201.815 156.656C204.019 157.754 205.981 159.284 207.584 161.156C212.887 167.46 209.62 173.069 208.83 172.908Z" fill="#E8A842"/>
<path id="Vector_33" d="M208.832 172.907C208.832 172.907 210.53 162.679 199.697 156.531C199.713 156.531 210.939 161.936 208.832 172.907Z" fill="white"/>
<path id="Vector_34" d="M208.83 172.907C208.83 172.907 211.286 173.069 213.72 170.038C214.725 168.784 215.214 168.122 215.214 168.122L211.834 167.513L215.751 166.975L217.841 164.396L214.698 163.831C216.051 163.511 217.44 163.371 218.83 163.417C218.83 163.417 222.29 158.572 223.22 157.904C220.999 157.805 218.781 158.152 216.697 158.925C214.612 159.698 212.703 160.881 211.081 162.404C205.686 167.61 208.121 172.977 208.83 172.907Z" fill="#E8A842"/>
<path id="Vector_35" opacity="0.2" d="M208.83 172.907C208.83 172.907 211.286 173.069 213.72 170.038C214.725 168.784 215.214 168.122 215.214 168.122L211.834 167.513L215.751 166.975L217.841 164.396L214.698 163.831C216.051 163.511 217.44 163.371 218.83 163.417C218.83 163.417 222.29 158.572 223.22 157.904C220.999 157.805 218.781 158.152 216.697 158.925C214.612 159.698 212.703 160.881 211.081 162.404C205.686 167.61 208.121 172.977 208.83 172.907Z" fill="black"/>
<path id="Vector_36" d="M208.829 172.907C208.829 172.907 208.26 163.524 218.598 158.991C218.598 158.991 207.964 162.808 208.829 172.907Z" fill="white"/>
</g>
<g id="Envelope">
<path id="Vector_37" d="M102.154 42.2751L99.7087 41.2792L99.4615 41.1769H99.4346C98.9963 41.0183 98.5286 40.9578 98.0645 40.9997C97.6003 41.0415 97.1509 41.1847 96.7479 41.4191L12.8468 89.9339C11.0836 90.9519 9.61929 92.4174 8.60141 94.1828C7.58354 95.9482 7.04803 97.9512 7.04883 99.99V173.171C7.04925 173.949 7.25404 174.713 7.64261 175.386C8.03117 176.06 8.58982 176.619 9.2624 177.007C9.93497 177.396 10.6978 177.6 11.4741 177.599C12.2505 177.599 13.013 177.394 13.685 177.004L97.6668 128.43C98.865 127.737 99.8599 126.739 100.551 125.538C101.243 124.337 101.606 122.974 101.606 121.588V44.24C101.607 43.6861 101.466 43.1411 101.197 42.6573L102.154 42.2751Z" fill="#E8A842"/>
<path id="Vector_38" opacity="0.3" d="M102.154 42.2751L99.7087 41.2792L99.4615 41.1769H99.4346C98.9963 41.0183 98.5286 40.9578 98.0645 40.9997C97.6003 41.0415 97.1509 41.1847 96.7479 41.4191L12.8468 89.9339C11.0836 90.9519 9.61929 92.4174 8.60141 94.1828C7.58354 95.9482 7.04803 97.9512 7.04883 99.99V173.171C7.04925 173.949 7.25404 174.713 7.64261 175.386C8.03117 176.06 8.58982 176.619 9.2624 177.007C9.93497 177.396 10.6978 177.6 11.4741 177.599C12.2505 177.599 13.013 177.394 13.685 177.004L97.6668 128.43C98.865 127.737 99.8599 126.739 100.551 125.538C101.243 124.337 101.606 122.974 101.606 121.588V44.24C101.607 43.6861 101.466 43.1411 101.197 42.6573L102.154 42.2751Z" fill="black"/>
<path id="Vector_39" d="M103.83 45.1229V122.498C103.831 123.884 103.466 125.246 102.774 126.447C102.081 127.647 101.085 128.643 99.8855 129.335L15.9038 177.914C15.2311 178.302 14.4684 178.506 13.6922 178.505C12.9161 178.505 12.1537 178.3 11.4815 177.911C10.8093 177.522 10.251 176.963 9.86238 176.29C9.47381 175.617 9.26869 174.853 9.26758 174.076V100.862C9.26804 98.8558 9.78832 96.884 10.7775 95.1396C11.5268 93.8458 12.6086 92.7768 13.9102 92.0442L100.654 41.866C101.495 41.8923 102.294 42.2428 102.884 42.8445C103.473 43.4463 103.808 44.2528 103.819 45.096L103.83 45.1229Z" fill="#E8A842"/>
<path id="Vector_40" opacity="0.1" d="M103.83 45.1229V122.498C103.831 123.884 103.466 125.246 102.774 126.447C102.081 127.647 101.085 128.643 99.8855 129.335L15.9038 177.914C15.2311 178.302 14.4684 178.506 13.6922 178.505C12.9161 178.505 12.1537 178.3 11.4815 177.911C10.8093 177.522 10.251 176.963 9.86238 176.29C9.47381 175.617 9.26869 174.853 9.26758 174.076V100.862C9.26804 98.8558 9.78832 96.884 10.7775 95.1396C11.5268 93.8458 12.6086 92.7768 13.9102 92.0442L100.654 41.866C101.495 41.8923 102.294 42.2428 102.884 42.8445C103.473 43.4463 103.808 44.2528 103.819 45.096L103.83 45.1229Z" fill="black"/>
<path id="Vector_41" d="M99.884 129.335L15.9023 177.914C15.2522 178.295 14.5151 178.502 13.7621 178.514C13.009 178.526 12.2656 178.344 11.6035 177.984L61.7486 102.375L103.828 122.493C103.828 123.88 103.464 125.242 102.772 126.443C102.079 127.645 101.083 128.642 99.884 129.335Z" fill="#E8A842"/>
<path id="Vector_42" opacity="0.2" d="M99.884 129.335L15.9023 177.914C15.2522 178.295 14.5151 178.502 13.7621 178.514C13.009 178.526 12.2656 178.344 11.6035 177.984L61.7486 102.375L103.828 122.493C103.828 123.88 103.464 125.242 102.772 126.443C102.079 127.645 101.083 128.642 99.884 129.335Z" fill="black"/>
<path id="Vector_43" d="M102.416 42.442L68.1712 114.207C67.4967 115.617 66.5389 116.873 65.3578 117.895C64.1767 118.917 62.7977 119.683 61.3071 120.147C59.8166 120.61 58.2466 120.76 56.6954 120.588C55.1443 120.415 53.6454 119.924 52.2927 119.144L10.7773 95.1558C11.486 93.8951 12.5197 92.8483 13.7704 92.1249L100.654 41.866C101.285 41.881 101.898 42.0813 102.416 42.442Z" fill="#E8A842"/>
</g>
<g id="Letter">
<path id="Vector_44" d="M19.3965 72.1148L43.9962 57.8812V40.24L26.1187 50.1131C24.0825 51.2359 22.3845 52.8858 21.2021 54.8904C20.0196 56.8951 19.3961 59.1811 19.3965 61.5096V72.1148Z" fill="#E8A842"/>
<path id="Vector_45" opacity="0.5" d="M19.3965 72.1148L43.9962 57.8812V40.24L26.1187 50.1131C24.0825 51.2359 22.3845 52.8858 21.2021 54.8904C20.0196 56.8951 19.3961 59.1811 19.3965 61.5096V72.1148Z" fill="white"/>
<path id="Vector_46" d="M121.073 3.79477L118.822 2.51892C115.962 0.86245 112.716 -0.00658082 109.413 3.75219e-05C106.11 0.00665587 102.867 0.888688 100.014 2.5566L29.6598 43.6208C26.5368 45.4429 23.9456 48.0537 22.1446 51.1927C20.3437 54.3317 19.3961 57.8891 19.3965 61.5097C19.3962 59.6497 19.8863 57.8227 20.817 56.2133C21.7477 54.6039 23.0861 53.2693 24.6969 52.3445C26.3076 51.4196 28.1336 50.9373 29.9901 50.9463C31.8467 50.9553 33.6679 51.4552 35.2697 52.3957L38.2143 54.1237C41.2802 55.9215 43.8232 58.4917 45.5907 61.5789C47.3581 64.6661 48.2886 68.1629 48.2896 71.7219V176.45L43.4911 188.654L52.5023 183.157L124.942 141.049C127.515 139.554 129.65 137.408 131.134 134.826C132.617 132.243 133.397 129.316 133.394 126.336V25.2151C133.394 20.8762 132.255 16.6136 130.093 12.8543C127.93 9.09496 124.82 5.97082 121.073 3.79477Z" fill="#E8A842"/>
<path id="Vector_47" opacity="0.7" d="M121.073 3.79477L118.822 2.51892C115.962 0.86245 112.716 -0.00658082 109.413 3.75219e-05C106.11 0.00665587 102.867 0.888688 100.014 2.5566L29.6598 43.6208C26.5368 45.4429 23.9456 48.0537 22.1446 51.1927C20.3437 54.3317 19.3961 57.8891 19.3965 61.5097C19.3962 59.6497 19.8863 57.8227 20.817 56.2133C21.7477 54.6039 23.0861 53.2693 24.6969 52.3445C26.3076 51.4196 28.1336 50.9373 29.9901 50.9463C31.8467 50.9553 33.6679 51.4552 35.2697 52.3957L38.2143 54.1237C41.2802 55.9215 43.8232 58.4917 45.5907 61.5789C47.3581 64.6661 48.2886 68.1629 48.2896 71.7219V176.45L43.4911 188.654L52.5023 183.157L124.942 141.049C127.515 139.554 129.65 137.408 131.134 134.826C132.617 132.243 133.397 129.316 133.394 126.336V25.2151C133.394 20.8762 132.255 16.6136 130.093 12.8543C127.93 9.09496 124.82 5.97082 121.073 3.79477Z" fill="white"/>
<path id="Vector_48" d="M22.3125 179.136C22.3125 179.136 27.3582 186.527 35.4667 188.977C44.1878 191.609 48.2878 185.817 48.2878 178.135V164.24L22.3125 179.136Z" fill="#E8A842"/>
<path id="Vector_49" opacity="0.5" d="M22.3125 179.136C22.3125 179.136 27.3582 186.527 35.4667 188.977C44.1878 191.609 48.2878 185.817 48.2878 178.135V164.24L22.3125 179.136Z" fill="white"/>
<path id="Vector_50" d="M63.9644 104.803C63.7901 104.8 63.6215 104.74 63.484 104.633C63.3466 104.526 63.2479 104.376 63.2029 104.208C63.1579 104.039 63.1691 103.86 63.2348 103.698C63.3005 103.537 63.417 103.401 63.5667 103.311L117.301 72.2171C117.484 72.1115 117.702 72.083 117.906 72.138C118.11 72.193 118.284 72.327 118.389 72.5105C118.495 72.694 118.523 72.9119 118.468 73.1163C118.413 73.3208 118.28 73.495 118.097 73.6006L64.362 104.695C64.2408 104.764 64.1039 104.801 63.9644 104.803Z" fill="white"/>
<path id="Vector_51" d="M63.9656 116.727C63.7908 116.726 63.621 116.668 63.4824 116.562C63.3439 116.455 63.2443 116.305 63.199 116.136C63.1537 115.967 63.1654 115.788 63.232 115.626C63.2987 115.464 63.4168 115.329 63.5679 115.241L117.302 84.1412C117.486 84.0355 117.703 84.0071 117.907 84.0621C118.111 84.1171 118.285 84.2511 118.391 84.4346C118.496 84.618 118.524 84.836 118.47 85.0404C118.415 85.2448 118.281 85.419 118.098 85.5247L64.3632 116.646C64.2395 116.706 64.1028 116.734 63.9656 116.727Z" fill="white"/>
<path id="Vector_52" d="M63.9656 128.645C63.7908 128.645 63.621 128.587 63.4824 128.48C63.3439 128.374 63.2443 128.224 63.199 128.055C63.1537 127.886 63.1654 127.707 63.232 127.545C63.2987 127.383 63.4168 127.248 63.5679 127.16L117.302 96.0654C117.484 95.9708 117.695 95.95 117.892 96.0074C118.088 96.0648 118.255 96.196 118.358 96.3736C118.46 96.5511 118.49 96.7615 118.442 96.9608C118.394 97.1601 118.27 97.333 118.098 97.4435L64.3632 128.538C64.242 128.607 64.1051 128.644 63.9656 128.645Z" fill="white"/>
<path id="Vector_53" d="M63.9656 140.564C63.7908 140.564 63.621 140.506 63.4824 140.399C63.3439 140.292 63.2443 140.143 63.199 139.974C63.1537 139.805 63.1654 139.625 63.232 139.463C63.2987 139.302 63.4168 139.166 63.5679 139.078L117.302 107.984C117.484 107.889 117.695 107.869 117.892 107.926C118.088 107.984 118.255 108.115 118.358 108.292C118.46 108.47 118.49 108.68 118.442 108.879C118.394 109.079 118.27 109.252 118.098 109.362L64.3632 140.456C64.243 140.528 64.1054 140.565 63.9656 140.564Z" fill="white"/>
<path id="Vector_54" d="M63.9656 152.483C63.7908 152.482 63.621 152.424 63.4824 152.318C63.3439 152.211 63.2443 152.062 63.199 151.892C63.1537 151.723 63.1654 151.544 63.232 151.382C63.2987 151.22 63.4168 151.085 63.5679 150.997L117.302 119.903C117.484 119.808 117.695 119.787 117.892 119.845C118.088 119.902 118.255 120.033 118.358 120.211C118.46 120.389 118.49 120.599 118.442 120.798C118.394 120.998 118.27 121.17 118.098 121.281L64.3632 152.375C64.243 152.447 64.1054 152.484 63.9656 152.483Z" fill="white"/>
<path id="Vector_55" d="M99.2505 143.988C99.1109 143.989 98.9735 143.952 98.8526 143.882C98.7317 143.812 98.6316 143.711 98.5627 143.589C98.4609 143.408 98.4342 143.193 98.4884 142.992C98.5427 142.791 98.6735 142.619 98.8529 142.513L117.311 131.821C117.492 131.727 117.703 131.706 117.9 131.764C118.097 131.821 118.264 131.952 118.366 132.13C118.468 132.307 118.499 132.518 118.45 132.717C118.402 132.916 118.278 133.089 118.106 133.2L99.6482 143.886C99.5266 143.953 99.3896 143.988 99.2505 143.988Z" fill="white"/>
<path id="Vector_56" d="M101.383 59.9269L85.8965 68.8848V61.2404C85.8965 55.9271 89.1206 49.7524 93.1023 47.4483L94.177 46.8292C98.1533 44.5251 101.383 46.9692 101.383 52.2825V59.9269Z" fill="#E8A842"/>
<path id="Vector_57" d="M104.988 62.4624L82.291 75.5924L85.8966 67.2267L101.383 58.2688L104.988 62.4624Z" fill="#E8A842"/>
<path id="Vector_58" d="M93.6675 49.661C92.9958 50.0486 92.4531 49.7364 92.4531 48.9612V45.9842C92.4765 45.5625 92.5986 45.1522 92.8096 44.7866C93.0206 44.4209 93.3145 44.1101 93.6675 43.8793C94.3338 43.4917 94.8766 43.8039 94.8766 44.5791V47.5615C94.8529 47.9818 94.7313 48.3907 94.5213 48.7553C94.3113 49.12 94.0189 49.4302 93.6675 49.661Z" fill="#E8A842"/>
<path id="Vector_59" d="M91.0625 71.641C91.127 73.186 92.2554 73.7943 93.6418 72.9922C94.3682 72.5164 94.9773 71.8815 95.4231 71.1355C95.869 70.3894 96.14 69.5518 96.2156 68.6855L91.0625 71.641Z" fill="#E8A842"/>
</g>
<g id="speech-bubble">
<path id="Vector_60" d="M169.982 48.3636C176.223 48.3636 181.282 43.2949 181.282 37.0424C181.282 30.7899 176.223 25.7212 169.982 25.7212C163.741 25.7212 158.682 30.7899 158.682 37.0424C158.682 43.2949 163.741 48.3636 169.982 48.3636Z" fill="#E8A842"/>
<path id="Vector_61" d="M167.966 45.8442C167.966 45.8442 168.976 49.4403 164.887 52.778C164.887 52.778 171.184 52.1428 171.528 46.1457L167.966 45.8442Z" fill="#E8A842"/>
<path id="Vector_62" d="M171.093 38.0868H168.664L168.057 32.2458H171.7L171.093 38.0868ZM169.878 41.8551C169.655 41.8704 169.43 41.8404 169.219 41.7668C169.007 41.6932 168.812 41.5775 168.646 41.4267C168.48 41.2759 168.346 41.0931 168.252 40.8892C168.158 40.6853 168.106 40.4646 168.1 40.2401C168.148 39.8013 168.356 39.3957 168.684 39.1011C169.012 38.8066 169.438 38.6436 169.878 38.6436C170.319 38.6436 170.744 38.8066 171.072 39.1011C171.4 39.3957 171.609 39.8013 171.657 40.2401C171.649 40.4636 171.596 40.6832 171.501 40.8859C171.407 41.0885 171.273 41.27 171.107 41.4197C170.941 41.5693 170.747 41.684 170.536 41.757C170.324 41.83 170.101 41.8597 169.878 41.8444V41.8551Z" fill="white"/>
</g>
<g id="Character">
<path id="Vector_63" d="M147.673 80.8037C146.51 80.7134 145.342 80.9118 144.274 81.3813C143.205 81.8508 142.269 82.5769 141.547 83.4953C139.156 86.65 134.094 94.1113 134.094 94.1113C134.094 94.1113 131.977 91.7588 130.591 90.1061C129.204 88.4534 127.904 87.0537 127.904 87.0537C127.721 86.1642 127.585 85.2658 127.495 84.3621C127.377 83.0808 127.205 82.2087 126.27 81.3312C125.335 80.4538 124.621 79.6301 124.545 78.9626C124.47 78.295 124.008 77.6275 123.417 78.3112C122.826 78.9949 122.88 81.0944 124.116 82.494C124.116 82.494 121.907 81.4658 120.891 80.26C119.876 79.0541 118.565 76.9546 117.984 77.536C117.404 78.1174 116.292 84.3782 117.984 85.7725C119.677 87.1668 123.863 89.5408 123.863 89.5408C123.863 89.5408 129.333 102.956 133.181 102.956C137.028 102.956 143.39 93.04 143.39 93.04L147.673 80.8037Z" fill="#FFA8A7"/>
<path id="Vector_64" d="M140.844 150.841L142.031 169.042C142.031 169.042 143.106 170.969 145.175 170.969L147.055 168.913C147.03 166.478 147.233 164.047 147.663 161.651C148.361 157.974 149.715 152.596 150.108 149.49L140.844 150.841Z" fill="#FFA8A7"/>
<path id="Vector_65" d="M141.912 109.723C141.912 109.723 140.966 115.844 140.499 121.798C140.128 126.546 139.886 133.13 139.8 135.601C139.78 136.247 139.794 136.894 139.843 137.539L140.843 150.841C140.843 150.841 146.716 153.425 150.117 149.49C150.117 149.49 150.531 145.678 149.94 143.03C149.594 141.358 149.636 139.628 150.063 137.975L153.744 123.16V109.594L141.912 109.723Z" fill="#37474F"/>
<path id="Vector_66" d="M144.768 114.8C145.016 115.887 145.557 116.886 146.332 117.688C147.107 118.49 148.086 119.064 149.163 119.348L151.361 132.753L154.585 121.007V114.8H144.768Z" fill="#263238"/>
<path id="Vector_67" d="M156.189 153.554L159.903 174.07H163.916C163.916 174.07 165.437 156.784 165.357 152.069L156.189 153.554Z" fill="#FFA8A7"/>
<path id="Vector_68" d="M143.788 109.588C143.788 109.588 143.003 117.507 150.075 118.202L153.745 141.786L156.19 153.549C156.19 153.549 161.918 157.29 165.357 152.063C165.357 152.063 165.706 146.141 164.282 142.061C163.911 141.001 163.757 139.876 163.831 138.755C164.228 132.974 165.324 116.011 164.787 112.253L161.251 107.618L143.788 109.588Z" fill="#37474F"/>
<path id="Vector_69" d="M156.66 81.6542H160.25L162.652 93.6645L161.072 98.8056C160.738 99.8713 160.815 101.024 161.287 102.036C162.362 104.383 164.355 108.969 164.79 112.264C163.785 112.338 162.779 112.137 161.879 111.683C160.979 111.229 160.219 110.538 159.68 109.685C159.68 109.685 156.666 113.664 149.331 113.664C145.774 113.664 142.883 111.042 141.91 109.728L143.227 103.774C143.336 103.291 143.375 102.794 143.345 102.299C143.275 101.067 143.141 98.531 143.173 96.6038C143.173 96.6038 139.766 95.2472 140.642 91.0482C141.518 86.8492 147.67 80.8198 147.67 80.8198L150.309 80.9221L156.66 81.6542Z" fill="#E8A842"/>
<path id="Vector_70" d="M148.007 58.506C148.007 58.506 143.655 56.9933 142.591 61.4561C141.527 65.9189 144.805 70.2525 139.904 71.7383C139.904 71.7383 142.795 74.1501 145.342 69.6442L147.492 78.7959C147.492 78.7959 147.492 79.2965 146.729 79.6788C146.729 79.6788 159.088 82.435 161.468 76.2549C161.796 76.6107 162.02 77.0502 162.115 77.5251C162.209 78 162.172 78.4919 162.005 78.9466C162.005 78.9466 165.654 77.4662 164.628 72.7342C164.628 72.7342 167.513 72.6535 168.201 70.301C168.201 70.301 163.585 70.5217 163.612 65.4183C163.644 59.5235 160.549 60.3794 160.549 60.3794C160.549 60.3794 156.761 54.7377 148.007 58.506Z" fill="#455A64"/>
<path id="Vector_71" d="M150.311 76.9709V80.9062C150.311 80.9062 146.243 85.4389 150.209 85.7996C154.175 86.1603 156.657 81.6545 156.657 81.6545V73.3318L150.311 76.9709Z" fill="#FFA8A7"/>
<path id="Vector_72" d="M156.592 72.018V72.2441C155.179 77.8428 151.498 79.0594 150.311 79.3448L150.268 70.6829L156.415 70.6506L156.592 72.018Z" fill="#F28F8F"/>
<path id="Vector_73" d="M150.715 59.5827C148.367 59.7765 143.487 61.4938 143.418 67.69C143.348 73.8863 144.288 78.6129 147.496 78.8067C150.704 79.0005 157.867 76.115 158.2 68.04C158.533 59.9649 152.999 59.3674 150.715 59.5827Z" fill="#FFA8A7"/>
<path id="Vector_74" d="M147.744 70.1501L147.803 73.7893L145.664 73.1702L147.744 70.1501Z" fill="#F28F8F"/>
<path id="Vector_75" d="M150.936 70.0531C150.939 70.2004 150.899 70.3454 150.819 70.4696C150.74 70.5937 150.626 70.6914 150.491 70.7503C150.356 70.8092 150.207 70.8265 150.062 70.8001C149.917 70.7738 149.784 70.7048 149.678 70.6022C149.572 70.4995 149.5 70.3677 149.469 70.2235C149.439 70.0793 149.452 69.9293 149.506 69.7925C149.561 69.6558 149.655 69.5384 149.777 69.4554C149.899 69.3724 150.042 69.3275 150.189 69.3264C150.286 69.3242 150.382 69.3414 150.472 69.3769C150.563 69.4124 150.645 69.4655 150.714 69.5331C150.784 69.6007 150.839 69.6815 150.877 69.7708C150.915 69.8601 150.935 69.956 150.936 70.0531Z" fill="#263238"/>
<path id="Vector_76" d="M146.061 69.6062C146.063 69.7035 146.046 69.8003 146.011 69.8909C145.975 69.9816 145.922 70.0643 145.855 70.1344C145.788 70.2045 145.707 70.2605 145.618 70.2992C145.529 70.3379 145.433 70.3585 145.336 70.3599C145.189 70.3631 145.044 70.3225 144.921 70.2433C144.797 70.1641 144.699 70.0499 144.64 69.9151C144.581 69.7803 144.564 69.631 144.59 69.4861C144.616 69.3413 144.684 69.2074 144.786 69.1015C144.888 68.9956 145.019 68.9224 145.162 68.8912C145.306 68.86 145.456 68.8722 145.592 68.9262C145.729 68.9803 145.846 69.0738 145.93 69.1949C146.013 69.3159 146.059 69.4591 146.061 69.6062Z" fill="#263238"/>
<path id="Vector_77" d="M149.742 74.9682C148.937 75.174 148.144 75.4257 147.367 75.7218C147.367 75.7218 147.147 74.4567 148.194 74.166C148.505 74.1002 148.829 74.1441 149.111 74.2903C149.393 74.4366 149.616 74.676 149.742 74.9682Z" fill="#F28F8F"/>
<path id="Vector_78" d="M145.792 66.8662L144.357 67.7437C144.357 67.7437 144.895 68.3143 145.464 67.959C145.622 67.831 145.738 67.6583 145.797 67.4633C145.855 67.2684 145.854 67.0603 145.792 66.8662Z" fill="#263238"/>
<path id="Vector_79" d="M154.487 70.0317C154.487 70.0317 154.433 72.325 155.932 72.325H158.872V67.3562C158.872 61.7791 154.648 55.9543 145.664 60.5624C145.664 60.5624 145.137 68.3198 154.487 70.0317Z" fill="#455A64"/>
<path id="Vector_80" d="M144.581 72.2012C143.184 72.2012 142.045 71.2322 142.045 70.0479C142.045 68.8635 143.184 67.8945 144.581 67.8945C145.978 67.8945 147.117 68.8635 147.117 70.0479C147.117 71.2322 145.978 72.2012 144.581 72.2012ZM144.581 68.3091C143.426 68.3091 142.486 69.0843 142.486 70.0317C142.486 70.9792 143.426 71.7598 144.581 71.7598C145.736 71.7598 146.677 70.9846 146.677 70.0317C146.677 69.0789 145.736 68.3091 144.581 68.3091Z" fill="#E8A842"/>
<path id="Vector_81" d="M150.821 72.2174C149.257 72.2174 147.979 71.2376 147.979 70.0318C147.979 68.8259 149.257 67.8784 150.821 67.8784C152.385 67.8784 153.664 68.8582 153.664 70.0318C153.664 71.2053 152.39 72.2174 150.821 72.2174ZM150.821 68.3198C149.515 68.3198 148.446 69.0897 148.446 70.0318C148.446 70.9738 149.521 71.749 150.821 71.749C152.121 71.749 153.196 70.9792 153.196 70.0318C153.196 69.0843 152.132 68.3198 150.821 68.3198Z" fill="#E8A842"/>
<path id="Vector_82" d="M148.217 69.8003H146.9V70.2687H148.217V69.8003Z" fill="#E8A842"/>
<path id="Vector_83" d="M156.83 69.8003H153.434V70.2687H156.83V69.8003Z" fill="#E8A842"/>
<path id="Vector_84" d="M155.92 72.0236C155.902 71.4554 156.012 70.8904 156.242 70.3709C156.355 70.0475 156.559 69.764 156.83 69.5555C157.101 69.3469 157.427 69.2224 157.768 69.1973C159.52 69.1704 159.735 70.8608 159.708 71.4583C159.628 73.0357 158.338 74.726 155.947 74.7637L155.92 72.0236Z" fill="#FFA8A7"/>
<path id="Vector_85" d="M160.254 81.6543C160.254 81.6543 156.159 91.4628 162.656 93.6645L164.08 90.6176C164.08 90.6176 175.966 79.7109 178.873 77.3207C181.78 74.9305 178.051 71.399 174.445 68.0882C170.839 64.7775 167.223 61.5744 167.223 61.5744L165.418 58.3713C165.219 58.0215 164.949 57.7178 164.625 57.4803C164.301 57.2428 163.93 57.0767 163.537 56.9932C161.645 56.6002 158.083 55.9165 156.159 56.0295C153.472 56.1749 157.529 59.5287 158.212 59.5287C158.827 59.5471 159.427 59.723 159.954 60.0397C160.482 60.3563 160.92 60.8031 161.226 61.3375C162.043 62.7964 162.188 65.4235 164.794 65.3051L170.834 74.3437L160.254 81.6543Z" fill="#FFA8A7"/>
<path id="Vector_86" d="M170.834 74.3438L172.929 77.03L169.662 75.1566L170.834 74.3438Z" fill="#F28F8F"/>
<path id="Vector_87" d="M134.096 94.1169L135.96 96.2756L134.88 92.9702L134.096 94.1169Z" fill="#F28F8F"/>
<path id="Vector_88" opacity="0.2" d="M150.199 96.7978C150.199 96.7978 155.573 97.2338 157.238 92.1196C157.238 92.1196 157.303 98.6389 150.199 96.7978Z" fill="black"/>
<path id="Vector_89" d="M141.52 169.828C141.52 169.828 140.773 167.481 141.929 167.357C143.084 167.234 145.126 167.847 145.33 168.461C145.455 168.867 145.506 169.291 145.48 169.715C146.044 169.524 146.578 169.254 147.066 168.913V168.046C147.066 168.046 148.269 168.165 148.361 169.069C148.452 169.974 148.468 171.077 148.506 172.105C148.575 174.183 148.882 175.572 146.523 176.186C144.841 176.609 143.322 177.524 142.16 178.813C141.353 179.666 140.349 180.306 139.236 180.677C138.124 181.048 136.937 181.138 135.781 180.94C132.229 180.444 132.434 177.44 133.686 176.477C134.889 175.589 136.176 174.821 137.528 174.183L141.52 169.828Z" fill="#E8A842"/>
<path id="Vector_90" d="M140.253 176.466C140.199 176.467 140.147 176.453 140.101 176.426C140.055 176.398 140.019 176.358 139.995 176.31C139.425 175.391 138.518 174.732 137.469 174.474C137.431 174.466 137.395 174.45 137.363 174.428C137.331 174.405 137.304 174.377 137.283 174.344C137.262 174.311 137.247 174.274 137.241 174.235C137.234 174.196 137.235 174.157 137.244 174.119C137.252 174.081 137.268 174.046 137.29 174.014C137.312 173.983 137.34 173.956 137.372 173.935C137.405 173.915 137.441 173.901 137.479 173.894C137.517 173.888 137.556 173.889 137.593 173.898C138.198 174.044 138.768 174.31 139.269 174.68C139.77 175.05 140.192 175.516 140.511 176.051C140.535 176.096 140.548 176.146 140.547 176.197C140.546 176.248 140.531 176.297 140.505 176.341C140.479 176.384 140.442 176.42 140.398 176.445C140.354 176.47 140.304 176.483 140.253 176.482V176.466Z" fill="#FAFAFA"/>
<path id="Vector_91" d="M141.611 175.012C141.558 175.014 141.505 175 141.459 174.972C141.414 174.944 141.377 174.904 141.353 174.856C140.783 173.937 139.877 173.278 138.828 173.02C138.752 173.004 138.685 172.957 138.643 172.892C138.601 172.826 138.586 172.747 138.602 172.67C138.61 172.632 138.625 172.596 138.647 172.564C138.668 172.532 138.696 172.505 138.729 172.484C138.762 172.462 138.798 172.448 138.836 172.441C138.874 172.435 138.913 172.436 138.951 172.444C139.557 172.59 140.127 172.855 140.628 173.225C141.129 173.595 141.551 174.062 141.869 174.598C141.906 174.666 141.914 174.747 141.891 174.821C141.869 174.896 141.819 174.959 141.751 174.996C141.706 175.011 141.658 175.017 141.611 175.012Z" fill="#FAFAFA"/>
<path id="Vector_92" d="M142.971 173.559C142.918 173.559 142.866 173.545 142.82 173.517C142.775 173.49 142.738 173.45 142.713 173.403C142.14 172.487 141.235 171.829 140.188 171.567C140.113 171.549 140.048 171.503 140.007 171.437C139.965 171.372 139.951 171.293 139.967 171.217C139.974 171.179 139.989 171.143 140.01 171.111C140.032 171.079 140.059 171.052 140.091 171.031C140.123 171.01 140.159 170.995 140.197 170.988C140.235 170.982 140.274 170.983 140.311 170.991C140.917 171.137 141.488 171.403 141.99 171.772C142.492 172.142 142.915 172.609 143.235 173.145C143.271 173.214 143.278 173.295 143.255 173.369C143.232 173.444 143.18 173.506 143.111 173.543C143.066 173.559 143.018 173.564 142.971 173.559Z" fill="#FAFAFA"/>
<path id="Vector_93" d="M159.902 174.07C159.858 173.841 159.868 173.604 159.931 173.378C159.993 173.153 160.107 172.945 160.263 172.771C160.419 172.597 160.613 172.461 160.83 172.375C161.047 172.288 161.281 172.253 161.514 172.272C163.395 172.272 164.738 172.326 164.572 173.726V174.727C164.572 174.727 164.572 179.718 164.948 181.333C165.324 182.948 166.248 188.062 162.411 188.81C158.575 189.558 157.178 186.28 157.876 183.174C158.309 181.423 158.572 179.635 158.661 177.833C158.747 176.698 158.311 172.542 159.558 172.272L159.902 174.07Z" fill="#E8A842"/>
<path id="Vector_94" d="M163.415 180.25C163.366 180.249 163.317 180.234 163.276 180.207C162.301 179.739 161.183 179.671 160.159 180.019C160.123 180.033 160.085 180.039 160.046 180.038C160.008 180.036 159.97 180.028 159.935 180.012C159.9 179.996 159.869 179.973 159.842 179.944C159.816 179.916 159.796 179.883 159.783 179.847C159.769 179.81 159.763 179.771 159.764 179.732C159.765 179.693 159.774 179.655 159.79 179.62C159.806 179.584 159.829 179.552 159.857 179.526C159.885 179.499 159.919 179.478 159.955 179.464C160.542 179.262 161.164 179.178 161.784 179.218C162.403 179.258 163.009 179.42 163.566 179.696C163.633 179.735 163.683 179.8 163.703 179.875C163.723 179.951 163.712 180.032 163.673 180.1C163.648 180.146 163.611 180.184 163.565 180.211C163.52 180.237 163.468 180.251 163.415 180.25Z" fill="#FAFAFA"/>
<path id="Vector_95" d="M163.621 178.016C163.571 178.014 163.522 178.001 163.476 177.979C162.505 177.507 161.387 177.438 160.365 177.785C160.329 177.805 160.288 177.817 160.247 177.82C160.206 177.823 160.164 177.817 160.125 177.803C160.086 177.788 160.051 177.766 160.022 177.737C159.992 177.707 159.969 177.672 159.954 177.633C159.94 177.594 159.933 177.553 159.936 177.511C159.939 177.47 159.95 177.429 159.97 177.393C159.989 177.356 160.017 177.324 160.05 177.299C160.082 177.274 160.12 177.256 160.161 177.247C160.747 177.042 161.368 176.956 161.987 176.996C162.606 177.036 163.212 177.2 163.766 177.478C163.8 177.497 163.83 177.522 163.854 177.552C163.878 177.582 163.896 177.617 163.906 177.654C163.917 177.691 163.92 177.729 163.915 177.768C163.91 177.806 163.898 177.843 163.879 177.876C163.852 177.92 163.814 177.956 163.769 177.981C163.724 178.005 163.673 178.018 163.621 178.016Z" fill="#FAFAFA"/>
<path id="Vector_96" d="M163.823 175.814C163.773 175.812 163.724 175.799 163.678 175.777C162.704 175.309 161.586 175.24 160.562 175.583C160.525 175.604 160.485 175.616 160.443 175.62C160.401 175.623 160.359 175.617 160.319 175.603C160.28 175.588 160.244 175.565 160.214 175.536C160.184 175.506 160.162 175.47 160.147 175.431C160.132 175.391 160.127 175.349 160.13 175.307C160.133 175.265 160.145 175.224 160.166 175.188C160.187 175.151 160.215 175.119 160.249 175.095C160.283 175.07 160.322 175.053 160.363 175.045C160.949 174.839 161.57 174.754 162.189 174.794C162.809 174.833 163.414 174.998 163.969 175.276C164.002 175.295 164.032 175.32 164.056 175.35C164.08 175.38 164.098 175.415 164.108 175.452C164.119 175.489 164.122 175.528 164.117 175.566C164.113 175.604 164.1 175.641 164.081 175.675C164.054 175.718 164.016 175.754 163.971 175.779C163.926 175.803 163.875 175.816 163.823 175.814Z" fill="#FAFAFA"/>
<path id="Vector_97" d="M136.184 174.872C135.313 175.349 134.478 175.889 133.686 176.487C132.434 177.451 132.229 180.455 135.781 180.95C137.277 181.197 138.812 180.969 140.171 180.299C140.005 179.135 139.553 178.031 138.858 177.084C138.162 176.137 137.244 175.378 136.184 174.872Z" fill="white"/>
<path id="Vector_98" d="M146.523 175.728C144.841 176.152 143.322 177.066 142.16 178.355C141.353 179.208 140.349 179.849 139.237 180.22C138.124 180.591 136.937 180.681 135.782 180.482C133.793 180.207 132.982 179.141 132.874 178.086C132.772 179.271 133.503 180.622 135.782 180.939C136.937 181.138 138.124 181.048 139.237 180.677C140.349 180.306 141.353 179.666 142.16 178.813C143.322 177.524 144.841 176.609 146.523 176.186C148.382 175.707 148.586 174.738 148.554 173.333C148.517 174.49 148.173 175.325 146.523 175.728Z" fill="#37474F"/>
<path id="Vector_99" d="M165.291 183.297C164.321 182.307 163.001 181.739 161.617 181.716C160.232 181.693 158.894 182.216 157.892 183.173C157.193 186.28 158.59 189.558 162.427 188.81C165.21 188.244 165.495 185.434 165.291 183.297Z" fill="#F5F5F5"/>
<path id="Vector_100" d="M162.45 188.202C159.365 188.805 157.861 186.802 157.748 184.379C157.619 187.071 159.107 189.461 162.45 188.81C164.927 188.325 165.421 186.032 165.362 184.03C165.282 185.865 164.653 187.766 162.45 188.202Z" fill="#455A64"/>
</g>
</g>
</svg>
