<svg width="22" height="22" viewBox="0 0 22 22" fill="none" xmlns="http://www.w3.org/2000/svg">
<path d="M15.8612 9.51983L6.62039 4.23938M12.5503 2.34766L19.1509 6.11922C19.5552 6.35016 19.8912 6.6839 20.1249 7.08661C20.3586 7.48931 20.4817 7.94666 20.4816 8.41226V14.5877C20.4817 15.0533 20.3586 15.5107 20.1249 15.9134C19.8912 16.3161 19.5552 16.6498 19.1509 16.8808L12.5503 20.6523C12.1515 20.8802 11.7001 21 11.2408 21C10.7815 21 10.3301 20.8802 9.93124 20.6523L3.33067 16.8808C2.92638 16.6498 2.59035 16.3161 2.35666 15.9134C2.12296 15.5107 1.99992 15.0533 2 14.5877V8.41226C1.99992 7.94666 2.12296 7.48931 2.35666 7.08661C2.59035 6.6839 2.92638 6.35016 3.33067 6.11922L9.93124 2.34766C10.3301 2.11983 10.7815 2 11.2408 2C11.7001 2 12.1515 2.11983 12.5503 2.34766Z" stroke="#A6AEBF" stroke-width="1.1" stroke-linecap="round" stroke-linejoin="round"/>
<path d="M2.6604 7.53955L9.98967 11.4867C10.3743 11.6937 10.8043 11.8021 11.2411 11.8021C11.678 11.8021 12.108 11.6937 12.4926 11.4867L19.8219 7.53955M11.2411 12.1599V20.7407" stroke="#A6AEBF" stroke-width="1.1" stroke-linecap="round" stroke-linejoin="round"/>
</svg>
