<svg width="16" height="17" viewBox="0 0 16 17" fill="none" xmlns="http://www.w3.org/2000/svg">
<g id="u:camera">
<path id="Vector" d="M12.6667 4.43654H11.8134L11.6 3.76987C11.4617 3.37869 11.2052 3.04021 10.866 2.80131C10.5267 2.56242 10.1216 2.43494 9.70671 2.43654H6.29337C5.87441 2.43732 5.46626 2.56966 5.12655 2.81488C4.78684 3.06009 4.53271 3.4058 4.40004 3.80321L4.18671 4.46987H3.33337C2.80294 4.46987 2.29423 4.68059 1.91916 5.05566C1.54409 5.43073 1.33337 5.93944 1.33337 6.46987V11.8032C1.33337 12.3336 1.54409 12.8423 1.91916 13.2174C2.29423 13.5925 2.80294 13.8032 3.33337 13.8032H12.6667C13.1971 13.8032 13.7058 13.5925 14.0809 13.2174C14.456 12.8423 14.6667 12.3336 14.6667 11.8032V6.46987C14.6711 6.20444 14.6227 5.94078 14.5241 5.69426C14.4256 5.44775 14.279 5.22332 14.0928 5.03406C13.9067 4.8448 13.6847 4.69449 13.4399 4.5919C13.195 4.48932 12.9322 4.4365 12.6667 4.43654ZM13.3334 11.7699C13.3334 11.9467 13.2631 12.1163 13.1381 12.2413C13.0131 12.3663 12.8435 12.4365 12.6667 12.4365H3.33337C3.15656 12.4365 2.98699 12.3663 2.86197 12.2413C2.73695 12.1163 2.66671 11.9467 2.66671 11.7699V6.43654C2.66671 6.25973 2.73695 6.09016 2.86197 5.96513C2.98699 5.84011 3.15656 5.76987 3.33337 5.76987H4.66671C4.81208 5.77746 4.95595 5.73725 5.07633 5.6554C5.19671 5.57354 5.28699 5.45453 5.33337 5.31654L5.69337 4.2232C5.7381 4.09079 5.82331 3.97578 5.93695 3.89443C6.0506 3.81308 6.18694 3.76951 6.32671 3.76987H9.74004C9.8798 3.76951 10.0161 3.81308 10.1298 3.89443C10.2434 3.97578 10.3287 4.09079 10.3734 4.2232L10.7334 5.31654C10.7762 5.4437 10.8563 5.555 10.9634 5.63588C11.0704 5.71676 11.1994 5.76346 11.3334 5.76987H12.6667C12.8435 5.76987 13.0131 5.84011 13.1381 5.96513C13.2631 6.09016 13.3334 6.25973 13.3334 6.43654V11.7699ZM8.00004 5.76987C7.47262 5.76987 6.95705 5.92627 6.51852 6.21929C6.07999 6.5123 5.7382 6.92878 5.53636 7.41605C5.33453 7.90332 5.28172 8.4395 5.38461 8.95678C5.48751 9.47406 5.74148 9.94922 6.11442 10.3222C6.48736 10.6951 6.96252 10.9491 7.4798 11.052C7.99708 11.1549 8.53326 11.102 9.02053 10.9002C9.5078 10.6984 9.92428 10.3566 10.2173 9.91806C10.5103 9.47953 10.6667 8.96395 10.6667 8.43654C10.6667 7.72929 10.3858 7.05102 9.88566 6.55092C9.38556 6.05082 8.70728 5.76987 8.00004 5.76987ZM8.00004 9.76987C7.73633 9.76987 7.47855 9.69167 7.25928 9.54516C7.04002 9.39865 6.86912 9.19042 6.7682 8.94678C6.66728 8.70315 6.64088 8.43506 6.69233 8.17642C6.74377 7.91778 6.87076 7.6802 7.05723 7.49373C7.2437 7.30726 7.48128 7.18027 7.73992 7.12882C7.99856 7.07738 8.26665 7.10378 8.51029 7.2047C8.75392 7.30562 8.96216 7.47651 9.10867 7.69578C9.25518 7.91504 9.33337 8.17283 9.33337 8.43654C9.33337 8.79016 9.1929 9.1293 8.94285 9.37935C8.6928 9.6294 8.35366 9.76987 8.00004 9.76987Z" fill="#2473F2"/>
</g>
</svg>
