<svg width="16" height="17" viewBox="0 0 16 17" fill="none" xmlns="http://www.w3.org/2000/svg">
<path d="M12.6667 5.16975H11.8133L11.6 4.50309C11.4617 4.11191 11.2052 3.77342 10.8659 3.53453C10.5267 3.29563 10.1216 3.16815 9.70668 3.16975H6.29334C5.87438 3.17054 5.46623 3.30288 5.12652 3.54809C4.78681 3.79331 4.53268 4.13901 4.40001 4.53642L4.18668 5.20309H3.33334C2.80291 5.20309 2.2942 5.4138 1.91913 5.78887C1.54406 6.16395 1.33334 6.67265 1.33334 7.20309V12.5364C1.33334 13.0669 1.54406 13.5756 1.91913 13.9506C2.2942 14.3257 2.80291 14.5364 3.33334 14.5364H12.6667C13.1971 14.5364 13.7058 14.3257 14.0809 13.9506C14.456 13.5756 14.6667 13.0669 14.6667 12.5364V7.20309C14.6711 6.93765 14.6226 6.67399 14.5241 6.42748C14.4256 6.18097 14.279 5.95654 14.0928 5.76728C13.9066 5.57801 13.6847 5.42771 13.4398 5.32512C13.195 5.22253 12.9321 5.16972 12.6667 5.16975ZM13.3333 12.5031C13.3333 12.6799 13.2631 12.8495 13.1381 12.9745C13.0131 13.0995 12.8435 13.1698 12.6667 13.1698H3.33334C3.15653 13.1698 2.98696 13.0995 2.86194 12.9745C2.73691 12.8495 2.66668 12.6799 2.66668 12.5031V7.16975C2.66668 6.99294 2.73691 6.82337 2.86194 6.69835C2.98696 6.57332 3.15653 6.50309 3.33334 6.50309H4.66668C4.81205 6.51067 4.95592 6.47047 5.0763 6.38861C5.19668 6.30675 5.28696 6.18774 5.33334 6.04975L5.69334 4.95642C5.73807 4.82401 5.82328 4.709 5.93692 4.62765C6.05057 4.5463 6.18691 4.50273 6.32668 4.50309H9.74001C9.87977 4.50273 10.0161 4.5463 10.1298 4.62765C10.2434 4.709 10.3286 4.82401 10.3733 4.95642L10.7333 6.04975C10.7761 6.17692 10.8563 6.28821 10.9633 6.36909C11.0704 6.44997 11.1993 6.49667 11.3333 6.50309H12.6667C12.8435 6.50309 13.0131 6.57332 13.1381 6.69835C13.2631 6.82337 13.3333 6.99294 13.3333 7.16975V12.5031ZM8.00001 6.50309C7.47259 6.50309 6.95702 6.65948 6.51849 6.9525C6.07996 7.24552 5.73816 7.66199 5.53633 8.14926C5.3345 8.63653 5.28169 9.17271 5.38458 9.68999C5.48748 10.2073 5.74145 10.6824 6.11439 11.0554C6.48733 11.4283 6.96249 11.6823 7.47977 11.7852C7.99705 11.8881 8.53323 11.8353 9.0205 11.6334C9.50777 11.4316 9.92425 11.0898 10.2173 10.6513C10.5103 10.2127 10.6667 9.69717 10.6667 9.16975C10.6667 8.46251 10.3857 7.78423 9.88563 7.28414C9.38553 6.78404 8.70725 6.50309 8.00001 6.50309ZM8.00001 10.5031C7.7363 10.5031 7.47852 10.4249 7.25925 10.2784C7.03998 10.1319 6.86909 9.92363 6.76817 9.68C6.66725 9.43636 6.64085 9.16827 6.6923 8.90963C6.74374 8.65099 6.87073 8.41341 7.0572 8.22694C7.24367 8.04047 7.48125 7.91349 7.73989 7.86204C7.99853 7.81059 8.26662 7.837 8.51025 7.93791C8.75389 8.03883 8.96213 8.20973 9.10864 8.42899C9.25515 8.64826 9.33334 8.90604 9.33334 9.16975C9.33334 9.52338 9.19287 9.86251 8.94282 10.1126C8.69277 10.3626 8.35363 10.5031 8.00001 10.5031Z" fill="#E8A842"/>
</svg>
