<svg width="101" height="100" viewBox="0 0 101 100" fill="none" xmlns="http://www.w3.org/2000/svg">
<g id="credit 1" clip-path="url(#clip0_1049_4494)">
<path id="Vector" d="M87.2797 36.4485L40.6595 83.0695C38.5522 85.176 35.1365 85.176 33.0301 83.0695L5.59548 55.635C3.48901 53.5277 3.48901 50.112 5.59548 48.0056L52.2157 1.38455C54.323 -0.721932 57.7387 -0.721932 59.8451 1.38455L87.2797 28.8191C89.387 30.9256 89.387 34.3421 87.2797 36.4485Z" fill="#08293B"/>
<path id="Vector_2" d="M87.2753 28.8191L83.852 25.395C85.728 27.2711 85.5404 30.4999 83.4339 32.6063L36.8129 79.2273C34.7064 81.3346 31.4776 81.5215 29.6016 79.6454L33.0256 83.0695C35.1321 85.176 38.5478 85.176 40.655 83.0695L87.2753 36.4485C89.3825 34.342 89.3825 30.9256 87.2753 28.8191Z" fill="#233B57"/>
<path id="Vector_3" d="M14.5571 53.7149C14.1818 53.7149 13.8072 53.5714 13.5211 53.2853C12.9489 52.7131 12.9489 51.7862 13.5211 51.2139L36.3566 28.3784C36.9289 27.8062 37.8566 27.8062 38.428 28.3784C39.0002 28.9506 39.0002 29.8783 38.428 30.4498L15.5925 53.2861C15.3064 53.5714 14.9318 53.7149 14.5571 53.7149Z" fill="#C1C7DD"/>
<path id="Vector_4" d="M21.8182 60.9712C21.4428 60.9712 21.0682 60.8278 20.7821 60.5417C20.2099 59.9695 20.2099 59.0425 20.7821 58.4703L43.6177 35.6347C44.1899 35.0625 45.1176 35.0625 45.6891 35.6347C46.2613 36.2069 46.2613 37.1347 45.6891 37.7061L22.8535 60.5417C22.5674 60.8278 22.1928 60.9712 21.8182 60.9712Z" fill="#C1C7DD"/>
<path id="Vector_5" d="M51.4522 12.011L46.8837 16.5788C45.0878 18.3747 45.0878 21.2861 46.8837 23.0821C48.6797 24.878 51.5918 24.878 53.3878 23.0821L57.9555 18.5143C59.7515 16.7184 59.7515 13.807 57.9555 12.011C56.1595 10.2151 53.2474 10.2151 51.4522 12.011Z" fill="#FFCD34"/>
<path id="Vector_6" d="M91.6795 50.2168H25.7477C22.7684 50.2168 20.353 52.6323 20.353 55.6116V94.4101C20.353 97.3894 22.7684 99.8049 25.7477 99.8049H91.6795C94.6596 99.8049 97.0743 97.3894 97.0743 94.4101V55.6116C97.075 52.6323 94.6596 50.2168 91.6795 50.2168Z" fill="#0087FF"/>
<path id="Vector_7" d="M91.6797 50.2168H86.8511C89.8304 50.2168 92.2458 52.6323 92.2458 55.6116V94.4101C92.2458 97.3894 89.8304 99.8049 86.8511 99.8049H91.6797C94.6598 99.8049 97.0745 97.3894 97.0745 94.4101V55.6116C97.0752 52.6323 94.6598 50.2168 91.6797 50.2168Z" fill="#0072D8"/>
<path id="Vector_8" d="M20.353 62.4043H97.075V71.7251H20.353V62.4043Z" fill="#575B7A"/>
<path id="Vector_9" d="M92.2509 62.4043H97.0796V71.7251H92.2509V62.4043Z" fill="#252D4C"/>
<path id="Vector_10" d="M78.2229 86.6208V92.3696C78.2229 92.8144 78.583 93.1745 79.0278 93.1745H88.1716C88.6164 93.1745 88.9766 92.8144 88.9766 92.3696V86.6208C88.9766 86.176 88.6164 85.8159 88.1716 85.8159H79.0278C78.583 85.8159 78.2229 86.176 78.2229 86.6208Z" fill="#E9E9EA"/>
<path id="Vector_11" d="M50.6494 86.6208V92.3696C50.6494 92.8144 51.0102 93.1745 51.4543 93.1745H70.7948C71.2396 93.1745 71.5997 92.8144 71.5997 92.3696V86.6208C71.5997 86.176 71.2396 85.8159 70.7948 85.8159H51.4543C51.0102 85.8159 50.6494 86.176 50.6494 86.6208Z" fill="#E9E9EA"/>
<path id="Vector_12" d="M42.7696 94.6377H33.1344C32.3249 94.6377 31.6696 93.9816 31.6696 93.1729C31.6696 92.3634 32.3249 91.708 33.1344 91.708H42.7696C43.5791 91.708 44.2344 92.3634 44.2344 93.1729C44.2344 93.9816 43.5791 94.6377 42.7696 94.6377Z" fill="#E9E9EA"/>
</g>
<defs>
<clipPath id="clip0_1049_4494">
<rect width="100" height="100" fill="white" transform="translate(0.5)"/>
</clipPath>
</defs>
</svg>
