<svg width="19" height="21" viewBox="0 0 19 21" fill="none" xmlns="http://www.w3.org/2000/svg">
<path d="M9.50271 0.842463C9.66273 0.620587 9.86832 0.432984 10.1066 0.291361C10.345 0.149737 10.6109 0.0571324 10.8879 0.0193239C11.1648 -0.0184847 11.4469 -0.000685622 11.7164 0.0716107C11.986 0.143907 12.2372 0.269149 12.4545 0.439522L16.8924 3.92424C17.2889 4.23543 17.55 4.67938 17.6239 5.16805C17.6978 5.65671 17.5791 6.15439 17.2914 6.56238H15.6356L16.1649 5.82869C16.2634 5.69279 16.3051 5.52583 16.2814 5.36144C16.2577 5.19705 16.1705 5.04744 16.0374 4.94275L13.7519 3.14986L11.3145 6.56238H9.66286L12.6947 2.32035L11.5981 1.45934C11.5257 1.40253 11.442 1.36075 11.3522 1.33662C11.2624 1.31249 11.1684 1.30652 11.076 1.31908C10.9837 1.33164 10.8951 1.36246 10.8156 1.40963C10.7361 1.4568 10.6676 1.51929 10.6142 1.59322L7.03 6.56107H5.37429L9.50271 0.842463ZM14.25 14.4374C14.07 14.4374 13.8974 14.5066 13.7702 14.6297C13.6429 14.7527 13.5714 14.9197 13.5714 15.0937C13.5714 15.2678 13.6429 15.4347 13.7702 15.5577C13.8974 15.6808 14.07 15.75 14.25 15.75H15.6071C15.7871 15.75 15.9597 15.6808 16.087 15.5577C16.2142 15.4347 16.2857 15.2678 16.2857 15.0937C16.2857 14.9197 16.2142 14.7527 16.087 14.6297C15.9597 14.5066 15.7871 14.4374 15.6071 14.4374H14.25ZM2.03571 5.24987H4.97936L4.02936 6.56238H2.03571C1.85575 6.56238 1.68315 6.63152 1.55589 6.7546C1.42864 6.87767 1.35714 7.04459 1.35714 7.21864C1.35714 7.39269 1.42864 7.55961 1.55589 7.68268C1.68315 7.80575 1.85575 7.87489 2.03571 7.87489H16.2857C17.0056 7.87489 17.696 8.15146 18.205 8.64375C18.714 9.13603 19 9.80372 19 10.4999V18.375C19 19.0712 18.714 19.7389 18.205 20.2311C17.696 20.7234 17.0056 21 16.2857 21H3.39286C2.49302 21 1.63003 20.6543 0.993745 20.0389C0.357461 19.4236 0 18.589 0 17.7187V7.21864C0 6.69649 0.214477 6.19573 0.596247 5.82651C0.978017 5.4573 1.49581 5.24987 2.03571 5.24987ZM1.35714 17.7187C1.35714 18.2409 1.57162 18.7416 1.95339 19.1109C2.33516 19.4801 2.85295 19.6875 3.39286 19.6875H16.2857C16.6457 19.6875 16.9908 19.5492 17.2454 19.3031C17.4999 19.0569 17.6429 18.7231 17.6429 18.375V10.4999C17.6429 10.1518 17.4999 9.81797 17.2454 9.57183C16.9908 9.32569 16.6457 9.1874 16.2857 9.1874H2.03571C1.79821 9.1874 1.56886 9.14803 1.35714 9.07584V17.7187Z" fill="#A6AEBF"/>
</svg>
