<svg width="25" height="24" viewBox="0 0 25 24" fill="none" xmlns="http://www.w3.org/2000/svg">
<path d="M5.77273 6.41236V5.45455C5.77273 4.80356 6.03133 4.17924 6.49165 3.71892C6.95196 3.2586 7.57629 3 8.22727 3H16.4091C17.0601 3 17.6844 3.2586 18.1447 3.71892C18.605 4.17924 18.8636 4.80356 18.8636 5.45455V6.41236M5.77273 6.41236C6.02909 6.32182 6.304 6.27273 6.59091 6.27273H18.0455C18.3324 6.27273 18.6073 6.32182 18.8636 6.41236M5.77273 6.41236C5.29405 6.5816 4.87963 6.89511 4.58657 7.3097C4.2935 7.72429 4.13621 8.21956 4.13636 8.72727V9.68509M18.8636 6.41236C19.3423 6.5816 19.7567 6.89511 20.0498 7.3097C20.3429 7.72429 20.5002 8.21956 20.5 8.72727V9.68509M4.13636 9.68509C4.39273 9.59455 4.66764 9.54545 4.95455 9.54545H19.6818C19.9605 9.54513 20.2372 9.59235 20.5 9.68509M4.13636 9.68509C3.18291 10.0222 2.5 10.9309 2.5 12V18.5455C2.5 19.1964 2.7586 19.8208 3.21892 20.2811C3.67924 20.7414 4.30356 21 4.95455 21H19.6818C20.3328 21 20.9571 20.7414 21.4174 20.2811C21.8778 19.8208 22.1364 19.1964 22.1364 18.5455V12C22.1365 11.4923 21.9792 10.997 21.6862 10.5824C21.3931 10.1678 20.9787 9.85433 20.5 9.68509" stroke="#A6AEBF" stroke-width="1.5" stroke-linecap="round" stroke-linejoin="round"/>
</svg>
