<svg width="20" height="20" viewBox="0 0 20 20" fill="none" xmlns="http://www.w3.org/2000/svg">
<g id="Iconly/Light/Category">
<g id="Category">
<path id="Stroke 1" fill-rule="evenodd" clip-rule="evenodd" d="M13.5701 1.66675H16.2922C17.4185 1.66675 18.3321 2.58833 18.3321 3.72523V6.47017C18.3321 7.60621 17.4185 8.52865 16.2922 8.52865H13.5701C12.4429 8.52865 11.5293 7.60621 11.5293 6.47017V3.72523C11.5293 2.58833 12.4429 1.66675 13.5701 1.66675Z" fill="#2473F2" stroke="#2473F2" stroke-width="1.5" stroke-linecap="round" stroke-linejoin="round"/>
<path id="Stroke 3" fill-rule="evenodd" clip-rule="evenodd" d="M3.70678 1.66675H6.42809C7.55521 1.66675 8.46886 2.58833 8.46886 3.72523V6.47017C8.46886 7.60621 7.55521 8.52865 6.42809 8.52865H3.70678C2.57966 8.52865 1.66602 7.60621 1.66602 6.47017V3.72523C1.66602 2.58833 2.57966 1.66675 3.70678 1.66675Z" fill="#2473F2" stroke="#2473F2" stroke-width="1.5" stroke-linecap="round" stroke-linejoin="round"/>
<path id="Stroke 5" fill-rule="evenodd" clip-rule="evenodd" d="M3.70678 11.4715H6.42809C7.55521 11.4715 8.46886 12.3931 8.46886 13.5309V16.2749C8.46886 17.4119 7.55521 18.3334 6.42809 18.3334H3.70678C2.57966 18.3334 1.66602 17.4119 1.66602 16.2749V13.5309C1.66602 12.3931 2.57966 11.4715 3.70678 11.4715Z" fill="#2473F2" stroke="#2473F2" stroke-width="1.5" stroke-linecap="round" stroke-linejoin="round"/>
<path id="Stroke 7" fill-rule="evenodd" clip-rule="evenodd" d="M13.5701 11.4714H16.2922C17.4185 11.4714 18.3321 12.393 18.3321 13.5308V16.2749C18.3321 17.4118 17.4185 18.3333 16.2922 18.3333H13.5701C12.4429 18.3333 11.5293 17.4118 11.5293 16.2749V13.5308C11.5293 12.393 12.4429 11.4714 13.5701 11.4714Z" fill="#2473F2" stroke="#2473F2" stroke-width="1.5" stroke-linecap="round" stroke-linejoin="round"/>
</g>
</g>
</svg>
