<svg width="20" height="20" viewBox="0 0 20 20" fill="none" xmlns="http://www.w3.org/2000/svg">
<g id="Huge-icon/interface/outline/clock-circle" clip-path="url(#clip0_1_2274)">
<path id="Vector" d="M9.99984 10H9.24984C9.24984 10.3228 9.45641 10.6094 9.76267 10.7115L9.99984 10ZM10.7498 5.83334C10.7498 5.41913 10.4141 5.08334 9.99984 5.08334C9.58562 5.08334 9.24984 5.41913 9.24984 5.83334H10.7498ZM12.2627 11.5449C12.6556 11.6758 13.0804 11.4635 13.2114 11.0705C13.3423 10.6776 13.13 10.2528 12.737 10.1218L12.2627 11.5449ZM10.7498 10V5.83334H9.24984V10H10.7498ZM9.76267 10.7115L12.2627 11.5449L12.737 10.1218L10.237 9.28849L9.76267 10.7115ZM17.5832 10C17.5832 14.1882 14.188 17.5833 9.99984 17.5833V19.0833C15.0164 19.0833 19.0832 15.0166 19.0832 10H17.5832ZM9.99984 17.5833C5.81168 17.5833 2.4165 14.1882 2.4165 10H0.916504C0.916504 15.0166 4.98325 19.0833 9.99984 19.0833V17.5833ZM2.4165 10C2.4165 5.81185 5.81168 2.41667 9.99984 2.41667V0.916672C4.98325 0.916672 0.916504 4.98342 0.916504 10H2.4165ZM9.99984 2.41667C14.188 2.41667 17.5832 5.81185 17.5832 10H19.0832C19.0832 4.98342 15.0164 0.916672 9.99984 0.916672V2.41667Z" fill="#C6C8CE"/>
</g>
<defs>
<clipPath id="clip0_1_2274">
<rect width="20" height="20" fill="white"/>
</clipPath>
</defs>
</svg>
