<svg width="28" height="28" viewBox="0 0 28 28" fill="none" xmlns="http://www.w3.org/2000/svg">
<g id="delivery-truck 1">
<g id="Vector">
<path d="M25.374 12.5999L21.7865 9.31869C21.699 9.23119 21.6115 9.18744 21.4802 9.18744H17.499C17.324 9.18744 17.1927 9.23119 17.0615 9.27494V6.99994C17.0615 6.25618 16.4927 5.68743 15.749 5.68743H3.49896C2.75521 5.68743 2.18646 6.25618 2.18646 6.99994V13.9999C2.18646 14.3499 2.31771 14.6562 2.53646 14.8749C2.31771 15.0937 2.18646 15.3999 2.18646 15.7499V18.3749C2.18646 19.1187 2.75521 19.6874 3.49896 19.6874H4.81146C4.81146 21.1312 5.99271 22.3124 7.43646 22.3124C8.88021 22.3124 10.0615 21.1312 10.0615 19.6874H15.749C16.099 19.6874 16.4052 19.5562 16.624 19.3374C16.8427 19.5562 17.149 19.6874 17.499 19.6874H17.9365C17.9365 21.1312 19.1177 22.3124 20.5615 22.3124C22.0052 22.3124 23.1865 21.1312 23.1865 19.6874H24.499C25.2427 19.6874 25.8115 19.1187 25.8115 18.3749V13.5624C25.8115 13.2124 25.6365 12.8624 25.374 12.5999ZM3.06146 6.99994C3.06146 6.73743 3.23646 6.56244 3.49896 6.56244H15.749C16.0115 6.56244 16.1865 6.73743 16.1865 6.99994V13.9999C16.1865 14.2624 16.0115 14.4374 15.749 14.4374H3.49896C3.23646 14.4374 3.06146 14.2624 3.06146 13.9999V6.99994ZM7.43646 21.4374C6.47396 21.4374 5.68646 20.6499 5.68646 19.6874C5.68646 18.7249 6.47396 17.9374 7.43646 17.9374C8.39896 17.9374 9.18646 18.7249 9.18646 19.6874C9.18646 20.6499 8.39896 21.4374 7.43646 21.4374ZM15.749 18.8124H9.88646C9.53646 17.8062 8.57396 17.0624 7.43646 17.0624C6.29896 17.0624 5.33646 17.8062 4.98646 18.8124H3.49896C3.23646 18.8124 3.06146 18.6374 3.06146 18.3749V15.7499C3.06146 15.4874 3.23646 15.3124 3.49896 15.3124H15.749C16.0115 15.3124 16.1865 15.4874 16.1865 15.7499V18.3749C16.1865 18.6374 16.0115 18.8124 15.749 18.8124ZM20.5615 21.4374C19.599 21.4374 18.8115 20.6499 18.8115 19.6874C18.8115 18.7249 19.599 17.9374 20.5615 17.9374C21.524 17.9374 22.3115 18.7249 22.3115 19.6874C22.3115 20.6499 21.524 21.4374 20.5615 21.4374ZM24.9365 18.3749C24.9365 18.6374 24.7615 18.8124 24.499 18.8124H23.099C23.0552 18.8124 23.0552 18.8124 23.0115 18.8124C22.6615 17.8062 21.699 17.0624 20.5177 17.0624C19.3802 17.0624 18.4177 17.8062 18.0677 18.8124H17.499C17.2365 18.8124 17.0615 18.6374 17.0615 18.3749V10.4999C17.0615 10.2374 17.2365 10.0624 17.499 10.0624H21.3052L24.8052 13.2562C24.8927 13.3437 24.9365 13.4749 24.9365 13.5624V18.3749Z" fill="#757F96"/>
<path fill-rule="evenodd" clip-rule="evenodd" d="M25.539 12.4349C25.8342 12.7302 26.0448 13.1365 26.0448 13.5624V18.3749C26.0448 19.2476 25.3716 19.9208 24.499 19.9208H23.4103C23.2907 21.3853 22.0555 22.5458 20.5615 22.5458C19.0674 22.5458 17.8323 21.3853 17.7126 19.9208H17.499C17.1687 19.9208 16.8668 19.8205 16.624 19.6435C16.3811 19.8205 16.0792 19.9208 15.749 19.9208H10.2853C10.1657 21.3853 8.93054 22.5458 7.43646 22.5458C5.94238 22.5458 4.70726 21.3853 4.58762 19.9208H3.49896C2.62634 19.9208 1.95312 19.2476 1.95312 18.3749V15.7499C1.95312 15.4197 2.05339 15.1178 2.23036 14.8749C2.05339 14.6321 1.95312 14.3302 1.95312 13.9999V6.99994C1.95312 6.12732 2.62634 5.4541 3.49896 5.4541H15.749C16.6216 5.4541 17.2948 6.12732 17.2948 6.99994V8.9709C17.3572 8.9606 17.425 8.9541 17.499 8.9541H21.4802C21.5731 8.9541 21.6609 8.96985 21.7445 9.00703C21.8252 9.04291 21.8909 9.09379 21.9475 9.14977L25.539 12.4349ZM21.7865 9.31869L25.374 12.5999C25.6365 12.8624 25.8115 13.2124 25.8115 13.5624V18.3749C25.8115 19.1187 25.2427 19.6874 24.499 19.6874H23.1865C23.1865 21.1312 22.0052 22.3124 20.5615 22.3124C19.1177 22.3124 17.9365 21.1312 17.9365 19.6874H17.499C17.149 19.6874 16.8427 19.5562 16.624 19.3374C16.4052 19.5562 16.099 19.6874 15.749 19.6874H10.0615C10.0615 21.1312 8.88021 22.3124 7.43646 22.3124C5.99271 22.3124 4.81146 21.1312 4.81146 19.6874H3.49896C2.75521 19.6874 2.18646 19.1187 2.18646 18.3749V15.7499C2.18646 15.3999 2.31771 15.0937 2.53646 14.8749C2.31771 14.6562 2.18646 14.3499 2.18646 13.9999V6.99994C2.18646 6.25618 2.75521 5.68743 3.49896 5.68743H15.749C16.4927 5.68743 17.0615 6.25618 17.0615 6.99994V9.27494C17.1365 9.24992 17.2116 9.2249 17.2948 9.20807C17.3571 9.19546 17.424 9.18744 17.499 9.18744H21.4802C21.6115 9.18744 21.699 9.23119 21.7865 9.31869ZM3.34676 6.84774C3.31985 6.87465 3.29479 6.92171 3.29479 6.99994V13.9999C3.29479 14.0782 3.31985 14.1252 3.34676 14.1521C3.37368 14.179 3.42073 14.2041 3.49896 14.2041H15.749C15.8272 14.2041 15.8742 14.179 15.9012 14.1521C15.9281 14.1252 15.9531 14.0782 15.9531 13.9999V6.99994C15.9531 6.92171 15.9281 6.87465 15.9012 6.84774C15.8742 6.82083 15.8272 6.79577 15.749 6.79577H3.49896C3.42073 6.79577 3.37368 6.82083 3.34676 6.84774ZM5.91979 19.6874C5.91979 20.5211 6.60282 21.2041 7.43646 21.2041C8.27009 21.2041 8.95313 20.5211 8.95313 19.6874C8.95313 18.8538 8.27009 18.1708 7.43646 18.1708C6.60282 18.1708 5.91979 18.8538 5.91979 19.6874ZM10.047 18.5791H15.749C15.8272 18.5791 15.8742 18.554 15.9012 18.5271C15.9281 18.5002 15.9531 18.4532 15.9531 18.3749V15.7499C15.9531 15.6717 15.9281 15.6247 15.9012 15.5977C15.8742 15.5708 15.8272 15.5458 15.749 15.5458H3.49896C3.42073 15.5458 3.37368 15.5708 3.34676 15.5977C3.31985 15.6247 3.29479 15.6717 3.29479 15.7499V18.3749C3.29479 18.4532 3.31985 18.5002 3.34676 18.5271C3.37368 18.554 3.42073 18.5791 3.49896 18.5791H4.8259C5.24872 17.564 6.25469 16.8291 7.43646 16.8291C8.61823 16.8291 9.6242 17.564 10.047 18.5791ZM9.88646 18.8124H15.749C16.0115 18.8124 16.1865 18.6374 16.1865 18.3749V15.7499C16.1865 15.4874 16.0115 15.3124 15.749 15.3124H3.49896C3.23646 15.3124 3.06146 15.4874 3.06146 15.7499V18.3749C3.06146 18.6374 3.23646 18.8124 3.49896 18.8124H4.98646C5.33646 17.8062 6.29896 17.0624 7.43646 17.0624C8.57396 17.0624 9.53646 17.8062 9.88646 18.8124ZM19.0448 19.6874C19.0448 20.5211 19.7278 21.2041 20.5615 21.2041C21.3951 21.2041 22.0781 20.5211 22.0781 19.6874C22.0781 18.8538 21.3951 18.1708 20.5615 18.1708C19.7278 18.1708 19.0448 18.8538 19.0448 19.6874ZM24.6512 18.5271C24.6781 18.5002 24.7031 18.4532 24.7031 18.3749V13.5624C24.7031 13.5536 24.7 13.5284 24.687 13.496C24.6751 13.4663 24.6593 13.4413 24.643 13.4241L21.2148 10.2958H17.499C17.4207 10.2958 17.3737 10.3208 17.3468 10.3477C17.3198 10.3747 17.2948 10.4217 17.2948 10.4999V18.3749C17.2948 18.4532 17.3198 18.5002 17.3468 18.5271C17.3737 18.554 17.4207 18.5791 17.499 18.5791H17.9071C18.33 17.564 19.3359 16.8291 20.5177 16.8291C21.7391 16.8291 22.7484 17.5621 23.172 18.5791H24.499C24.5772 18.5791 24.6242 18.554 24.6512 18.5271ZM23.0115 18.8124C22.6615 17.8062 21.699 17.0624 20.5177 17.0624C19.3802 17.0624 18.4177 17.8062 18.0677 18.8124H17.499C17.2365 18.8124 17.0615 18.6374 17.0615 18.3749V10.4999C17.0615 10.2374 17.2365 10.0624 17.499 10.0624H21.3052L24.8052 13.2562C24.8927 13.3437 24.9365 13.4749 24.9365 13.5624V18.3749C24.9365 18.6374 24.7615 18.8124 24.499 18.8124H23.0115ZM3.49896 6.56244C3.23646 6.56244 3.06146 6.73743 3.06146 6.99994V13.9999C3.06146 14.2624 3.23646 14.4374 3.49896 14.4374H15.749C16.0115 14.4374 16.1865 14.2624 16.1865 13.9999V6.99994C16.1865 6.73743 16.0115 6.56244 15.749 6.56244H3.49896ZM5.68646 19.6874C5.68646 20.6499 6.47396 21.4374 7.43646 21.4374C8.39896 21.4374 9.18646 20.6499 9.18646 19.6874C9.18646 18.7249 8.39896 17.9374 7.43646 17.9374C6.47396 17.9374 5.68646 18.7249 5.68646 19.6874ZM18.8115 19.6874C18.8115 20.6499 19.599 21.4374 20.5615 21.4374C21.524 21.4374 22.3115 20.6499 22.3115 19.6874C22.3115 18.7249 21.524 17.9374 20.5615 17.9374C19.599 17.9374 18.8115 18.7249 18.8115 19.6874Z" fill="#757F96"/>
</g>
</g>
</svg>
