<svg width="18" height="18" viewBox="0 0 18 18" fill="none" xmlns="http://www.w3.org/2000/svg">
<g id="Frame">
<path id="Vector" d="M9 11.25C9.59674 11.25 10.169 11.0129 10.591 10.591C11.0129 10.169 11.25 9.59674 11.25 9C11.25 8.40326 11.0129 7.83097 10.591 7.40901C10.169 6.98705 9.59674 6.75 9 6.75C8.40326 6.75 7.83097 6.98705 7.40901 7.40901C6.98705 7.83097 6.75 8.40326 6.75 9C6.75 9.59674 6.98705 10.169 7.40901 10.591C7.83097 11.0129 8.40326 11.25 9 11.25Z" fill="#A6AEBF"/>
<path id="Vector_2" fill-rule="evenodd" clip-rule="evenodd" d="M0.992246 8.58525C2.10825 5.232 5.271 2.8125 9.00075 2.8125C12.7282 2.8125 15.8895 5.22975 17.007 8.58C17.097 8.8515 17.097 9.144 17.007 9.41475C15.8917 12.768 12.7282 15.1875 8.99924 15.1875C5.27175 15.1875 2.10975 12.7703 0.992996 9.42C0.902807 9.14906 0.902807 8.85619 0.992996 8.58525H0.992246ZM12.9375 9C12.9375 10.0443 12.5227 11.0458 11.7842 11.7842C11.0458 12.5227 10.0443 12.9375 9 12.9375C7.95571 12.9375 6.95419 12.5227 6.21576 11.7842C5.47734 11.0458 5.0625 10.0443 5.0625 9C5.0625 7.95571 5.47734 6.95419 6.21576 6.21577C6.95419 5.47734 7.95571 5.0625 9 5.0625C10.0443 5.0625 11.0458 5.47734 11.7842 6.21577C12.5227 6.95419 12.9375 7.95571 12.9375 9Z" fill="#A6AEBF"/>
</g>
</svg>
