<svg width="18" height="18" viewBox="0 0 18 18" fill="none" xmlns="http://www.w3.org/2000/svg">
<g id="Frame">
<path id="Vector" d="M2.6475 1.85251C2.54087 1.75315 2.39983 1.69905 2.25411 1.70163C2.10838 1.7042 1.96934 1.76323 1.86628 1.86629C1.76322 1.96935 1.70419 2.10839 1.70162 2.25411C1.69905 2.39984 1.75314 2.54088 1.8525 2.64751L15.3525 16.1475C15.404 16.2028 15.4661 16.2471 15.5351 16.2778C15.6041 16.3086 15.6786 16.3251 15.7541 16.3265C15.8296 16.3278 15.9047 16.3139 15.9747 16.2856C16.0447 16.2573 16.1084 16.2152 16.1618 16.1618C16.2152 16.1084 16.2573 16.0447 16.2856 15.9747C16.3139 15.9047 16.3278 15.8296 16.3264 15.7541C16.3251 15.6786 16.3086 15.6041 16.2778 15.5351C16.2471 15.4661 16.2028 15.404 16.1475 15.3525L2.6475 1.85251ZM17.007 9.41476C16.6027 10.6279 15.928 11.7332 15.0338 12.6473L12.7095 10.323C12.9603 9.62095 13.0066 8.86213 12.843 8.13479C12.6795 7.40746 12.3128 6.74149 11.7857 6.21435C11.2585 5.6872 10.5926 5.32054 9.86522 5.15699C9.13788 4.99345 8.37906 5.03975 7.677 5.29051L5.81925 3.43276C6.82952 3.02173 7.91007 2.81107 9.00075 2.81251C12.7283 2.81251 15.8895 5.22976 17.007 8.58001C17.097 8.85151 17.097 9.14401 17.007 9.41476Z" fill="#A6AEBF"/>
<path id="Vector_2" d="M11.8125 8.99998C11.8125 9.13498 11.8028 9.26773 11.7847 9.39748L8.60175 6.21523C9.00073 6.15816 9.40732 6.18751 9.79398 6.30129C10.1806 6.41507 10.5383 6.61062 10.8428 6.8747C11.1473 7.13878 11.3914 7.46522 11.5587 7.8319C11.726 8.19858 11.8126 8.59693 11.8125 8.99998ZM9.3975 11.7847L6.21525 8.60173C6.15344 9.03401 6.19315 9.47475 6.33122 9.88903C6.46928 10.3033 6.70192 10.6797 7.0107 10.9885C7.31948 11.2973 7.69592 11.5299 8.1102 11.668C8.52448 11.8061 8.96521 11.8458 9.3975 11.784V11.7847Z" fill="#A6AEBF"/>
<path id="Vector_3" d="M5.0625 9.00005C5.0625 8.5358 5.14275 8.0903 5.2905 7.67705L2.9655 5.35205C2.07158 6.26618 1.39709 7.37152 0.993 8.58455C0.903 8.85605 0.903 9.14855 0.993 9.42005C2.10975 12.7703 5.271 15.1876 8.99925 15.1876C10.1242 15.1876 11.199 14.9671 12.1807 14.5673L10.323 12.7096C9.72874 12.9215 9.09223 12.9876 8.4671 12.9022C7.84196 12.8169 7.24649 12.5825 6.73086 12.2189C6.21522 11.8553 5.79452 11.3731 5.50417 10.8129C5.21383 10.2527 5.06235 9.63099 5.0625 9.00005Z" fill="#A6AEBF"/>
</g>
</svg>
