<svg width="24" height="24" viewBox="0 0 24 24" fill="none" xmlns="http://www.w3.org/2000/svg">
<g id="adjust-horizontal-alt">
<g id="Vector">
<path d="M8.95922 3.19995C7.41108 3.19995 6.11972 4.29932 5.82323 5.75995L3.83922 5.75995C3.48576 5.75995 3.19922 6.04649 3.19922 6.39995C3.19922 6.75341 3.48576 7.03995 3.83922 7.03995H5.82323C6.11972 8.50058 7.41109 9.59995 8.95922 9.59995C10.5074 9.59995 11.7987 8.50058 12.0952 7.03995L21.7592 7.03995C22.1127 7.03995 22.3992 6.75341 22.3992 6.39995C22.3992 6.04649 22.1127 5.75995 21.7592 5.75995L12.0952 5.75995C11.7987 4.29932 10.5074 3.19995 8.95922 3.19995Z" fill="#9AA3B0"/>
<path d="M16.6392 13.4399C15.0911 13.44 13.7997 14.5393 13.5032 15.9999H3.83922C3.48576 15.9999 3.19922 16.2865 3.19922 16.6399C3.19922 16.9934 3.48576 17.2799 3.83922 17.2799H13.5032C13.7997 18.7406 15.0911 19.8399 16.6392 19.8399C18.1873 19.8399 19.4787 18.7406 19.7752 17.2799L21.7592 17.2799C22.1127 17.2799 22.3992 16.9934 22.3992 16.6399C22.3992 16.2865 22.1127 15.9999 21.7592 15.9999L19.7752 15.9999C19.4787 14.5393 18.1873 13.4399 16.6392 13.4399Z" fill="#9AA3B0"/>
</g>
</g>
</svg>
