<svg width="20" height="17" viewBox="0 0 20 17" fill="none" xmlns="http://www.w3.org/2000/svg">
<path d="M5.95922 0.200195C4.41108 0.200195 3.11972 1.29956 2.82323 2.7602L0.839219 2.7602C0.485757 2.7602 0.199219 3.04673 0.199219 3.4002C0.199219 3.75366 0.485757 4.0402 0.83922 4.0402H2.82323C3.11972 5.50083 4.41109 6.60019 5.95922 6.60019C7.50735 6.60019 8.79871 5.50083 9.09521 4.04019L18.7592 4.0402C19.1127 4.0402 19.3992 3.75366 19.3992 3.4002C19.3992 3.04673 19.1127 2.7602 18.7592 2.7602L9.09521 2.7602C8.79871 1.29956 7.50735 0.200195 5.95922 0.200195Z" fill="#333333"/>
<path d="M13.6392 10.4402C12.0911 10.4402 10.7997 11.5396 10.5032 13.0002H0.839219C0.485757 13.0002 0.199219 13.2867 0.199219 13.6402C0.19922 13.9937 0.485757 14.2802 0.839218 14.2802H10.5032C10.7997 15.7408 12.0911 16.8402 13.6392 16.8402C15.1873 16.8402 16.4787 15.7408 16.7752 14.2802L18.7592 14.2802C19.1127 14.2802 19.3992 13.9936 19.3992 13.6402C19.3992 13.2867 19.1127 13.0002 18.7592 13.0002L16.7752 13.0002C16.4787 11.5396 15.1873 10.4402 13.6392 10.4402Z" fill="#333333"/>
</svg>
