<svg width="20" height="20" viewBox="0 0 20 20" fill="none" xmlns="http://www.w3.org/2000/svg">
<g id="Huge-icon/interface/outline/globe" clip-path="url(#clip0_1049_11464)">
<path id="Vector" d="M18.3333 9.99984C18.3333 14.6022 14.6024 18.3332 9.99999 18.3332M18.3333 9.99984C18.3333 5.39746 14.6024 1.6665 9.99999 1.6665M18.3333 9.99984C18.3333 8.61913 14.6024 7.49984 9.99999 7.49984C5.39762 7.49984 1.66666 8.61913 1.66666 9.99984M18.3333 9.99984C18.3333 11.3805 14.6024 12.4998 9.99999 12.4998C5.39762 12.4998 1.66666 11.3805 1.66666 9.99984M9.99999 18.3332C5.39762 18.3332 1.66666 14.6022 1.66666 9.99984M9.99999 18.3332C11.8409 18.3332 13.3333 14.6022 13.3333 9.99984C13.3333 5.39746 11.8409 1.6665 9.99999 1.6665M9.99999 18.3332C8.15904 18.3332 6.66666 14.6022 6.66666 9.99984C6.66666 5.39746 8.15904 1.6665 9.99999 1.6665M1.66666 9.99984C1.66666 5.39746 5.39762 1.6665 9.99999 1.6665" stroke="#8D909B" stroke-width="1.5"/>
</g>
<defs>
<clipPath id="clip0_1049_11464">
<rect width="20" height="20" fill="white"/>
</clipPath>
</defs>
</svg>
