<svg width="18" height="17" viewBox="0 0 18 17" fill="none" xmlns="http://www.w3.org/2000/svg">
<path d="M8.67231 16.1191L8.66585 16.1164L8.64554 16.1056C8.52673 16.0418 8.40887 15.9764 8.292 15.9094C6.8869 15.0953 5.57379 14.139 4.37446 13.0564C2.25046 11.1241 0 8.25666 0 4.72506C0 2.08986 2.27446 6.38561e-05 5.01969 6.38561e-05C5.78285 -0.00358063 6.53703 0.16057 7.22614 0.480309C7.91526 0.800047 8.52157 1.26715 9 1.84686C9.47852 1.26703 10.085 0.799856 10.7743 0.480113C11.4636 0.16037 12.2179 -0.00371615 12.9812 6.38561e-05C15.7255 6.38561e-05 18 2.08986 18 4.72506C18 8.25756 15.7495 11.125 13.6255 13.0555C12.4262 14.1381 11.1131 15.0944 9.708 15.9085C9.59114 15.9758 9.47328 16.0415 9.35446 16.1056L9.33415 16.1164L9.32769 16.12L9.32492 16.1209C9.22483 16.1726 9.11327 16.1996 9 16.1996C8.88673 16.1996 8.77517 16.1726 8.67508 16.1209L8.67231 16.1191Z" fill="#EBEBEB"/>
</svg>
