<svg width="20" height="20" viewBox="0 0 20 20" fill="none" xmlns="http://www.w3.org/2000/svg">
<path d="M10.001 16.875C10.001 16.875 2.18848 12.5 2.18848 7.18751C2.18864 6.24855 2.51399 5.33863 3.10921 4.61244C3.70444 3.88626 4.53281 3.38863 5.45347 3.20418C6.37413 3.01972 7.33026 3.15982 8.1593 3.60066C8.98834 4.04149 9.63912 4.75585 10.001 5.62227L10.001 5.62228C10.3628 4.75585 11.0136 4.04149 11.8426 3.60066C12.6717 3.15983 13.6278 3.01973 14.5485 3.20418C15.4691 3.38863 16.2975 3.88625 16.8927 4.61244C17.488 5.33863 17.8133 6.24855 17.8135 7.18751C17.8135 12.5 10.001 16.875 10.001 16.875Z" stroke="#8D909B" stroke-width="1.5" stroke-linecap="round" stroke-linejoin="round"/>
</svg>
