<svg width="18" height="18" viewBox="0 0 18 18" fill="none" xmlns="http://www.w3.org/2000/svg">
<g id="Frame">
<path id="Vector" fill-rule="evenodd" clip-rule="evenodd" d="M5.625 4.5C5.625 3.60489 5.98058 2.74645 6.61351 2.11351C7.24645 1.48058 8.10489 1.125 9 1.125C9.8951 1.125 10.7535 1.48058 11.3865 2.11351C12.0194 2.74645 12.375 3.60489 12.375 4.5C12.375 5.39511 12.0194 6.25355 11.3865 6.88649C10.7535 7.51942 9.8951 7.875 9 7.875C8.10489 7.875 7.24645 7.51942 6.61351 6.88649C5.98058 6.25355 5.625 5.39511 5.625 4.5ZM2.81325 15.0787C2.83854 13.4546 3.50148 11.9055 4.65897 10.7659C5.81646 9.62633 7.37565 8.98759 9 8.98759C10.6243 8.98759 12.1835 9.62633 13.341 10.7659C14.4985 11.9055 15.1615 13.4546 15.1867 15.0787C15.1887 15.1881 15.1587 15.2956 15.1005 15.3882C15.0423 15.4808 14.9584 15.5544 14.859 15.6C13.0209 16.4428 11.0221 16.8777 9 16.875C6.9105 16.875 4.92525 16.419 3.141 15.6C3.04161 15.5544 2.95768 15.4808 2.89947 15.3882C2.84126 15.2956 2.81129 15.1881 2.81325 15.0787Z" fill="#A6AEBF"/>
</g>
</svg>
