<svg width="16" height="16" viewBox="0 0 16 16" fill="none" xmlns="http://www.w3.org/2000/svg">
<path d="M8.00261 0C4.66269 0 3.68588 0.00344645 3.49601 0.0192016C2.8106 0.0761911 2.3841 0.184139 1.91945 0.415543C1.56136 0.593404 1.27895 0.799575 1.00024 1.08858C0.492639 1.61564 0.185005 2.26407 0.0736409 3.03484C0.0194972 3.40903 0.0037463 3.48534 0.000546906 5.39664C-0.000683632 6.03374 0.000546906 6.87221 0.000546906 7.99686C0.000546906 11.335 0.00423852 12.3111 0.0202355 12.5006C0.0756097 13.1678 0.180205 13.5875 0.401702 14.0466C0.825007 14.9254 1.63347 15.5852 2.58591 15.8314C2.91569 15.9163 3.27993 15.9631 3.74753 15.9852C3.94565 15.9938 5.96496 16 7.98551 16C10.0061 16 12.0266 15.9975 12.2198 15.9877C12.7612 15.9622 13.0756 15.92 13.4233 15.8301C13.8955 15.709 14.3356 15.4862 14.7129 15.1773C15.0902 14.8684 15.3954 14.4808 15.6075 14.0417C15.8246 13.5936 15.9348 13.1579 15.9846 12.5256C15.9954 12.3878 16 10.1898 16 7.99477C16 5.79938 15.9951 3.60547 15.9843 3.46762C15.9338 2.8251 15.8237 2.39306 15.5995 1.93641C15.4155 1.56259 15.2112 1.28343 14.9147 0.997992C14.3855 0.492349 13.7383 0.184631 12.9668 0.0733601C12.5931 0.0193247 12.5187 0.00332336 10.6064 0H8.00261Z" fill="url(#paint0_radial_2323_7147)"/>
<path d="M8.00261 0C4.66269 0 3.68588 0.00344645 3.49601 0.0192016C2.8106 0.0761911 2.3841 0.184139 1.91945 0.415543C1.56136 0.593404 1.27895 0.799575 1.00024 1.08858C0.492639 1.61564 0.185005 2.26407 0.0736409 3.03484C0.0194972 3.40903 0.0037463 3.48534 0.000546906 5.39664C-0.000683632 6.03374 0.000546906 6.87221 0.000546906 7.99686C0.000546906 11.335 0.00423852 12.3111 0.0202355 12.5006C0.0756097 13.1678 0.180205 13.5875 0.401702 14.0466C0.825007 14.9254 1.63347 15.5852 2.58591 15.8314C2.91569 15.9163 3.27993 15.9631 3.74753 15.9852C3.94565 15.9938 5.96496 16 7.98551 16C10.0061 16 12.0266 15.9975 12.2198 15.9877C12.7612 15.9622 13.0756 15.92 13.4233 15.8301C13.8955 15.709 14.3356 15.4862 14.7129 15.1773C15.0902 14.8684 15.3954 14.4808 15.6075 14.0417C15.8246 13.5936 15.9348 13.1579 15.9846 12.5256C15.9954 12.3878 16 10.1898 16 7.99477C16 5.79938 15.9951 3.60547 15.9843 3.46762C15.9338 2.8251 15.8237 2.39306 15.5995 1.93641C15.4155 1.56259 15.2112 1.28343 14.9147 0.997992C14.3855 0.492349 13.7383 0.184631 12.9668 0.0733601C12.5931 0.0193247 12.5187 0.00332336 10.6064 0H8.00261Z" fill="url(#paint1_radial_2323_7147)"/>
<path d="M7.99899 2.09277C6.39486 2.09277 6.19355 2.09979 5.56351 2.12847C4.93471 2.15727 4.50549 2.25685 4.12993 2.40295C3.74145 2.55386 3.41192 2.75572 3.08361 3.08424C2.75505 3.41264 2.55325 3.74227 2.40189 4.13073C2.25546 4.50652 2.15578 4.93597 2.12748 5.5647C2.09942 6.1949 2.09204 6.3964 2.09204 8.00097C2.09204 9.60553 2.09918 9.80629 2.12773 10.4365C2.15664 11.0655 2.25619 11.4948 2.40214 11.8705C2.55312 12.259 2.75493 12.5887 3.08336 12.9171C3.41155 13.2457 3.74108 13.4481 4.12932 13.599C4.50513 13.7451 4.93446 13.8447 5.56314 13.8735C6.19318 13.9021 6.39437 13.9092 7.99838 13.9092C9.60263 13.9092 9.80333 13.9021 10.4334 13.8735C11.0622 13.8447 11.4919 13.7451 11.8677 13.599C12.256 13.4481 12.5851 13.2457 12.9133 12.9171C13.2418 12.5887 13.4436 12.259 13.595 11.8706C13.7402 11.4948 13.8399 11.0653 13.8694 10.4366C13.8977 9.80641 13.9051 9.60553 13.9051 8.00097C13.9051 6.3964 13.8977 6.19503 13.8694 5.56482C13.8399 4.93584 13.7402 4.50652 13.595 4.13085C13.4436 3.74227 13.2418 3.41264 12.9133 3.08424C12.5847 2.7556 12.2562 2.55374 11.8673 2.40295C11.4908 2.25685 11.0613 2.15727 10.4325 2.12847C9.80247 2.09979 9.60189 2.09277 7.99727 2.09277H7.99899ZM7.46912 3.15748C7.62638 3.15723 7.80186 3.15748 7.99899 3.15748C9.57605 3.15748 9.76297 3.16314 10.3857 3.19145C10.9616 3.21779 11.2742 3.31405 11.4824 3.39491C11.758 3.502 11.9546 3.63001 12.1612 3.8368C12.3679 4.04358 12.4959 4.24052 12.6032 4.51624C12.684 4.72426 12.7804 5.0369 12.8066 5.61295C12.8349 6.23577 12.841 6.42286 12.841 7.99961C12.841 9.57636 12.8349 9.76345 12.8066 10.3863C12.7802 10.9623 12.684 11.275 12.6032 11.483C12.4961 11.7587 12.3679 11.955 12.1612 12.1617C11.9544 12.3685 11.7582 12.4965 11.4824 12.6036C11.2744 12.6848 10.9616 12.7808 10.3857 12.8072C9.76309 12.8355 9.57605 12.8416 7.99899 12.8416C6.42181 12.8416 6.23489 12.8355 5.61224 12.8072C5.03635 12.7806 4.72379 12.6843 4.51546 12.6034C4.23982 12.4964 4.04294 12.3683 3.83621 12.1616C3.62947 11.9548 3.5015 11.7583 3.3942 11.4825C3.31335 11.2745 3.217 10.9618 3.19079 10.3858C3.16249 9.76296 3.15683 9.57587 3.15683 7.99813C3.15683 6.4204 3.16249 6.23429 3.19079 5.61147C3.21712 5.03542 3.31335 4.72278 3.3942 4.51452C3.50125 4.2388 3.62947 4.04186 3.83621 3.83507C4.04294 3.62829 4.23982 3.50028 4.51546 3.39294C4.72367 3.31171 5.03635 3.2157 5.61224 3.18924C6.15712 3.16462 6.36828 3.15723 7.46912 3.156V3.15748ZM11.1519 4.13848C11.0117 4.13848 10.8746 4.18007 10.7581 4.25799C10.6415 4.3359 10.5507 4.44664 10.497 4.57621C10.4434 4.70577 10.4294 4.84834 10.4567 4.98587C10.4841 5.12341 10.5516 5.24974 10.6508 5.34888C10.7499 5.44802 10.8762 5.51553 11.0137 5.54286C11.1513 5.57019 11.2938 5.55611 11.4233 5.50241C11.5528 5.44871 11.6635 5.3578 11.7413 5.24118C11.8192 5.12455 11.8607 4.98746 11.8607 4.84722C11.8607 4.4558 11.5432 4.13824 11.1519 4.13824V4.13848ZM7.99899 4.96686C6.32386 4.96686 4.96572 6.32538 4.96572 8.00097C4.96572 9.67655 6.32386 11.0345 7.99899 11.0345C9.67412 11.0345 11.0319 9.67655 11.0319 8.00097C11.0319 6.32538 9.674 4.96686 7.99887 4.96686H7.99899ZM7.99899 6.03157C9.08629 6.03157 9.96785 6.91324 9.96785 8.00097C9.96785 9.08856 9.08629 9.97036 7.99899 9.97036C6.91157 9.97036 6.03013 9.08856 6.03013 8.00097C6.03013 6.91324 6.91157 6.03157 7.99899 6.03157Z" fill="white"/>
<defs>
<radialGradient id="paint0_radial_2323_7147" cx="0" cy="0" r="1" gradientUnits="userSpaceOnUse" gradientTransform="translate(4.25002 17.2323) rotate(-90) scale(15.8572 14.7484)">
<stop stop-color="#FFDD55"/>
<stop offset="0.1" stop-color="#FFDD55"/>
<stop offset="0.5" stop-color="#FF543E"/>
<stop offset="1" stop-color="#C837AB"/>
</radialGradient>
<radialGradient id="paint1_radial_2323_7147" cx="0" cy="0" r="1" gradientUnits="userSpaceOnUse" gradientTransform="translate(-2.68008 1.15261) rotate(78.6806) scale(7.08823 29.218)">
<stop stop-color="#3771C8"/>
<stop offset="0.128" stop-color="#3771C8"/>
<stop offset="1" stop-color="#6600FF" stop-opacity="0"/>
</radialGradient>
</defs>
</svg>
