<svg width="18" height="18" viewBox="0 0 18 18" fill="none" xmlns="http://www.w3.org/2000/svg">
<g id="Frame">
<path id="Vector" fill-rule="evenodd" clip-rule="evenodd" d="M9 1.125C7.95571 1.125 6.95419 1.53984 6.21577 2.27827C5.47734 3.01669 5.0625 4.01821 5.0625 5.0625V7.3125C4.46576 7.3125 3.89347 7.54955 3.47151 7.97151C3.04955 8.39347 2.8125 8.96576 2.8125 9.5625V14.625C2.8125 15.2217 3.04955 15.794 3.47151 16.216C3.89347 16.6379 4.46576 16.875 5.0625 16.875H12.9375C13.5342 16.875 14.1065 16.6379 14.5285 16.216C14.9504 15.794 15.1875 15.2217 15.1875 14.625V9.5625C15.1875 8.96576 14.9504 8.39347 14.5285 7.97151C14.1065 7.54955 13.5342 7.3125 12.9375 7.3125V5.0625C12.9375 2.8875 11.175 1.125 9 1.125ZM11.8125 7.3125V5.0625C11.8125 4.31658 11.5162 3.60121 10.9887 3.07376C10.4613 2.54632 9.74592 2.25 9 2.25C8.25408 2.25 7.53871 2.54632 7.01126 3.07376C6.48382 3.60121 6.1875 4.31658 6.1875 5.0625V7.3125H11.8125Z" fill="#A6AEBF"/>
</g>
</svg>
