<svg width="20" height="21" viewBox="0 0 20 21" fill="none" xmlns="http://www.w3.org/2000/svg">
<g id="map">
<g id="Subtract" opacity="0.4">
<path d="M14.75 9.1514V19.8913C16.4424 19.4353 18.2888 18.1678 19.2778 17.42C19.7446 17.0671 20 16.5104 20 15.9252V6.25576C20 5.40231 18.9721 4.90741 18.2637 5.38343C17.576 5.84559 16.7481 6.34336 15.9024 6.71586C15.8843 6.77006 15.8658 6.8241 15.847 6.87792C15.5779 7.64437 15.2039 8.42954 14.75 9.1514Z" fill="#FF9999"/>
</g>
<g id="Subtract_2">
<path d="M6.75 9.97501V16.8354C8.0281 16.9422 9.01405 17.6923 10 18.4423C10.9859 19.1924 11.9719 19.9424 13.25 20.0492V10.977C12.5035 11.6496 11.5564 12.1941 10.462 12.1941C9.48212 12.1941 8.62635 11.7525 7.95708 11.218C7.51478 10.8649 7.11057 10.4377 6.75 9.97501Z" fill="#F83333"/>
</g>
<g id="Subtract_3" opacity="0.4">
<path d="M4.58941 4.44749C3.09544 5.00773 1.58355 6.05325 0.72215 6.70457C0.255375 7.05751 0 7.61423 0 8.19942V17.8688C0 18.7223 1.0279 19.2172 1.73627 18.7412C2.73646 18.069 4.03308 17.3216 5.25 16.9937V7.33707C4.8583 6.36314 4.6092 5.35041 4.58941 4.44749Z" fill="#FF9999"/>
</g>
<path id="Subtract_4" fill-rule="evenodd" clip-rule="evenodd" d="M14.5677 6.42954C14.8297 5.68311 14.9801 4.95081 14.9801 4.33269C14.9801 1.93708 12.9571 -0.00493622 10.4617 -0.00493622C8.14685 -0.00493622 6.23857 1.66622 5.97454 3.82038C5.95395 3.9884 5.94336 4.15936 5.94336 4.33269C5.94336 6.72829 8.20254 10.8391 10.4617 10.8391C12.138 10.8391 13.8142 8.57598 14.5677 6.42954ZM10.4617 5.41703C11.2103 5.41703 11.8172 4.81015 11.8172 4.06153C11.8172 3.3129 11.2103 2.70602 10.4617 2.70602C9.71308 2.70602 9.1062 3.3129 9.1062 4.06153C9.1062 4.81015 9.71308 5.41703 10.4617 5.41703Z" fill="#F83333"/>
</g>
</svg>
