<svg width="20" height="20" viewBox="0 0 20 20" fill="none" xmlns="http://www.w3.org/2000/svg">
<g id="Icons / Standard / more">
<path id="Vector" d="M11.25 14.1667C11.25 14.8333 10.6667 15.4167 10 15.4167C9.33333 15.4167 8.75 14.8333 8.75 14.1667C8.75 13.5 9.33333 12.9167 10 12.9167C10.6667 12.9167 11.25 13.5 11.25 14.1667ZM11.25 10C11.25 10.6667 10.6667 11.25 10 11.25C9.33333 11.25 8.75 10.6667 8.75 10C8.75 9.33333 9.33333 8.75 10 8.75C10.6667 8.75 11.25 9.33333 11.25 10ZM11.25 5.83333C11.25 6.49999 10.6667 7.08333 10 7.08333C9.33333 7.08333 8.75 6.49999 8.75 5.83333C8.75 5.16666 9.33333 4.58333 10 4.58333C10.6667 4.58333 11.25 5.16666 11.25 5.83333Z" fill="#0E1A23"/>
</g>
</svg>
