<svg width="22" height="22" viewBox="0 0 22 22" fill="none" xmlns="http://www.w3.org/2000/svg">
<g id="Huge-icon/interface/outline/invoice">
<path id="Vector" d="M7.33333 6.41668H11M7.33333 10.0833H14.6667M7.33333 13.75H14.6667M4.58333 1.83334H17.4167C18.4292 1.83334 19.25 2.65415 19.25 3.66668V17.5582C19.25 18.8279 17.9904 19.7132 16.7957 19.2831L15.3641 18.7677C14.9167 18.6067 14.4243 18.6257 13.9907 18.8208L11.7523 19.8281C11.2739 20.0434 10.7261 20.0434 10.2477 19.8281L8.00926 18.8208C7.57569 18.6257 7.08328 18.6067 6.63594 18.7677L5.20432 19.2831C4.00961 19.7132 2.75 18.8279 2.75 17.5582V3.66668C2.75 2.65416 3.57081 1.83334 4.58333 1.83334Z" stroke="#8D909B" stroke-width="1.5" stroke-linecap="round"/>
</g>
</svg>
