<svg width="22" height="22" viewBox="0 0 22 22" fill="none" xmlns="http://www.w3.org/2000/svg">
<g id="Huge-icon/interface/outline/invoice">
<g id="Vector">
<path d="M17.4167 1.83334H4.58333C3.57081 1.83334 2.75 2.65415 2.75 3.66667V17.5582C2.75 18.8279 4.00961 19.7132 5.20432 19.2831L6.63594 18.7677C7.08328 18.6067 7.57569 18.6257 8.00926 18.8208L10.2477 19.8281C10.7261 20.0434 11.2739 20.0434 11.7523 19.8281L13.9907 18.8208C14.4243 18.6257 14.9167 18.6067 15.3641 18.7677L16.7957 19.2831C17.9904 19.7132 19.25 18.8279 19.25 17.5582V3.66667C19.25 2.65415 18.4292 1.83334 17.4167 1.83334Z" fill="#2473F2"/>
<path d="M7.33333 6.41667H11M7.33333 10.0833H14.6667M7.33333 13.75H14.6667M4.58333 1.83334H17.4167C18.4292 1.83334 19.25 2.65415 19.25 3.66667V17.5582C19.25 18.8279 17.9904 19.7132 16.7957 19.2831L15.3641 18.7677C14.9167 18.6067 14.4243 18.6257 13.9907 18.8208L11.7523 19.8281C11.2739 20.0434 10.7261 20.0434 10.2477 19.8281L8.00926 18.8208C7.57569 18.6257 7.08328 18.6067 6.63594 18.7677L5.20432 19.2831C4.00961 19.7132 2.75 18.8279 2.75 17.5582V3.66667C2.75 2.65415 3.57081 1.83334 4.58333 1.83334Z" stroke="#2473F2" stroke-width="1.5" stroke-linecap="round"/>
</g>
<g id="Group 1000006666">
<rect id="Rectangle 3466453" x="6.59375" y="12.9778" width="8.87109" height="1.55344" rx="0.776718" fill="white"/>
<rect id="Rectangle 3466454" x="6.57031" y="9.30243" width="8.89453" height="1.60904" rx="0.80452" fill="white"/>
<rect id="Rectangle 3466455" x="6.57031" y="5.62738" width="5.22266" height="1.60904" rx="0.80452" fill="white"/>
</g>
</g>
</svg>
