<svg width="241" height="240" viewBox="0 0 241 240" fill="none" xmlns="http://www.w3.org/2000/svg">
<g id="notify/amico">
<g id="Floor">
<path id="Vector" d="M120.5 240C186.774 240 240.5 208.923 240.5 170.587C240.5 132.251 186.774 101.174 120.5 101.174C54.2258 101.174 0.5 132.251 0.5 170.587C0.5 208.923 54.2258 240 120.5 240Z" fill="#F5F5F5"/>
</g>
<g id="Shadows">
<path id="Vector_2" d="M167.724 147.783L208.143 171.158C208.652 171.454 209.231 171.61 209.82 171.61C210.409 171.61 210.987 171.454 211.496 171.158L233.984 158.141C234.136 158.053 234.262 157.926 234.35 157.774C234.437 157.622 234.483 157.45 234.483 157.274C234.483 157.098 234.437 156.926 234.35 156.774C234.262 156.622 234.136 156.495 233.984 156.407L193.576 133.092C193.068 132.799 192.491 132.644 191.905 132.644C191.318 132.644 190.742 132.799 190.234 133.092L167.729 146.044C167.578 146.133 167.451 146.259 167.363 146.411C167.276 146.564 167.229 146.736 167.229 146.912C167.228 147.088 167.273 147.261 167.36 147.414C167.447 147.567 167.573 147.694 167.724 147.783Z" fill="#E0E0E0"/>
<path id="Vector_3" d="M135.919 139.089L38.6974 195.458C37.9057 195.918 37.0075 196.163 36.0922 196.168C35.1768 196.172 34.2762 195.937 33.4798 195.485L8.22455 181.165C7.96222 181.014 7.74426 180.797 7.5927 180.535C7.44114 180.272 7.36133 179.975 7.36133 179.671C7.36133 179.368 7.44114 179.071 7.5927 178.808C7.74426 178.546 7.96222 178.328 8.22455 178.178L105.264 122.029C106.053 121.575 106.947 121.333 107.858 121.327C108.768 121.321 109.665 121.552 110.46 121.997L135.898 136.279C136.147 136.418 136.355 136.621 136.5 136.866C136.646 137.112 136.724 137.392 136.726 137.678C136.728 137.963 136.655 138.245 136.513 138.493C136.371 138.74 136.166 138.946 135.919 139.089Z" fill="#E0E0E0"/>
<path id="Vector_4" d="M151.48 195.663C166.214 195.663 178.159 188.753 178.159 180.229C178.159 171.705 166.214 164.795 151.48 164.795C136.745 164.795 124.801 171.705 124.801 180.229C124.801 188.753 136.745 195.663 151.48 195.663Z" fill="#E0E0E0"/>
<path id="Vector_5" d="M209.188 189.106C214.325 189.106 218.49 186.696 218.49 183.722C218.49 180.749 214.325 178.339 209.188 178.339C204.051 178.339 199.887 180.749 199.887 183.722C199.887 186.696 204.051 189.106 209.188 189.106Z" fill="#E0E0E0"/>
</g>
<g id="Furniture">
<path id="Vector_6" d="M209.49 98.9024L209.501 169.946L232.467 156.65V85.6755L209.49 98.9024Z" fill="#E6E6E6"/>
<path id="Vector_7" d="M170.482 147.38L209.499 169.947V98.9671L170.493 76.47L170.482 147.38Z" fill="#EBEBEB"/>
<path id="Vector_8" d="M170.482 76.3999L209.499 98.9669L232.465 85.6754L193.465 63.173L170.482 76.3999Z" fill="#F5F5F5"/>
<path id="Vector_9" d="M175.054 102.38L204.699 119.531C204.829 119.606 204.975 119.645 205.125 119.644C205.274 119.644 205.421 119.605 205.55 119.53C205.679 119.456 205.787 119.349 205.862 119.219C205.937 119.09 205.977 118.943 205.978 118.794V103.726C205.976 103.354 205.875 102.989 205.687 102.668C205.498 102.347 205.228 102.083 204.903 101.901L175.306 84.8141C175.176 84.7396 175.029 84.7006 174.879 84.701C174.73 84.7014 174.583 84.7412 174.453 84.8165C174.324 84.8917 174.216 84.9997 174.141 85.1297C174.067 85.2597 174.027 85.407 174.027 85.557V100.555C174.024 100.923 174.117 101.285 174.297 101.605C174.477 101.925 174.738 102.192 175.054 102.38Z" fill="#FAFAFA"/>
<path id="Vector_10" d="M192.605 98.6064C192.502 98.6055 192.402 98.5777 192.314 98.5256L187.081 95.511C186.96 95.426 186.876 95.299 186.844 95.155C186.812 95.011 186.835 94.8602 186.908 94.7323C186.982 94.6043 187.1 94.5084 187.24 94.4632C187.38 94.4181 187.532 94.4269 187.666 94.4881L192.9 97.5082C193.004 97.5763 193.083 97.6755 193.127 97.7916C193.17 97.9077 193.176 98.0346 193.143 98.1542C193.11 98.2739 193.041 98.38 192.944 98.4573C192.847 98.5347 192.728 98.5794 192.605 98.5849V98.6064Z" fill="#E0E0E0"/>
<path id="Vector_11" d="M175.054 123.418L204.699 140.564C204.829 140.638 204.975 140.677 205.125 140.677C205.274 140.677 205.42 140.638 205.55 140.563C205.679 140.488 205.787 140.381 205.862 140.252C205.937 140.123 205.977 139.976 205.978 139.826V124.753C205.975 124.381 205.875 124.016 205.686 123.696C205.497 123.375 205.227 123.11 204.903 122.928L175.306 105.879C175.177 105.805 175.03 105.766 174.881 105.766C174.731 105.766 174.585 105.805 174.455 105.88C174.326 105.955 174.219 106.062 174.143 106.191C174.068 106.32 174.028 106.467 174.027 106.617V121.615C174.028 121.978 174.123 122.336 174.303 122.652C174.483 122.968 174.742 123.232 175.054 123.418Z" fill="#FAFAFA"/>
<path id="Vector_12" d="M192.605 119.639C192.503 119.638 192.404 119.612 192.314 119.564L187.081 116.544C186.96 116.459 186.876 116.332 186.844 116.188C186.812 116.044 186.835 115.893 186.908 115.765C186.982 115.637 187.1 115.541 187.24 115.496C187.38 115.451 187.532 115.46 187.666 115.521L192.9 118.541C193.004 118.609 193.083 118.708 193.127 118.824C193.17 118.94 193.176 119.067 193.143 119.187C193.11 119.307 193.041 119.413 192.944 119.49C192.847 119.567 192.728 119.612 192.605 119.618V119.639Z" fill="#E0E0E0"/>
<path id="Vector_13" d="M175.054 144.451L204.699 161.597C204.829 161.671 204.975 161.71 205.125 161.71C205.274 161.71 205.421 161.671 205.55 161.596C205.679 161.521 205.787 161.414 205.862 161.285C205.937 161.156 205.977 161.009 205.978 160.859V145.786C205.975 145.414 205.875 145.049 205.686 144.729C205.497 144.408 205.227 144.143 204.903 143.961L175.306 126.874C175.177 126.8 175.03 126.761 174.881 126.761C174.732 126.761 174.585 126.801 174.456 126.875C174.326 126.95 174.219 127.057 174.144 127.186C174.068 127.316 174.028 127.462 174.028 127.612V142.615C174.023 142.984 174.115 143.349 174.295 143.671C174.475 143.993 174.737 144.262 175.054 144.451Z" fill="#FAFAFA"/>
<path id="Vector_14" d="M192.605 140.672C192.503 140.673 192.403 140.647 192.314 140.596L187.081 137.576C187.014 137.538 186.955 137.487 186.908 137.425C186.862 137.364 186.827 137.294 186.807 137.22C186.787 137.145 186.782 137.068 186.792 136.991C186.802 136.915 186.827 136.841 186.866 136.774C186.904 136.707 186.955 136.649 187.016 136.602C187.078 136.555 187.148 136.521 187.222 136.501C187.297 136.482 187.374 136.477 187.451 136.488C187.527 136.499 187.6 136.525 187.666 136.564L192.9 139.579C192.967 139.617 193.025 139.669 193.072 139.73C193.119 139.791 193.154 139.861 193.174 139.935C193.194 140.01 193.199 140.088 193.189 140.164C193.179 140.241 193.154 140.314 193.115 140.381C193.064 140.471 192.989 140.545 192.9 140.597C192.81 140.648 192.708 140.674 192.605 140.672Z" fill="#E0E0E0"/>
</g>
<g id="Pictures">
<path id="Vector_15" d="M194.869 27.363V46.35L211.285 55.8409V36.8538L194.869 27.363Z" fill="#FAFAFA"/>
<path id="Vector_16" d="M196.646 28.3859L211.305 36.8539V53.7845L196.667 45.3219V28.3859M195.775 26.8462L194.889 27.3846V46.3716L211.305 55.841L212.191 55.3026V36.3425L195.754 26.8462H195.775Z" fill="#E0E0E0"/>
<path id="Vector_17" d="M195.756 28.8973L210.393 37.3653V54.296L195.756 45.828V28.8973ZM194.869 27.3577V46.3448L211.307 55.841V36.8539L194.869 27.3631V27.3577Z" fill="#EBEBEB"/>
<path id="Vector_18" d="M197.277 42.0058L209.695 49.1872L206.025 39.6264L203.489 42.6464L200.888 38.9427L197.277 42.0058Z" fill="#E0E0E0"/>
<path id="Vector_19" d="M201.586 36.0409C201.607 36.4348 201.721 36.8181 201.918 37.1595C202.115 37.501 202.39 37.791 202.72 38.0059C203.343 38.3666 203.854 38.0705 203.854 37.3491C203.832 36.9555 203.718 36.5725 203.521 36.2312C203.324 35.8898 203.049 35.5997 202.72 35.3842C202.091 35.0235 201.586 35.3142 201.586 36.0409Z" fill="#E0E0E0"/>
<path id="Vector_20" d="M216.201 50.3446V65.4718L229.275 73.0354V57.9082L216.201 50.3446Z" fill="#FAFAFA"/>
<path id="Vector_21" d="M217.614 51.1683L229.275 57.9082V71.4258L217.614 64.6805V51.2221M216.905 49.9893L216.201 50.3984V65.5257L229.275 73.0408L229.984 72.6317V57.5045L216.905 49.9678V49.9893Z" fill="#E0E0E0"/>
<path id="Vector_22" d="M216.905 51.5774L228.565 58.3173V71.808L216.905 65.0627V51.5774ZM216.201 50.3446V65.4718L229.275 73.0408V57.9136L216.201 50.3769V50.3446Z" fill="#EBEBEB"/>
<path id="Vector_23" d="M218.121 62.0103L228.008 67.7328L225.09 60.1154L223.065 62.5271L220.996 59.5716L218.121 62.0103Z" fill="#E0E0E0"/>
<path id="Vector_24" d="M221.549 57.2622C221.566 57.5759 221.657 57.8812 221.814 58.1534C221.97 58.4255 222.189 58.6569 222.452 58.8287C222.951 59.114 223.354 58.8826 223.354 58.2904C223.338 57.9764 223.248 57.6708 223.091 57.3985C222.934 57.1262 222.715 56.895 222.452 56.7238C221.952 56.4493 221.549 56.6861 221.549 57.2622Z" fill="#E0E0E0"/>
</g>
<g id="Plant">
<path id="Vector_25" d="M209.735 170.006C209.735 170.006 204.018 164.412 207.274 155.045C209.096 149.797 215.136 145.942 218.558 145.576C217.419 146.932 216.512 148.467 215.872 150.12L211.541 153.005L215.522 151.756L214.673 155.169C214.673 155.169 210.971 157.414 210.423 157.904L214.415 156.86C214.415 156.86 214.125 166.528 209.735 170.006Z" fill="#407BFF"/>
<path id="Vector_26" opacity="0.4" d="M209.735 170.006C209.735 170.006 204.018 164.412 207.274 155.045C209.096 149.797 215.136 145.942 218.558 145.576C217.419 146.932 216.512 148.467 215.872 150.12L211.541 153.005L215.522 151.756L214.673 155.169C214.673 155.169 210.971 157.414 210.423 157.904L214.415 156.86C214.415 156.86 214.125 166.528 209.735 170.006Z" fill="black"/>
<path id="Vector_27" d="M209.735 170.006C209.735 170.006 206.775 158.302 211.154 151.476C211.154 151.476 206.022 157.5 209.735 170.006Z" fill="white"/>
<path id="Vector_28" d="M216.272 171.588L209.286 171.502H209.216L202.231 171.588C202.231 171.588 202.15 180.202 204.805 183.733C205.541 184.67 207.255 185.348 209.259 185.348C211.264 185.348 212.988 184.686 213.719 183.733C216.352 180.212 216.272 171.588 216.272 171.588Z" fill="#37474F"/>
<path id="Vector_29" d="M216.272 171.588C216.272 173.677 213.128 175.357 209.243 175.357C205.358 175.357 202.215 173.661 202.215 171.588C202.215 169.516 205.364 167.82 209.243 167.82C213.123 167.82 216.272 169.5 216.272 171.588Z" fill="#455A64"/>
<path id="Vector_30" d="M209.244 170.587C211.662 170.587 213.709 171.362 214.434 172.439C214.611 172.19 214.708 171.894 214.714 171.588C214.714 170.097 212.263 168.897 209.244 168.897C206.224 168.897 203.773 170.108 203.773 171.588C203.778 171.895 203.878 172.192 204.058 172.439C204.778 171.362 206.826 170.587 209.244 170.587Z" fill="#263238"/>
<path id="Vector_31" d="M209.244 170.587C206.826 170.587 204.779 171.362 204.059 172.439C204.779 173.516 206.826 174.296 209.244 174.296C211.662 174.296 213.709 173.516 214.435 172.439C213.709 171.362 211.662 170.587 209.244 170.587Z" fill="#E0E0E0"/>
<path id="Vector_32" d="M209.33 172.907C209.33 172.907 206.644 172.805 204.301 169.198C203.339 167.712 202.877 166.932 202.877 166.932L206.638 166.647L202.409 165.57L200.41 162.507L203.919 162.243C202.473 161.738 200.966 161.425 199.438 161.312C199.438 161.312 196.214 155.584 195.252 154.765C197.709 154.915 200.111 155.558 202.315 156.656C204.519 157.754 206.481 159.284 208.084 161.156C213.387 167.459 210.12 173.069 209.33 172.907Z" fill="#407BFF"/>
<path id="Vector_33" d="M209.332 172.907C209.332 172.907 211.03 162.679 200.197 156.531C200.213 156.531 211.439 161.936 209.332 172.907Z" fill="white"/>
<path id="Vector_34" d="M209.33 172.907C209.33 172.907 211.786 173.069 214.22 170.038C215.225 168.784 215.714 168.122 215.714 168.122L212.334 167.513L216.251 166.975L218.341 164.396L215.198 163.831C216.551 163.511 217.94 163.371 219.33 163.417C219.33 163.417 222.79 158.571 223.72 157.904C221.499 157.805 219.281 158.152 217.197 158.925C215.112 159.698 213.203 160.881 211.581 162.404C206.186 167.61 208.621 172.977 209.33 172.907Z" fill="#407BFF"/>
<path id="Vector_35" opacity="0.2" d="M209.33 172.907C209.33 172.907 211.786 173.069 214.22 170.038C215.225 168.784 215.714 168.122 215.714 168.122L212.334 167.513L216.251 166.975L218.341 164.396L215.198 163.831C216.551 163.511 217.94 163.371 219.33 163.417C219.33 163.417 222.79 158.571 223.72 157.904C221.499 157.805 219.281 158.152 217.197 158.925C215.112 159.698 213.203 160.881 211.581 162.404C206.186 167.61 208.621 172.977 209.33 172.907Z" fill="black"/>
<path id="Vector_36" d="M209.329 172.907C209.329 172.907 208.76 163.524 219.098 158.991C219.098 158.991 208.464 162.808 209.329 172.907Z" fill="white"/>
</g>
<g id="Envelope">
<path id="Vector_37" d="M102.654 42.275L100.209 41.2791L99.9615 41.1768H99.9346C99.4963 41.0182 99.0286 40.9577 98.5645 40.9996C98.1003 41.0414 97.6509 41.1846 97.2479 41.419L13.3468 89.9338C11.5836 90.9517 10.1193 92.4173 9.10141 94.1827C8.08354 95.9481 7.54803 97.9511 7.54883 99.9899V173.171C7.54925 173.949 7.75404 174.713 8.14261 175.386C8.53117 176.06 9.08982 176.619 9.7624 177.007C10.435 177.395 11.1978 177.6 11.9741 177.599C12.7505 177.599 13.513 177.393 14.185 177.004L98.1668 128.43C99.365 127.736 100.36 126.739 101.051 125.538C101.743 124.337 102.106 122.974 102.106 121.588V44.2399C102.107 43.686 101.966 43.141 101.697 42.6572L102.654 42.275Z" fill="#407BFF"/>
<path id="Vector_38" opacity="0.3" d="M102.654 42.275L100.209 41.2791L99.9615 41.1768H99.9346C99.4963 41.0182 99.0286 40.9577 98.5645 40.9996C98.1003 41.0414 97.6509 41.1846 97.2479 41.419L13.3468 89.9338C11.5836 90.9517 10.1193 92.4173 9.10141 94.1827C8.08354 95.9481 7.54803 97.9511 7.54883 99.9899V173.171C7.54925 173.949 7.75404 174.713 8.14261 175.386C8.53117 176.06 9.08982 176.619 9.7624 177.007C10.435 177.395 11.1978 177.6 11.9741 177.599C12.7505 177.599 13.513 177.393 14.185 177.004L98.1668 128.43C99.365 127.736 100.36 126.739 101.051 125.538C101.743 124.337 102.106 122.974 102.106 121.588V44.2399C102.107 43.686 101.966 43.141 101.697 42.6572L102.654 42.275Z" fill="black"/>
<path id="Vector_39" d="M104.33 45.1228V122.498C104.331 123.884 103.966 125.246 103.274 126.447C102.581 127.647 101.585 128.643 100.386 129.335L16.4038 177.914C15.7311 178.302 14.9684 178.506 14.1922 178.505C13.4161 178.505 12.6537 178.3 11.9815 177.911C11.3093 177.522 10.751 176.963 10.3624 176.29C9.97381 175.617 9.76869 174.853 9.76758 174.076V100.862C9.76804 98.8557 10.2883 96.8839 11.2775 95.1395C12.0268 93.8457 13.1086 92.7767 14.4102 92.0441L101.154 41.8659C101.995 41.8921 102.794 42.2427 103.384 42.8444C103.973 43.4462 104.308 44.2527 104.319 45.0959L104.33 45.1228Z" fill="#407BFF"/>
<path id="Vector_40" opacity="0.1" d="M104.33 45.1228V122.498C104.331 123.884 103.966 125.246 103.274 126.447C102.581 127.647 101.585 128.643 100.386 129.335L16.4038 177.914C15.7311 178.302 14.9684 178.506 14.1922 178.505C13.4161 178.505 12.6537 178.3 11.9815 177.911C11.3093 177.522 10.751 176.963 10.3624 176.29C9.97381 175.617 9.76869 174.853 9.76758 174.076V100.862C9.76804 98.8557 10.2883 96.8839 11.2775 95.1395C12.0268 93.8457 13.1086 92.7767 14.4102 92.0441L101.154 41.8659C101.995 41.8921 102.794 42.2427 103.384 42.8444C103.973 43.4462 104.308 44.2527 104.319 45.0959L104.33 45.1228Z" fill="black"/>
<path id="Vector_41" d="M100.384 129.335L16.4023 177.914C15.7522 178.295 15.0151 178.502 14.2621 178.514C13.509 178.526 12.7656 178.344 12.1035 177.984L62.2486 102.375L104.328 122.492C104.328 123.879 103.964 125.242 103.272 126.443C102.579 127.644 101.583 128.642 100.384 129.335Z" fill="#407BFF"/>
<path id="Vector_42" opacity="0.2" d="M100.384 129.335L16.4023 177.914C15.7522 178.295 15.0151 178.502 14.2621 178.514C13.509 178.526 12.7656 178.344 12.1035 177.984L62.2486 102.375L104.328 122.492C104.328 123.879 103.964 125.242 103.272 126.443C102.579 127.644 101.583 128.642 100.384 129.335Z" fill="black"/>
<path id="Vector_43" d="M102.916 42.4419L68.6712 114.207C67.9967 115.617 67.0389 116.873 65.8578 117.895C64.6767 118.917 63.2977 119.683 61.8071 120.147C60.3166 120.61 58.7466 120.76 57.1954 120.588C55.6443 120.415 54.1454 119.924 52.7927 119.144L11.2773 95.1556C11.986 93.895 13.0197 92.8482 14.2704 92.1248L101.154 41.8659C101.785 41.8809 102.398 42.0811 102.916 42.4419Z" fill="#407BFF"/>
</g>
<g id="Letter">
<path id="Vector_44" d="M19.8965 72.1148L44.4962 57.8812V40.2399L26.6187 50.113C24.5825 51.2358 22.8845 52.8857 21.7021 54.8904C20.5196 56.8951 19.8961 59.181 19.8965 61.5096V72.1148Z" fill="#407BFF"/>
<path id="Vector_45" opacity="0.5" d="M19.8965 72.1148L44.4962 57.8812V40.2399L26.6187 50.113C24.5825 51.2358 22.8845 52.8857 21.7021 54.8904C20.5196 56.8951 19.8961 59.181 19.8965 61.5096V72.1148Z" fill="white"/>
<path id="Vector_46" d="M121.573 3.79477L119.322 2.51892C116.462 0.86245 113.216 -0.00658082 109.913 3.75219e-05C106.61 0.00665587 103.367 0.888688 100.514 2.5566L30.1598 43.6208C27.0368 45.4429 24.4456 48.0537 22.6446 51.1927C20.8437 54.3317 19.8961 57.8891 19.8965 61.5097C19.8962 59.6497 20.3863 57.8227 21.317 56.2133C22.2477 54.6039 23.5861 53.2693 25.1969 52.3445C26.8076 51.4196 28.6336 50.9373 30.4901 50.9463C32.3467 50.9553 34.1679 51.4552 35.7697 52.3957L38.7143 54.1237C41.7802 55.9215 44.3232 58.4917 46.0907 61.5789C47.8581 64.6661 48.7886 68.1629 48.7896 71.7219V176.45L43.9911 188.654L53.0023 183.157L125.442 141.049C128.015 139.554 130.15 137.408 131.634 134.826C133.117 132.243 133.897 129.316 133.894 126.336V25.2151C133.894 20.8762 132.755 16.6136 130.593 12.8543C128.43 9.09496 125.32 5.97082 121.573 3.79477Z" fill="#407BFF"/>
<path id="Vector_47" opacity="0.7" d="M121.573 3.79477L119.322 2.51892C116.462 0.86245 113.216 -0.00658082 109.913 3.75219e-05C106.61 0.00665587 103.367 0.888688 100.514 2.5566L30.1598 43.6208C27.0368 45.4429 24.4456 48.0537 22.6446 51.1927C20.8437 54.3317 19.8961 57.8891 19.8965 61.5097C19.8962 59.6497 20.3863 57.8227 21.317 56.2133C22.2477 54.6039 23.5861 53.2693 25.1969 52.3445C26.8076 51.4196 28.6336 50.9373 30.4901 50.9463C32.3467 50.9553 34.1679 51.4552 35.7697 52.3957L38.7143 54.1237C41.7802 55.9215 44.3232 58.4917 46.0907 61.5789C47.8581 64.6661 48.7886 68.1629 48.7896 71.7219V176.45L43.9911 188.654L53.0023 183.157L125.442 141.049C128.015 139.554 130.15 137.408 131.634 134.826C133.117 132.243 133.897 129.316 133.894 126.336V25.2151C133.894 20.8762 132.755 16.6136 130.593 12.8543C128.43 9.09496 125.32 5.97082 121.573 3.79477Z" fill="white"/>
<path id="Vector_48" d="M22.8125 179.136C22.8125 179.136 27.8582 186.527 35.9667 188.977C44.6878 191.609 48.7878 185.817 48.7878 178.135V164.24L22.8125 179.136Z" fill="#407BFF"/>
<path id="Vector_49" opacity="0.5" d="M22.8125 179.136C22.8125 179.136 27.8582 186.527 35.9667 188.977C44.6878 191.609 48.7878 185.817 48.7878 178.135V164.24L22.8125 179.136Z" fill="white"/>
<path id="Vector_50" d="M64.4644 104.803C64.2901 104.8 64.1215 104.74 63.984 104.633C63.8466 104.526 63.7479 104.376 63.7029 104.208C63.6579 104.039 63.6691 103.86 63.7348 103.698C63.8005 103.537 63.917 103.401 64.0667 103.311L117.801 72.2172C117.984 72.1115 118.202 72.0831 118.406 72.1381C118.61 72.1931 118.784 72.3271 118.889 72.5106C118.995 72.694 119.023 72.9119 118.968 73.1164C118.913 73.3208 118.78 73.495 118.597 73.6007L64.862 104.695C64.7408 104.764 64.6039 104.801 64.4644 104.803Z" fill="white"/>
<path id="Vector_51" d="M64.4656 116.727C64.2908 116.726 64.121 116.668 63.9824 116.562C63.8439 116.455 63.7443 116.305 63.699 116.136C63.6537 115.967 63.6654 115.788 63.732 115.626C63.7987 115.464 63.9168 115.329 64.0679 115.241L117.802 84.1412C117.986 84.0356 118.203 84.0071 118.407 84.0622C118.611 84.1172 118.785 84.2512 118.891 84.4346C118.996 84.6181 119.024 84.836 118.97 85.0405C118.915 85.2449 118.781 85.4191 118.598 85.5248L64.8632 116.646C64.7395 116.706 64.6028 116.734 64.4656 116.727Z" fill="white"/>
<path id="Vector_52" d="M64.4656 128.645C64.2908 128.645 64.121 128.587 63.9824 128.48C63.8439 128.374 63.7443 128.224 63.699 128.055C63.6537 127.886 63.6654 127.707 63.732 127.545C63.7987 127.383 63.9168 127.248 64.0679 127.16L117.802 96.0654C117.984 95.9708 118.195 95.95 118.392 96.0074C118.588 96.0648 118.755 96.196 118.858 96.3736C118.96 96.5511 118.99 96.7615 118.942 96.9608C118.894 97.1601 118.77 97.333 118.598 97.4435L64.8632 128.538C64.742 128.607 64.6051 128.644 64.4656 128.645Z" fill="white"/>
<path id="Vector_53" d="M64.4656 140.564C64.2908 140.564 64.121 140.506 63.9824 140.399C63.8439 140.292 63.7443 140.143 63.699 139.974C63.6537 139.805 63.6654 139.625 63.732 139.464C63.7987 139.302 63.9168 139.166 64.0679 139.078L117.802 107.984C117.984 107.89 118.195 107.869 118.392 107.926C118.588 107.984 118.755 108.115 118.858 108.292C118.96 108.47 118.99 108.68 118.942 108.88C118.894 109.079 118.77 109.252 118.598 109.362L64.8632 140.457C64.743 140.528 64.6054 140.566 64.4656 140.564Z" fill="white"/>
<path id="Vector_54" d="M64.4656 152.483C64.2908 152.483 64.121 152.425 63.9824 152.318C63.8439 152.211 63.7443 152.062 63.699 151.893C63.6537 151.723 63.6654 151.544 63.732 151.382C63.7987 151.22 63.9168 151.085 64.0679 150.997L117.802 119.903C117.984 119.808 118.195 119.788 118.392 119.845C118.588 119.902 118.755 120.033 118.858 120.211C118.96 120.389 118.99 120.599 118.942 120.798C118.894 120.998 118.77 121.17 118.598 121.281L64.8632 152.375C64.743 152.447 64.6054 152.484 64.4656 152.483Z" fill="white"/>
<path id="Vector_55" d="M99.7505 143.988C99.6109 143.989 99.4735 143.952 99.3526 143.882C99.2317 143.812 99.1316 143.711 99.0627 143.59C98.9609 143.408 98.9342 143.193 98.9884 142.992C99.0427 142.791 99.1735 142.619 99.3529 142.513L117.811 131.822C117.992 131.727 118.203 131.706 118.4 131.764C118.597 131.821 118.764 131.952 118.866 132.13C118.968 132.307 118.999 132.518 118.95 132.717C118.902 132.916 118.778 133.089 118.606 133.2L100.148 143.886C100.027 143.953 99.8896 143.989 99.7505 143.988Z" fill="white"/>
<path id="Vector_56" d="M101.883 59.9269L86.3965 68.8848V61.2404C86.3965 55.9271 89.6206 49.7523 93.6023 47.4483L94.677 46.8292C98.6533 44.5251 101.883 46.9692 101.883 52.2825V59.9269Z" fill="#407BFF"/>
<path id="Vector_57" d="M105.488 62.4624L82.791 75.5924L86.3966 67.2267L101.883 58.2688L105.488 62.4624Z" fill="#407BFF"/>
<path id="Vector_58" d="M94.1675 49.6611C93.4958 50.0487 92.9531 49.7364 92.9531 48.9612V45.9842C92.9765 45.5625 93.0986 45.1523 93.3096 44.7866C93.5206 44.4209 93.8145 44.1101 94.1675 43.8793C94.8338 43.4917 95.3766 43.804 95.3766 44.5792V47.5615C95.3529 47.9818 95.2313 48.3907 95.0213 48.7554C94.8113 49.12 94.5189 49.4302 94.1675 49.6611Z" fill="#407BFF"/>
<path id="Vector_59" d="M91.5625 71.6411C91.627 73.1861 92.7554 73.7944 94.1418 72.9923C94.8682 72.5164 95.4773 71.8816 95.9231 71.1355C96.369 70.3895 96.64 69.5518 96.7156 68.6856L91.5625 71.6411Z" fill="#407BFF"/>
</g>
<g id="speech-bubble">
<path id="Vector_60" d="M170.482 48.3636C176.723 48.3636 181.782 43.2949 181.782 37.0424C181.782 30.7899 176.723 25.7212 170.482 25.7212C164.241 25.7212 159.182 30.7899 159.182 37.0424C159.182 43.2949 164.241 48.3636 170.482 48.3636Z" fill="#407BFF"/>
<path id="Vector_61" d="M168.466 45.8442C168.466 45.8442 169.476 49.4403 165.387 52.778C165.387 52.778 171.684 52.1427 172.028 46.1457L168.466 45.8442Z" fill="#407BFF"/>
<path id="Vector_62" d="M171.593 38.0867H169.164L168.557 32.2458H172.2L171.593 38.0867ZM170.378 41.8551C170.155 41.8704 169.93 41.8403 169.719 41.7667C169.507 41.6931 169.312 41.5775 169.146 41.4267C168.98 41.2759 168.846 41.0931 168.752 40.8892C168.658 40.6853 168.606 40.4645 168.6 40.2401C168.648 39.8013 168.856 39.3957 169.184 39.1011C169.512 38.8065 169.938 38.6436 170.378 38.6436C170.819 38.6436 171.244 38.8065 171.572 39.1011C171.9 39.3957 172.109 39.8013 172.157 40.2401C172.149 40.4636 172.096 40.6832 172.001 40.8858C171.907 41.0885 171.773 41.27 171.607 41.4196C171.441 41.5693 171.247 41.684 171.036 41.757C170.824 41.8299 170.601 41.8596 170.378 41.8443V41.8551Z" fill="white"/>
</g>
<g id="Character">
<path id="Vector_63" d="M148.173 80.8036C147.01 80.7133 145.842 80.9118 144.774 81.3812C143.705 81.8507 142.769 82.5768 142.047 83.4953C139.656 86.6499 134.594 94.1112 134.594 94.1112C134.594 94.1112 132.477 91.7587 131.091 90.106C129.704 88.4533 128.404 87.0537 128.404 87.0537C128.221 86.1641 128.085 85.2657 127.995 84.362C127.877 83.0808 127.705 82.2086 126.77 81.3312C125.835 80.4537 125.121 79.63 125.045 78.9625C124.97 78.295 124.508 77.6274 123.917 78.3111C123.326 78.9948 123.38 81.0943 124.616 82.494C124.616 82.494 122.407 81.4658 121.391 80.2599C120.376 79.054 119.065 76.9545 118.484 77.5359C117.904 78.1173 116.792 84.3781 118.484 85.7724C120.177 87.1667 124.363 89.5408 124.363 89.5408C124.363 89.5408 129.833 102.956 133.681 102.956C137.528 102.956 143.89 93.0399 143.89 93.0399L148.173 80.8036Z" fill="#FFA8A7"/>
<path id="Vector_64" d="M141.344 150.841L142.531 169.042C142.531 169.042 143.606 170.969 145.675 170.969L147.555 168.913C147.53 166.478 147.733 164.047 148.163 161.651C148.861 157.974 150.215 152.596 150.608 149.49L141.344 150.841Z" fill="#FFA8A7"/>
<path id="Vector_65" d="M142.412 109.723C142.412 109.723 141.466 115.844 140.999 121.798C140.628 126.546 140.386 133.13 140.3 135.601C140.28 136.247 140.294 136.894 140.343 137.539L141.343 150.841C141.343 150.841 147.216 153.425 150.617 149.49C150.617 149.49 151.031 145.678 150.44 143.03C150.094 141.357 150.136 139.628 150.563 137.975L154.244 123.16V109.594L142.412 109.723Z" fill="#37474F"/>
<path id="Vector_66" d="M145.268 114.799C145.516 115.887 146.057 116.886 146.832 117.688C147.607 118.49 148.586 119.064 149.663 119.348L151.861 132.753L155.085 121.006V114.799H145.268Z" fill="#263238"/>
<path id="Vector_67" d="M156.689 153.554L160.403 174.07H164.416C164.416 174.07 165.937 156.784 165.857 152.068L156.689 153.554Z" fill="#FFA8A7"/>
<path id="Vector_68" d="M144.288 109.588C144.288 109.588 143.503 117.507 150.575 118.202L154.245 141.786L156.69 153.549C156.69 153.549 162.418 157.29 165.857 152.063C165.857 152.063 166.206 146.141 164.782 142.061C164.411 141.001 164.257 139.876 164.331 138.755C164.728 132.974 165.824 116.011 165.287 112.253L161.751 107.618L144.288 109.588Z" fill="#37474F"/>
<path id="Vector_69" d="M157.16 81.6542H160.75L163.152 93.6645L161.572 98.8056C161.238 99.8713 161.315 101.024 161.787 102.036C162.862 104.383 164.855 108.969 165.29 112.264C164.285 112.338 163.279 112.137 162.379 111.683C161.479 111.229 160.719 110.538 160.18 109.685C160.18 109.685 157.166 113.664 149.831 113.664C146.274 113.664 143.383 111.042 142.41 109.728L143.727 103.774C143.836 103.291 143.875 102.794 143.845 102.299C143.775 101.067 143.641 98.531 143.673 96.6038C143.673 96.6038 140.266 95.2472 141.142 91.0482C142.018 86.8492 148.17 80.8198 148.17 80.8198L150.809 80.9221L157.16 81.6542Z" fill="#407BFF"/>
<path id="Vector_70" d="M148.507 58.5059C148.507 58.5059 144.155 56.9932 143.091 61.456C142.027 65.9188 145.305 70.2524 140.404 71.7382C140.404 71.7382 143.295 74.1499 145.842 69.6441L147.992 78.7958C147.992 78.7958 147.992 79.2964 147.229 79.6786C147.229 79.6786 159.588 82.4349 161.968 76.2548C162.296 76.6105 162.52 77.05 162.615 77.5249C162.709 77.9998 162.672 78.4917 162.505 78.9465C162.505 78.9465 166.154 77.4661 165.128 72.7341C165.128 72.7341 168.013 72.6534 168.701 70.3008C168.701 70.3008 164.085 70.5215 164.112 65.4181C164.144 59.5234 161.049 60.3793 161.049 60.3793C161.049 60.3793 157.261 54.7376 148.507 58.5059Z" fill="#455A64"/>
<path id="Vector_71" d="M150.811 76.9707V80.906C150.811 80.906 146.743 85.4387 150.709 85.7994C154.675 86.1601 157.157 81.6542 157.157 81.6542V73.3316L150.811 76.9707Z" fill="#FFA8A7"/>
<path id="Vector_72" d="M157.092 72.018V72.2441C155.679 77.8428 151.998 79.0594 150.811 79.3447L150.768 70.6829L156.915 70.6506L157.092 72.018Z" fill="#F28F8F"/>
<path id="Vector_73" d="M151.215 59.5826C148.867 59.7764 143.987 61.4937 143.918 67.6899C143.848 73.8861 144.788 78.6127 147.996 78.8065C151.204 79.0003 158.367 76.1148 158.7 68.0398C159.033 59.9648 153.499 59.3672 151.215 59.5826Z" fill="#FFA8A7"/>
<path id="Vector_74" d="M148.244 70.15L148.303 73.7891L146.164 73.17L148.244 70.15Z" fill="#F28F8F"/>
<path id="Vector_75" d="M151.436 70.053C151.439 70.2004 151.399 70.3454 151.319 70.4695C151.24 70.5937 151.126 70.6914 150.991 70.7502C150.856 70.8091 150.707 70.8265 150.562 70.8001C150.417 70.7737 150.284 70.7048 150.178 70.6021C150.072 70.4994 150 70.3676 149.969 70.2234C149.939 70.0793 149.952 69.9292 150.006 69.7925C150.061 69.6557 150.155 69.5383 150.277 69.4553C150.399 69.3723 150.542 69.3274 150.689 69.3263C150.786 69.3241 150.882 69.3413 150.972 69.3768C151.063 69.4123 151.145 69.4654 151.214 69.533C151.284 69.6007 151.339 69.6815 151.377 69.7707C151.415 69.86 151.435 69.956 151.436 70.053Z" fill="#263238"/>
<path id="Vector_76" d="M146.561 69.6062C146.563 69.7035 146.546 69.8003 146.511 69.891C146.475 69.9816 146.422 70.0643 146.355 70.1344C146.288 70.2045 146.207 70.2605 146.118 70.2992C146.029 70.3379 145.933 70.3585 145.836 70.3599C145.689 70.3631 145.544 70.3225 145.421 70.2433C145.297 70.1641 145.199 70.0499 145.14 69.9151C145.081 69.7803 145.064 69.631 145.09 69.4862C145.116 69.3413 145.184 69.2074 145.286 69.1015C145.388 68.9956 145.519 68.9224 145.662 68.8912C145.806 68.86 145.956 68.8722 146.092 68.9263C146.229 68.9803 146.346 69.0738 146.43 69.1949C146.513 69.3159 146.559 69.4591 146.561 69.6062Z" fill="#263238"/>
<path id="Vector_77" d="M150.242 74.9681C149.437 75.174 148.644 75.4256 147.867 75.7218C147.867 75.7218 147.647 74.4567 148.694 74.166C149.005 74.1002 149.329 74.1441 149.611 74.2903C149.893 74.4365 150.116 74.676 150.242 74.9681Z" fill="#F28F8F"/>
<path id="Vector_78" d="M146.292 66.866L144.857 67.7435C144.857 67.7435 145.395 68.3142 145.964 67.9589C146.122 67.8309 146.238 67.6581 146.297 67.4631C146.355 67.2682 146.354 67.0601 146.292 66.866Z" fill="#263238"/>
<path id="Vector_79" d="M154.987 70.0316C154.987 70.0316 154.933 72.3249 156.432 72.3249H159.372V67.356C159.372 61.7789 155.148 55.9541 146.164 60.5622C146.164 60.5622 145.637 68.3196 154.987 70.0316Z" fill="#455A64"/>
<path id="Vector_80" d="M145.081 72.201C143.684 72.201 142.545 71.232 142.545 70.0477C142.545 68.8634 143.684 67.8944 145.081 67.8944C146.478 67.8944 147.617 68.8634 147.617 70.0477C147.617 71.232 146.478 72.201 145.081 72.201ZM145.081 68.3089C143.926 68.3089 142.986 69.0841 142.986 70.0316C142.986 70.979 143.926 71.7596 145.081 71.7596C146.236 71.7596 147.177 70.9844 147.177 70.0316C147.177 69.0787 146.236 68.3089 145.081 68.3089Z" fill="#407BFF"/>
<path id="Vector_81" d="M151.321 72.2173C149.757 72.2173 148.479 71.2375 148.479 70.0317C148.479 68.8258 149.757 67.8783 151.321 67.8783C152.885 67.8783 154.164 68.8581 154.164 70.0317C154.164 71.2052 152.89 72.2173 151.321 72.2173ZM151.321 68.3197C150.015 68.3197 148.946 69.0896 148.946 70.0317C148.946 70.9737 150.021 71.7489 151.321 71.7489C152.621 71.7489 153.696 70.9791 153.696 70.0317C153.696 69.0842 152.632 68.3197 151.321 68.3197Z" fill="#407BFF"/>
<path id="Vector_82" d="M148.717 69.8001H147.4V70.2685H148.717V69.8001Z" fill="#407BFF"/>
<path id="Vector_83" d="M157.33 69.8001H153.934V70.2685H157.33V69.8001Z" fill="#407BFF"/>
<path id="Vector_84" d="M156.42 72.0235C156.402 71.4553 156.512 70.8903 156.742 70.3708C156.855 70.0473 157.059 69.7639 157.33 69.5554C157.601 69.3468 157.927 69.2223 158.268 69.1972C160.02 69.1703 160.235 70.8607 160.208 71.4582C160.128 73.0356 158.838 74.7259 156.447 74.7636L156.42 72.0235Z" fill="#FFA8A7"/>
<path id="Vector_85" d="M160.754 81.6542C160.754 81.6542 156.659 91.4627 163.156 93.6645L164.58 90.6175C164.58 90.6175 176.466 79.7108 179.373 77.3206C182.28 74.9304 178.551 71.3989 174.945 68.0882C171.339 64.7774 167.723 61.5743 167.723 61.5743L165.918 58.3712C165.719 58.0214 165.449 57.7178 165.125 57.4802C164.801 57.2427 164.43 57.0766 164.037 56.9931C162.145 56.6001 158.583 55.9164 156.659 56.0294C153.972 56.1748 158.029 59.5286 158.712 59.5286C159.327 59.547 159.927 59.7229 160.454 60.0396C160.982 60.3562 161.42 60.803 161.726 61.3374C162.543 62.7963 162.688 65.4234 165.294 65.305L171.334 74.3436L160.754 81.6542Z" fill="#FFA8A7"/>
<path id="Vector_86" d="M171.334 74.3437L173.429 77.03L170.162 75.1566L171.334 74.3437Z" fill="#F28F8F"/>
<path id="Vector_87" d="M134.596 94.1167L136.46 96.2754L135.38 92.97L134.596 94.1167Z" fill="#F28F8F"/>
<path id="Vector_88" opacity="0.2" d="M150.699 96.7976C150.699 96.7976 156.073 97.2336 157.738 92.1195C157.738 92.1195 157.803 98.6387 150.699 96.7976Z" fill="black"/>
<path id="Vector_89" d="M142.02 169.828C142.02 169.828 141.273 167.481 142.429 167.357C143.584 167.233 145.626 167.847 145.83 168.461C145.955 168.867 146.006 169.291 145.98 169.715C146.544 169.524 147.078 169.254 147.566 168.913V168.046C147.566 168.046 148.769 168.165 148.861 169.069C148.952 169.974 148.968 171.077 149.006 172.105C149.075 174.183 149.382 175.572 147.023 176.186C145.341 176.609 143.822 177.524 142.66 178.813C141.853 179.666 140.849 180.306 139.736 180.677C138.624 181.048 137.437 181.138 136.281 180.939C132.729 180.444 132.934 177.44 134.186 176.477C135.389 175.589 136.676 174.821 138.028 174.183L142.02 169.828Z" fill="#407BFF"/>
<path id="Vector_90" d="M140.753 176.466C140.699 176.467 140.647 176.453 140.601 176.426C140.555 176.398 140.519 176.358 140.495 176.31C139.925 175.391 139.018 174.732 137.969 174.474C137.931 174.466 137.895 174.45 137.863 174.428C137.831 174.405 137.804 174.377 137.783 174.344C137.762 174.31 137.747 174.274 137.741 174.235C137.734 174.196 137.735 174.157 137.744 174.119C137.752 174.081 137.768 174.045 137.79 174.014C137.812 173.982 137.84 173.956 137.872 173.935C137.905 173.915 137.941 173.901 137.979 173.894C138.017 173.888 138.056 173.889 138.093 173.898C138.698 174.044 139.268 174.31 139.769 174.68C140.27 175.05 140.692 175.516 141.011 176.051C141.035 176.096 141.048 176.146 141.047 176.197C141.046 176.248 141.031 176.297 141.005 176.341C140.979 176.384 140.942 176.42 140.898 176.445C140.854 176.47 140.804 176.483 140.753 176.482V176.466Z" fill="#FAFAFA"/>
<path id="Vector_91" d="M142.111 175.012C142.058 175.014 142.005 175 141.959 174.972C141.914 174.944 141.877 174.904 141.853 174.856C141.283 173.937 140.377 173.278 139.328 173.02C139.252 173.004 139.185 172.957 139.143 172.892C139.101 172.826 139.086 172.747 139.102 172.67C139.11 172.632 139.125 172.596 139.147 172.564C139.168 172.532 139.196 172.505 139.229 172.484C139.262 172.462 139.298 172.448 139.336 172.441C139.374 172.435 139.413 172.436 139.451 172.444C140.057 172.59 140.627 172.855 141.128 173.225C141.629 173.595 142.051 174.062 142.369 174.598C142.406 174.666 142.414 174.747 142.391 174.821C142.369 174.896 142.319 174.959 142.251 174.996C142.206 175.011 142.158 175.017 142.111 175.012Z" fill="#FAFAFA"/>
<path id="Vector_92" d="M143.471 173.559C143.418 173.559 143.366 173.544 143.32 173.517C143.275 173.489 143.238 173.45 143.213 173.403C142.64 172.486 141.735 171.828 140.688 171.567C140.613 171.549 140.548 171.502 140.507 171.437C140.465 171.372 140.451 171.293 140.467 171.217C140.474 171.179 140.489 171.143 140.51 171.111C140.532 171.079 140.559 171.052 140.591 171.03C140.623 171.009 140.659 170.995 140.697 170.988C140.735 170.981 140.774 170.982 140.811 170.991C141.417 171.137 141.988 171.403 142.49 171.772C142.992 172.142 143.415 172.609 143.735 173.144C143.771 173.214 143.778 173.294 143.755 173.369C143.732 173.444 143.68 173.506 143.611 173.543C143.566 173.559 143.518 173.564 143.471 173.559Z" fill="#FAFAFA"/>
<path id="Vector_93" d="M160.402 174.07C160.358 173.84 160.368 173.604 160.431 173.378C160.493 173.153 160.607 172.945 160.763 172.771C160.919 172.597 161.113 172.461 161.33 172.375C161.547 172.288 161.781 172.253 162.014 172.272C163.895 172.272 165.238 172.326 165.072 173.726V174.727C165.072 174.727 165.072 179.717 165.448 181.332C165.824 182.947 166.748 188.062 162.911 188.81C159.075 189.558 157.678 186.28 158.376 183.173C158.809 181.423 159.072 179.635 159.161 177.833C159.247 176.697 158.811 172.541 160.058 172.272L160.402 174.07Z" fill="#407BFF"/>
<path id="Vector_94" d="M163.915 180.25C163.866 180.249 163.817 180.234 163.776 180.207C162.801 179.739 161.683 179.671 160.659 180.019C160.623 180.032 160.585 180.039 160.546 180.038C160.508 180.036 160.47 180.028 160.435 180.011C160.4 179.995 160.369 179.973 160.342 179.944C160.316 179.916 160.296 179.883 160.283 179.846C160.269 179.81 160.263 179.771 160.264 179.732C160.265 179.693 160.274 179.655 160.29 179.62C160.306 179.584 160.329 179.552 160.357 179.525C160.385 179.499 160.419 179.478 160.455 179.464C161.042 179.262 161.664 179.178 162.284 179.218C162.903 179.258 163.509 179.42 164.066 179.696C164.133 179.735 164.183 179.8 164.203 179.875C164.223 179.951 164.212 180.032 164.173 180.099C164.148 180.146 164.111 180.184 164.065 180.211C164.02 180.237 163.968 180.251 163.915 180.25Z" fill="#FAFAFA"/>
<path id="Vector_95" d="M164.121 178.016C164.071 178.014 164.022 178.001 163.976 177.979C163.005 177.507 161.887 177.438 160.865 177.785C160.829 177.805 160.788 177.817 160.747 177.82C160.706 177.823 160.664 177.817 160.625 177.802C160.586 177.788 160.551 177.766 160.522 177.736C160.492 177.707 160.469 177.672 160.454 177.633C160.44 177.594 160.433 177.553 160.436 177.511C160.439 177.47 160.45 177.429 160.47 177.393C160.489 177.356 160.517 177.324 160.55 177.299C160.582 177.274 160.62 177.256 160.661 177.246C161.247 177.041 161.868 176.956 162.487 176.996C163.106 177.036 163.712 177.2 164.266 177.478C164.3 177.496 164.33 177.521 164.354 177.552C164.378 177.582 164.396 177.616 164.406 177.653C164.417 177.69 164.42 177.729 164.415 177.768C164.41 177.806 164.398 177.843 164.379 177.876C164.352 177.92 164.314 177.956 164.269 177.981C164.224 178.005 164.173 178.017 164.121 178.016Z" fill="#FAFAFA"/>
<path id="Vector_96" d="M164.323 175.814C164.273 175.812 164.224 175.799 164.178 175.777C163.204 175.309 162.086 175.24 161.062 175.583C161.025 175.604 160.985 175.616 160.943 175.62C160.901 175.623 160.859 175.617 160.819 175.603C160.78 175.588 160.744 175.565 160.714 175.536C160.684 175.506 160.662 175.47 160.647 175.431C160.632 175.391 160.627 175.349 160.63 175.307C160.633 175.265 160.645 175.224 160.666 175.188C160.687 175.151 160.715 175.119 160.749 175.094C160.783 175.07 160.822 175.053 160.863 175.045C161.449 174.839 162.07 174.754 162.689 174.794C163.309 174.833 163.914 174.997 164.469 175.276C164.502 175.295 164.532 175.32 164.556 175.35C164.58 175.38 164.598 175.415 164.608 175.452C164.619 175.489 164.622 175.527 164.617 175.566C164.613 175.604 164.6 175.641 164.581 175.674C164.554 175.718 164.516 175.754 164.471 175.779C164.426 175.803 164.375 175.816 164.323 175.814Z" fill="#FAFAFA"/>
<path id="Vector_97" d="M136.684 174.872C135.813 175.349 134.978 175.889 134.186 176.487C132.934 177.451 132.729 180.455 136.281 180.95C137.777 181.197 139.312 180.969 140.671 180.299C140.505 179.135 140.053 178.031 139.358 177.084C138.662 176.137 137.744 175.378 136.684 174.872Z" fill="white"/>
<path id="Vector_98" d="M147.023 175.728C145.341 176.152 143.822 177.066 142.66 178.355C141.853 179.208 140.849 179.849 139.737 180.22C138.624 180.59 137.437 180.681 136.282 180.482C134.293 180.207 133.482 179.141 133.374 178.086C133.272 179.271 134.003 180.622 136.282 180.939C137.437 181.138 138.624 181.048 139.737 180.677C140.849 180.306 141.853 179.666 142.66 178.813C143.822 177.524 145.341 176.609 147.023 176.186C148.882 175.707 149.086 174.738 149.054 173.333C149.017 174.49 148.673 175.325 147.023 175.728Z" fill="#37474F"/>
<path id="Vector_99" d="M165.791 183.297C164.821 182.307 163.501 181.739 162.117 181.716C160.732 181.693 159.394 182.216 158.392 183.173C157.693 186.28 159.09 189.558 162.927 188.81C165.71 188.244 165.995 185.434 165.791 183.297Z" fill="#F5F5F5"/>
<path id="Vector_100" d="M162.95 188.202C159.865 188.804 158.361 186.802 158.248 184.379C158.119 187.071 159.607 189.461 162.95 188.81C165.427 188.325 165.921 186.032 165.862 184.029C165.782 185.865 165.153 187.765 162.95 188.202Z" fill="#455A64"/>
</g>
</g>
</svg>
