<svg width="28" height="28" viewBox="0 0 28 28" fill="none" xmlns="http://www.w3.org/2000/svg">
<path d="M16.3333 24.9339V16.3333H4.96179C4.61713 16.3331 4.27581 16.4009 3.95734 16.5327C3.63886 16.6645 3.34948 16.8577 3.10571 17.1014C2.86194 17.345 2.66856 17.6343 2.53663 17.9527C2.4047 18.2712 2.33679 18.6124 2.33679 18.9571V20.0304C2.33679 20.6978 2.54679 21.3488 2.93296 21.8924C4.73196 24.4171 7.67663 25.6666 11.6666 25.6666C13.4283 25.6666 14.9881 25.4239 16.3333 24.9339ZM11.6666 2.33911C12.4327 2.33911 13.1912 2.48999 13.8989 2.78315C14.6067 3.0763 15.2497 3.50598 15.7914 4.04765C16.3331 4.58933 16.7628 5.23239 17.0559 5.94012C17.3491 6.64786 17.5 7.4064 17.5 8.17244C17.5 8.93849 17.3491 9.69703 17.0559 10.4048C16.7628 11.1125 16.3331 11.7556 15.7914 12.2972C15.2497 12.8389 14.6067 13.2686 13.8989 13.5617C13.1912 13.8549 12.4327 14.0058 11.6666 14.0058C10.1195 14.0058 8.6358 13.3912 7.54184 12.2972C6.44787 11.2033 5.83329 9.71954 5.83329 8.17244C5.83329 6.62535 6.44787 5.14162 7.54184 4.04766C8.6358 2.95369 10.1195 2.33911 11.6666 2.33911ZM24.7975 11.6666C25.9245 11.6666 26.8391 12.5813 26.8391 13.7083V24.7916C26.8391 25.3331 26.624 25.8524 26.2411 26.2353C25.8582 26.6182 25.3389 26.8333 24.7975 26.8333H19.5416C19.0001 26.8333 18.4808 26.6182 18.0979 26.2353C17.7151 25.8524 17.5 25.3331 17.5 24.7916V13.7083C17.5 12.5813 18.4146 11.6666 19.5416 11.6666H24.7975ZM22.4618 22.1631H21.8785L21.7595 22.1713C21.5398 22.2015 21.3399 22.314 21.2 22.4859C21.0601 22.6579 20.9907 22.8766 21.0058 23.0978C21.0209 23.3189 21.1194 23.5261 21.2814 23.6775C21.4434 23.8288 21.6568 23.913 21.8785 23.9131H22.4618L22.5796 23.9049C22.7992 23.8747 22.999 23.7624 23.1389 23.5905C23.2788 23.4187 23.3483 23.2001 23.3334 22.9791C23.3184 22.758 23.2201 22.5508 23.0584 22.3993C22.8966 22.2479 22.6834 22.1635 22.4618 22.1631Z" fill="url(#paint0_linear_1749_14258)"/>
<defs>
<linearGradient id="paint0_linear_1749_14258" x1="14.588" y1="2.33911" x2="14.588" y2="26.8333" gradientUnits="userSpaceOnUse">
<stop stop-color="#D4A458"/>
<stop offset="0.0001" stop-color="#E9C386"/>
<stop offset="1" stop-color="#F5AF3E" stop-opacity="0.955"/>
</linearGradient>
</defs>
</svg>
