<svg width="18" height="18" viewBox="0 0 18 18" fill="none" xmlns="http://www.w3.org/2000/svg">
<g id="Frame">
<path id="Vector" fill-rule="evenodd" clip-rule="evenodd" d="M1.125 3.375C1.125 2.77826 1.36205 2.20597 1.78401 1.78401C2.20597 1.36205 2.77826 1.125 3.375 1.125H4.404C5.049 1.125 5.6115 1.5645 5.76825 2.19L6.597 5.50725C6.66416 5.77575 6.65059 6.05809 6.558 6.31892C6.46542 6.57974 6.29792 6.80744 6.0765 6.9735L5.10675 7.701C5.0055 7.77675 4.98375 7.88775 5.01225 7.965C5.43553 9.11614 6.10395 10.1615 6.97121 11.0288C7.83847 11.8961 8.88386 12.5645 10.035 12.9877C10.1123 13.0162 10.2225 12.9945 10.299 12.8932L11.0265 11.9235C11.1926 11.7021 11.4203 11.5346 11.6811 11.442C11.9419 11.3494 12.2243 11.3358 12.4928 11.403L15.81 12.2318C16.4355 12.3885 16.875 12.951 16.875 13.5968V14.625C16.875 15.2217 16.6379 15.794 16.216 16.216C15.794 16.6379 15.2217 16.875 14.625 16.875H12.9375C6.414 16.875 1.125 11.586 1.125 5.0625V3.375Z" fill="#A6AEBF"/>
</g>
</svg>
