<svg width="25" height="24" viewBox="0 0 25 24" fill="none" xmlns="http://www.w3.org/2000/svg">
<circle cx="12.3223" cy="12" r="11.5" fill="#E8A842" stroke="white"/>
<path fill-rule="evenodd" clip-rule="evenodd" d="M12.8223 8C12.8223 7.72386 12.5984 7.5 12.3223 7.5C12.0461 7.5 11.8223 7.72386 11.8223 8V11.5H8.32227C8.04612 11.5 7.82227 11.7239 7.82227 12C7.82227 12.2761 8.04612 12.5 8.32227 12.5H11.8223V16C11.8223 16.2761 12.0461 16.5 12.3223 16.5C12.5984 16.5 12.8223 16.2761 12.8223 16V12.5H16.3223C16.5984 12.5 16.8223 12.2761 16.8223 12C16.8223 11.7239 16.5984 11.5 16.3223 11.5H12.8223V8Z" fill="white"/>
</svg>
