<svg width="25" height="24" viewBox="0 0 25 24" fill="none" xmlns="http://www.w3.org/2000/svg">
<path d="M18.482 18.7249C17.7833 17.7998 16.8793 17.0496 15.8412 16.5333C14.8031 16.0171 13.6594 15.7489 12.5 15.7499C11.3407 15.7489 10.1969 16.0171 9.15883 16.5333C8.12077 17.0496 7.21675 17.7998 6.51801 18.7249M18.482 18.7249C19.8455 17.5121 20.8071 15.9135 21.2412 14.141C21.6753 12.3686 21.5603 10.506 20.9115 8.80043C20.2627 7.09482 19.1107 5.62673 17.6084 4.59085C16.1061 3.55497 14.3244 3.00024 12.4995 3.00024C10.6747 3.00024 8.89295 3.55497 7.39062 4.59085C5.88829 5.62673 4.73634 7.09482 4.08755 8.80043C3.43875 10.506 3.32376 12.3686 3.75783 14.141C4.1919 15.9135 5.15451 17.5121 6.51801 18.7249M18.482 18.7249C16.836 20.1931 14.7056 21.0031 12.5 20.9999C10.294 21.0033 8.16425 20.1934 6.51801 18.7249M15.5 9.74995C15.5 10.5456 15.1839 11.3087 14.6213 11.8713C14.0587 12.4339 13.2957 12.7499 12.5 12.7499C11.7044 12.7499 10.9413 12.4339 10.3787 11.8713C9.81608 11.3087 9.50001 10.5456 9.50001 9.74995C9.50001 8.9543 9.81608 8.19124 10.3787 7.62863C10.9413 7.06602 11.7044 6.74995 12.5 6.74995C13.2957 6.74995 14.0587 7.06602 14.6213 7.62863C15.1839 8.19124 15.5 8.9543 15.5 9.74995Z" stroke="#A6AEBF" stroke-width="1.5" stroke-linecap="round" stroke-linejoin="round"/>
</svg>
