<svg width="28" height="28" viewBox="0 0 28 28" fill="none" xmlns="http://www.w3.org/2000/svg">
<g id="repeat(1) 2">
<path id="Vector" d="M24.2135 20.5574C24.3077 20.5081 24.3913 20.4406 24.4595 20.3588C24.5279 20.2769 24.5795 20.1823 24.6117 20.0804C24.6439 19.9785 24.6559 19.8712 24.6473 19.7646C24.6386 19.658 24.6093 19.5541 24.5611 19.4588L24.5611 19.4588L22.6773 15.7417L22.6773 15.7417L22.6757 15.7386C22.6696 15.7273 22.6633 15.7184 22.6583 15.712C22.6564 15.7096 22.6545 15.7073 22.6528 15.7054C22.6313 15.6702 22.6021 15.6363 22.5875 15.6194C22.584 15.6154 22.5814 15.6123 22.5799 15.6104L22.4628 15.7042M24.2135 20.5574C24.1193 20.6069 24.0164 20.6371 23.9105 20.6461C23.8046 20.6552 23.698 20.6429 23.5968 20.61C23.4956 20.5772 23.402 20.5243 23.3213 20.4548C23.2405 20.3852 23.1742 20.3002 23.1261 20.2048L22.0916 18.1625C20.5851 21.3688 17.4241 23.4837 13.8602 23.4837C9.68479 23.4837 6.04206 20.5633 4.99597 16.3906C4.96997 16.2869 4.96433 16.1791 4.97936 16.0732C4.99439 15.9673 5.02981 15.8654 5.08369 15.7732C5.13757 15.6811 5.20889 15.6004 5.29368 15.536C5.37847 15.4716 5.47505 15.4246 5.57794 15.398C5.68083 15.3714 5.78792 15.3656 5.89304 15.381L5.8713 15.5294L5.89304 15.381C5.99817 15.3964 6.09918 15.4327 6.1903 15.4876C6.28141 15.5426 6.36082 15.6152 6.42407 15.7011C6.48732 15.7871 6.53321 15.8847 6.55921 15.9884L6.55922 15.9884C7.42518 19.4434 10.4306 21.8504 13.8609 21.8504C16.7753 21.8504 19.3685 20.1261 20.6209 17.4965L18.5392 18.2856C18.3385 18.3618 18.1161 18.3539 17.9212 18.2636C17.7263 18.1734 17.5755 18.0086 17.5011 17.8062C17.4266 17.6038 17.4343 17.3798 17.5226 17.1832C17.6108 16.9865 17.7728 16.8327 17.9734 16.7566L17.9735 16.7565L21.6773 15.3518C21.7063 15.3403 21.7325 15.3377 21.7428 15.3367L21.7436 15.3366L21.7488 15.336C21.8527 15.3062 21.9617 15.2993 22.0684 15.3159L22.0788 15.3156L22.0791 15.3156C22.0919 15.3152 22.1214 15.3143 22.1549 15.3231L22.1558 15.3233C22.1713 15.3275 22.1839 15.333 22.193 15.3375C22.1992 15.3407 22.2047 15.3438 22.2083 15.3459C22.2632 15.3651 22.3159 15.3905 22.3652 15.4215C22.3668 15.4225 22.3694 15.4239 22.3726 15.4257C22.3917 15.4362 22.4354 15.4602 22.4661 15.4856M24.2135 20.5574C24.2134 20.5574 24.2133 20.5575 24.2133 20.5575L24.1438 20.4245L24.2137 20.5573C24.2136 20.5573 24.2135 20.5573 24.2135 20.5574ZM22.4661 15.4856C22.5117 15.5227 22.5478 15.5691 22.5719 15.6002C22.575 15.6042 22.5779 15.608 22.5806 15.6114L22.4628 15.7042M22.4661 15.4856C22.4664 15.4859 22.4667 15.4861 22.467 15.4863L22.3709 15.6015M22.4661 15.4856C22.4659 15.4854 22.4656 15.4852 22.4653 15.4849L22.3709 15.6015M22.4628 15.7042C22.4692 15.7122 22.4758 15.7199 22.4824 15.7277C22.4994 15.7476 22.5163 15.7673 22.5291 15.7909L22.3709 15.6015M22.4628 15.7042C22.4596 15.7001 22.4564 15.696 22.4532 15.692C22.4277 15.6593 22.4024 15.627 22.3709 15.6015M5.19644 11.8575C5.24838 11.9447 5.31627 12.0212 5.39659 12.0828L5.39722 12.0833C5.45959 12.1306 5.53043 12.1733 5.61076 12.2025C5.61265 12.2036 5.6147 12.2047 5.61687 12.2058C5.62651 12.2107 5.63981 12.2164 5.65631 12.2201L5.65621 12.2206L5.66166 12.2213C5.73238 12.2418 5.80557 12.2522 5.87917 12.2525H5.87962H5.88159L5.88187 12.2525C5.95383 12.2523 6.02542 12.2424 6.09472 12.2229C6.09474 12.2229 6.09477 12.2229 6.09479 12.2229L9.8333 11.175L9.83332 11.175C9.93558 11.1463 10.0311 11.0975 10.1146 11.0314C10.198 10.9653 10.2677 10.8833 10.3197 10.7902C10.3717 10.697 10.4051 10.5945 10.418 10.4884C10.431 10.3823 10.4232 10.2747 10.3952 10.1716C10.3672 10.0685 10.3195 9.97191 10.2546 9.88733C10.1897 9.80275 10.1089 9.73183 10.0168 9.67874C9.92467 9.62564 9.82304 9.59144 9.71771 9.57817C9.61238 9.56491 9.50552 9.57285 9.40326 9.60153C9.40325 9.60153 9.40325 9.60153 9.40324 9.60154L7.24926 10.2054C8.55477 7.72754 11.0549 6.15023 13.8595 6.15023C17.1784 6.15023 20.0749 8.36083 21.0639 11.6602L21.0639 11.6602L21.0648 11.6631C21.13 11.8657 21.271 12.035 21.4583 12.134C21.6457 12.233 21.8642 12.2536 22.0665 12.1911C22.2688 12.1285 22.4382 11.9882 22.539 11.8009C22.6398 11.6137 22.6642 11.3942 22.6073 11.1891L22.6074 11.1891L22.6065 11.1861C21.4119 7.20045 17.8977 4.51699 13.8595 4.51699C10.4463 4.51699 7.41164 6.43222 5.83111 9.42979L4.88789 7.4172C4.84337 7.31963 4.78023 7.23182 4.70198 7.15889C4.62351 7.08574 4.53141 7.02902 4.43095 6.99212L4.37923 7.13292L4.43095 6.99212C4.33048 6.95521 4.22374 6.9389 4.11692 6.94417C4.0101 6.94944 3.90546 6.97618 3.80904 7.02277C3.71264 7.06936 3.62645 7.13483 3.55538 7.21529C3.48432 7.29573 3.42979 7.38957 3.39482 7.49132C3.35985 7.59306 3.34512 7.70077 3.35142 7.80825C3.35771 7.91546 3.38481 8.02042 3.43124 8.11709L5.15086 11.7845C5.15518 11.794 5.1597 11.8016 5.16339 11.8074C5.16525 11.8102 5.16705 11.8128 5.16853 11.8149C5.17607 11.8283 5.18356 11.8389 5.18788 11.8451L5.1905 11.8488C5.19479 11.8549 5.19561 11.8561 5.19644 11.8575ZM5.19644 11.8575C5.19639 11.8574 5.19633 11.8573 5.19628 11.8572L5.32519 11.7805L5.19651 11.8576C5.19649 11.8575 5.19647 11.8575 5.19644 11.8575ZM20.7102 17.3022L20.9058 17.2281C20.8785 17.2927 20.8505 17.3568 20.8216 17.4204L20.7102 17.3022ZM7.15642 10.3872L6.96356 10.4412C6.99234 10.3806 7.02181 10.3204 7.05195 10.2607L7.15642 10.3872Z" fill="#757F96" stroke="#757F96" stroke-width="0.3"/>
</g>
</svg>
