<svg width="20" height="20" viewBox="0 0 20 20" fill="none" xmlns="http://www.w3.org/2000/svg">
<g id="search">
<path id="Vector (Stroke)" fill-rule="evenodd" clip-rule="evenodd" d="M9.23895 3.88901C6.28548 3.88901 3.89121 6.28328 3.89121 9.23676C3.89121 12.1902 6.28548 14.5845 9.23895 14.5845C12.1924 14.5845 14.5867 12.1902 14.5867 9.23676C14.5867 6.28328 12.1924 3.88901 9.23895 3.88901ZM2.36328 9.23676C2.36328 5.43943 5.44162 2.36108 9.23895 2.36108C13.0363 2.36108 16.1146 5.43943 16.1146 9.23676C16.1146 13.0341 13.0363 16.1124 9.23895 16.1124C5.44162 16.1124 2.36328 13.0341 2.36328 9.23676Z" fill="#8D909B"/>
<path id="Vector (Stroke)_2" fill-rule="evenodd" clip-rule="evenodd" d="M13.0128 13.0132C13.3111 12.7148 13.7948 12.7148 14.0931 13.0132L17.416 16.3361C17.7143 16.6344 17.7143 17.1181 17.416 17.4164C17.1177 17.7147 16.634 17.7147 16.3357 17.4164L13.0128 14.0935C12.7145 13.7952 12.7145 13.3115 13.0128 13.0132Z" fill="#8D909B"/>
</g>
</svg>
