<svg width="22" height="22" viewBox="0 0 22 22" fill="none" xmlns="http://www.w3.org/2000/svg">
<path d="M19.8115 11.1255L13.3831 17.2113C13.2932 17.2965 13.1786 17.3545 13.0538 17.378C12.929 17.4016 12.7997 17.3895 12.6822 17.3434C12.5646 17.2973 12.4642 17.2192 12.3936 17.1191C12.323 17.0189 12.2853 16.9011 12.2854 16.7807V13.7553C7.69713 14.0018 4.55123 16.8187 3.66812 17.7111C3.52945 17.8513 3.34761 17.9465 3.14847 17.9832C2.94933 18.0199 2.74303 17.9962 2.55895 17.9154C2.37486 17.8347 2.22236 17.7011 2.12315 17.5335C2.02395 17.366 1.98308 17.1731 2.00638 16.9823C2.3045 14.5282 3.72437 12.1677 6.00485 10.3358C7.89882 8.81436 10.201 7.849 12.2854 7.68012V4.60906C12.2853 4.48863 12.323 4.37087 12.3936 4.2707C12.4642 4.17053 12.5646 4.09245 12.6822 4.04635C12.7997 4.00025 12.929 3.9882 13.0538 4.01172C13.1786 4.03524 13.2932 4.09328 13.3831 4.17849L19.8115 10.2643C19.8712 10.3208 19.9186 10.388 19.951 10.4618C19.9834 10.5357 20 10.6149 20 10.6949C20 10.7749 19.9834 10.8541 19.951 10.9279C19.9186 11.0018 19.8712 11.0689 19.8115 11.1255Z" fill="#EBEBEB"/>
</svg>
