<svg width="20" height="20" viewBox="0 0 20 20" fill="none" xmlns="http://www.w3.org/2000/svg">
<g id="shopping-cart">
<g id="Group 33040">
<path id="Vector (Stroke)" fill-rule="evenodd" clip-rule="evenodd" d="M6.28253 16.3542C6.28253 15.6255 6.87327 15.0348 7.60198 15.0348C8.33068 15.0348 8.92142 15.6255 8.92142 16.3542C8.92142 17.0829 8.33068 17.6737 7.60198 17.6737C6.87327 17.6737 6.28253 17.0829 6.28253 16.3542Z" fill="white"/>
<path id="Vector (Stroke)_2" fill-rule="evenodd" clip-rule="evenodd" d="M13.5416 16.3542C13.5416 15.6255 14.1324 15.0348 14.8611 15.0348C15.5898 15.0348 16.1805 15.6255 16.1805 16.3542C16.1805 17.0829 15.5898 17.6737 14.8611 17.6737C14.1324 17.6737 13.5416 17.0829 13.5416 16.3542Z" fill="white"/>
<path id="Vector (Stroke)_3" fill-rule="evenodd" clip-rule="evenodd" d="M1.66663 3.15972C1.66663 2.79537 1.96199 2.5 2.32635 2.5H4.96524C5.27968 2.5 5.55042 2.72192 5.61213 3.03025L6.16621 5.79861H16.8402C17.0368 5.79861 17.2232 5.88631 17.3485 6.0378C17.4739 6.18929 17.5251 6.38878 17.4883 6.58192L16.4318 12.1219C16.3413 12.5775 16.0934 12.9868 15.7316 13.2781C15.3716 13.5679 14.9215 13.7225 14.4595 13.7153H8.05844C7.59645 13.7225 7.14641 13.5679 6.78638 13.2781C6.4247 12.9869 6.1769 12.5779 6.08632 12.1225C6.08628 12.1223 6.08636 12.1227 6.08632 12.1225L4.98423 6.61614C4.97976 6.59792 4.97604 6.57941 4.97312 6.56064L4.42447 3.81944H2.32635C1.96199 3.81944 1.66663 3.52408 1.66663 3.15972ZM6.4303 7.11805L7.38037 11.8649C7.41054 12.0167 7.49315 12.1532 7.61376 12.2503C7.73437 12.3473 7.88529 12.3989 8.04009 12.396L8.05273 12.3958H14.4652L14.4779 12.396C14.6327 12.3989 14.7836 12.3473 14.9042 12.2503C15.0243 12.1536 15.1067 12.018 15.1372 11.867L16.0428 7.11805H6.4303Z" fill="white"/>
</g>
</g>
</svg>
