<svg width="16" height="16" viewBox="0 0 16 16" fill="none" xmlns="http://www.w3.org/2000/svg">
<path d="M3.99902 13.5869C4.25928 13.79 4.58936 13.7202 4.98291 13.4346L8.34082 10.9653L11.7051 13.4346C12.0986 13.7202 12.4224 13.79 12.689 13.5869C12.9492 13.3901 13.0063 13.0664 12.8477 12.603L11.521 8.65479L14.9106 6.21729C15.3042 5.93799 15.4629 5.646 15.3613 5.32861C15.2598 5.02393 14.9614 4.87158 14.4727 4.87793L10.3149 4.90332L9.05176 0.936035C8.89941 0.466309 8.6709 0.231445 8.34082 0.231445C8.01709 0.231445 7.78857 0.466309 7.63623 0.936035L6.37305 4.90332L2.21533 4.87793C1.72656 4.87158 1.42822 5.02393 1.32666 5.32861C1.21875 5.646 1.38379 5.93799 1.77734 6.21729L5.16699 8.65479L3.84033 12.603C3.68164 13.0664 3.73877 13.3901 3.99902 13.5869Z" fill="#E3E3E3"/>
</svg>
