<svg width="20" height="20" viewBox="0 0 20 20" fill="none" xmlns="http://www.w3.org/2000/svg">
<g id="Huge-icon/interface/solid/star">
<path id="Star 2" d="M8.36068 2.72601C9.03125 1.31334 10.9688 1.31333 11.6393 2.72601L12.7982 5.16749C13.0645 5.72846 13.5793 6.11728 14.1747 6.20724L16.7661 6.59875C18.2656 6.82528 18.8643 8.74112 17.7793 9.84074L15.9041 11.7412C15.4732 12.1778 15.2766 12.807 15.3783 13.4235L15.821 16.107C16.0772 17.6596 14.5097 18.8437 13.1685 18.1106L10.8507 16.8437C10.3181 16.5526 9.68188 16.5526 9.14932 16.8437L6.83147 18.1106C5.49033 18.8437 3.92286 17.6596 4.17899 16.107L4.62166 13.4235C4.72337 12.807 4.52676 12.1778 4.09591 11.7412L2.22073 9.84074C1.13573 8.74113 1.73445 6.82528 3.23389 6.59875L5.82532 6.20724C6.42075 6.11728 6.93548 5.72846 7.20176 5.16749L8.36068 2.72601Z" fill="white"/>
</g>
</svg>
