<svg width="20" height="20" viewBox="0 0 20 20" fill="none" xmlns="http://www.w3.org/2000/svg">
<path d="M3.99902 17.5869C4.25928 17.79 4.58936 17.7202 4.98291 17.4346L8.34082 14.9653L11.7051 17.4346C12.0986 17.7202 12.4224 17.79 12.689 17.5869C12.9492 17.3901 13.0063 17.0664 12.8477 16.603L11.521 12.6548L14.9106 10.2173C15.3042 9.93799 15.4629 9.646 15.3613 9.32861C15.2598 9.02393 14.9614 8.87158 14.4727 8.87793L10.3149 8.90332L9.05176 4.93604C8.89941 4.46631 8.6709 4.23145 8.34082 4.23145C8.01709 4.23145 7.78857 4.46631 7.63623 4.93604L6.37305 8.90332L2.21533 8.87793C1.72656 8.87158 1.42822 9.02393 1.32666 9.32861C1.21875 9.646 1.38379 9.93799 1.77734 10.2173L5.16699 12.6548L3.84033 16.603C3.68164 17.0664 3.73877 17.3901 3.99902 17.5869Z" fill="#E3E3E3"/>
</svg>
