<svg width="40" height="40" viewBox="0 0 40 40" fill="none" xmlns="http://www.w3.org/2000/svg">
<g id="Notification / Delivery Copy">
<circle id="Oval" cx="20" cy="20" r="20" fill="#8047C6"/>
<g id="ic-local-offer-48px">
<path id="Shape" fill-rule="evenodd" clip-rule="evenodd" d="M20.332 12.468L27.528 19.664C27.82 19.956 28 20.356 28 20.8C28 21.24 27.82 21.64 27.532 21.932L21.932 27.532C21.644 27.82 21.24 28 20.8 28C20.36 28 19.96 27.82 19.672 27.532L12.472 20.332C12.18 20.044 12 19.644 12 19.2V13.6C12 12.716 12.716 12 13.6 12H19.2C19.64 12 20.04 12.18 20.332 12.468ZM13.5994 14.8C13.5994 15.464 14.1354 16 14.7994 16C15.4634 16 15.9994 15.464 15.9994 14.8C15.9994 14.136 15.4634 13.6 14.7994 13.6C14.1354 13.6 13.5994 14.136 13.5994 14.8Z" fill="white"/>
</g>
</g>
</svg>
