<svg width="20" height="20" viewBox="0 0 20 20" fill="none" xmlns="http://www.w3.org/2000/svg">
<g id="Sync" clip-path="url(#clip0_7_1286)">
<path id="Vector" d="M2.32148 9.82589C2.34381 8.85045 2.5447 7.90402 2.92193 7.01339C3.30809 6.09822 3.86166 5.27902 4.56702 4.57143C5.27238 3.86384 6.09381 3.31027 7.00898 2.92411C7.95541 2.52455 8.95988 2.32143 9.99782 2.32143C11.0358 2.32143 12.0402 2.52455 12.9844 2.92411C13.897 3.30948 14.7257 3.86901 15.4242 4.57143C15.6451 4.79241 15.8527 5.02679 16.0447 5.27232L14.7009 6.32143C14.6744 6.342 14.6541 6.36965 14.6425 6.40121C14.631 6.43277 14.6286 6.46696 14.6355 6.49983C14.6425 6.53271 14.6587 6.56295 14.6821 6.58706C14.7055 6.61118 14.7353 6.6282 14.7679 6.63616L18.6898 7.59598C18.8014 7.62277 18.9108 7.53795 18.9108 7.42411L18.9286 3.38616C18.9286 3.23661 18.7568 3.15179 18.6407 3.24554L17.3818 4.22991C15.6652 2.03348 12.9956 0.625 9.99559 0.625C4.88175 0.625 0.721038 4.72321 0.625056 9.81697C0.62446 9.84079 0.628639 9.86449 0.637346 9.88667C0.646053 9.90886 0.659112 9.92907 0.675753 9.94613C0.692395 9.96319 0.712282 9.97674 0.734244 9.98599C0.756205 9.99525 0.779796 10 0.803627 10H2.14291C2.24113 10 2.31925 9.92188 2.32148 9.82589ZM19.1965 10H17.8572C17.759 10 17.6809 10.0781 17.6786 10.1741C17.6563 11.1496 17.4554 12.096 17.0782 12.9866C16.692 13.9018 16.1384 14.7232 15.4331 15.4286C14.7211 16.1435 13.8747 16.7103 12.9426 17.0965C12.0105 17.4827 11.0112 17.6805 10.0023 17.6786C8.9937 17.6805 7.99473 17.4826 7.063 17.0964C6.13128 16.7103 5.28524 16.1434 4.57372 15.4286C4.35273 15.2076 4.14515 14.9732 3.95318 14.7277L5.29693 13.6786C5.32352 13.658 5.34376 13.6304 5.35533 13.5988C5.3669 13.5672 5.36933 13.533 5.36233 13.5002C5.35533 13.4673 5.3392 13.4371 5.31579 13.4129C5.29237 13.3888 5.26262 13.3718 5.22997 13.3638L1.30809 12.404C1.19648 12.3772 1.08711 12.4621 1.08711 12.5759L1.07148 16.6161C1.07148 16.7656 1.24336 16.8504 1.35943 16.7567L2.61836 15.7723C4.33488 17.9665 7.00452 19.375 10.0045 19.375C15.1206 19.375 19.2791 15.2746 19.3751 10.183C19.3757 10.1592 19.3715 10.1355 19.3628 10.1133C19.3541 10.0911 19.341 10.0709 19.3244 10.0539C19.3077 10.0368 19.2878 10.0233 19.2659 10.014C19.2439 10.0048 19.2203 9.99999 19.1965 10Z" fill="#2473F2"/>
</g>
<defs>
<clipPath id="clip0_7_1286">
<rect width="20" height="20" fill="white"/>
</clipPath>
</defs>
</svg>
