<svg width="38" height="38" viewBox="0 0 38 38" fill="none" xmlns="http://www.w3.org/2000/svg">
<rect width="38" height="38" rx="7" fill="#FAFAFA"/>
<path d="M27.4074 20.7209L27.408 20.722L27.408 20.722L29.2245 24.3063L29.1799 24.3289L29.2245 24.3063C29.2654 24.3872 29.2903 24.4755 29.2977 24.566C29.3051 24.6566 29.2948 24.7478 29.2675 24.8344C29.2401 24.921 29.1963 25.0013 29.1383 25.0708C29.0804 25.1402 29.0095 25.1974 28.9297 25.2391M27.4074 20.7209L28.9065 25.1948M27.4074 20.7209C27.4024 20.7115 27.396 20.7046 27.3936 20.7019M27.4074 20.7209L27.3936 20.7019M28.9297 25.2391L28.9065 25.1948M28.9297 25.2391C28.9297 25.2391 28.9298 25.239 28.9298 25.239L28.9065 25.1948M28.9297 25.2391C28.85 25.281 28.7629 25.3065 28.6735 25.3142C28.584 25.3218 28.4939 25.3114 28.4083 25.2836C28.3228 25.2558 28.2436 25.2112 28.1751 25.1522C28.1067 25.0933 28.0505 25.0212 28.0097 24.9402M28.9065 25.1948C28.8327 25.2336 28.7521 25.2573 28.6692 25.2643C28.5864 25.2714 28.503 25.2618 28.4238 25.2361C28.3446 25.2104 28.2712 25.169 28.2078 25.1143C28.1444 25.0597 28.0922 24.9929 28.0543 24.9177M28.0097 24.9402L28.0097 24.9403L28.0543 24.9177M28.0097 24.9402L26.9232 22.7954M28.0097 24.9402L28.0543 24.9177M28.0543 24.9177L26.9232 22.7954M26.9232 22.7954C25.52 25.9552 22.4537 28.05 18.9902 28.05C15.0093 28.05 11.533 25.2654 10.5343 21.2819C10.5122 21.1938 10.5075 21.1021 10.5202 21.0122C10.533 20.9222 10.5631 20.8356 10.6088 20.7574C10.6546 20.6791 10.7151 20.6107 10.7869 20.5562C10.8587 20.5016 10.9404 20.4619 11.0274 20.4394C11.1144 20.4169 11.205 20.412 11.2939 20.425C11.3827 20.438 11.4682 20.4687 11.5453 20.5152C11.6225 20.5618 11.6898 20.6233 11.7434 20.6962C11.7971 20.7691 11.8361 20.8519 11.8582 20.9401L11.8097 20.9522L11.8582 20.9401C12.7032 24.3117 15.6375 26.6644 18.9908 26.6644C21.9169 26.6644 24.5096 24.8861 25.6915 22.2011L23.4685 23.0437C23.4685 23.0437 23.4685 23.0437 23.4685 23.0438C23.2987 23.1082 23.1107 23.1015 22.9459 23.0251C22.7811 22.9488 22.6531 22.8092 22.5899 22.6373C22.5266 22.4653 22.5332 22.275 22.6081 22.108C22.6831 21.9409 22.8204 21.8107 22.9901 21.7463L22.9901 21.7463L26.5616 20.3918C26.5619 20.3917 26.5621 20.3915 26.5624 20.3914C26.578 20.3851 26.5928 20.3836 26.6016 20.3827L26.6026 20.3826C26.6126 20.3816 26.6155 20.3813 26.6182 20.3804L26.6184 20.3804C26.7083 20.3538 26.8028 20.3478 26.8953 20.3628M26.9232 22.7954L27.1428 20.4517C27.1426 20.4516 27.1424 20.4514 27.1422 20.4513C27.0979 20.4233 27.0505 20.4007 27.0009 20.3841L27.0005 20.384C27.0005 20.384 26.9994 20.3834 26.9943 20.3804L26.9937 20.38C26.9886 20.377 26.9782 20.3707 26.965 20.3672L26.9648 20.3671C26.9462 20.3623 26.9293 20.3626 26.9181 20.3629L26.9142 20.363C26.9043 20.3634 26.8998 20.3635 26.8953 20.3628M26.8953 20.3628C26.8954 20.3629 26.8955 20.3629 26.8957 20.3629L26.8876 20.4123L26.895 20.3628C26.8951 20.3628 26.8952 20.3628 26.8953 20.3628ZM26.0276 16.7173L26.0273 16.7163C25.0621 13.4967 22.2337 11.3356 18.9896 11.3356C16.1759 11.3356 13.6773 12.96 12.4331 15.49L14.718 14.8494C14.8044 14.8252 14.8948 14.8185 14.9838 14.8297C15.0729 14.8409 15.1588 14.8698 15.2368 14.9148C15.3148 14.9597 15.3832 15.0198 15.4382 15.0915C15.4933 15.1632 15.5338 15.2452 15.5576 15.3328C15.5814 15.4204 15.588 15.5119 15.577 15.602C15.566 15.6922 15.5376 15.7793 15.4935 15.8583C15.4493 15.9374 15.3903 16.0069 15.3196 16.0629C15.2489 16.1189 15.168 16.1602 15.0816 16.1844L15.0816 16.1844L11.4765 17.1949L26.0276 16.7173ZM26.0276 16.7173C26.083 16.8894 26.2027 17.0328 26.3612 17.1166C26.5197 17.2005 26.7044 17.2178 26.8755 17.1649C27.0466 17.1121 27.1902 16.9933 27.2757 16.8343C27.3613 16.6753 27.3821 16.4887 27.3337 16.3145L27.3335 16.3135C26.193 12.5084 22.8398 9.95 18.9896 9.95C15.6707 9.95 12.7259 11.8488 11.2439 14.8073M26.0276 16.7173L11.2439 14.8073M11.2439 14.8073L10.2525 12.692C10.2525 12.6919 10.2525 12.6918 10.2524 12.6917C10.2146 12.6087 10.161 12.534 10.0945 12.4721C10.028 12.4101 9.95004 12.3621 9.86507 12.3309C9.78009 12.2997 9.68984 12.2859 9.59955 12.2904C9.50926 12.2948 9.42076 12.3174 9.33919 12.3569C9.25761 12.3963 9.18459 12.4517 9.12434 12.5199C9.06409 12.5882 9.01779 12.6678 8.98808 12.7542C8.95838 12.8406 8.94585 12.9322 8.95121 13.0235C8.95656 13.1148 8.97966 13.2041 9.01919 13.2863C9.01923 13.2864 9.01927 13.2864 9.01931 13.2865L10.6778 16.8237L10.678 16.8241L10.7233 16.8029C10.7247 16.806 10.7266 16.8085 10.7285 16.811C10.7301 16.8132 10.7316 16.8153 10.7328 16.8177C10.7371 16.8261 10.7425 16.8337 10.748 16.8415C10.7521 16.8473 10.7562 16.8531 10.76 16.8594M11.2439 14.8073L11.4764 17.1949C11.4179 17.2114 11.3574 17.2198 11.2966 17.2199L11.2965 17.2199H11.2946H11.2945C11.2302 17.2197 11.1663 17.2103 11.1047 17.1919L11.104 17.1918L11.1001 17.1912L11.1001 17.191C11.088 17.1883 11.0792 17.1824 11.0761 17.1804L11.0761 17.1804C11.0064 17.1563 10.9436 17.1192 10.8867 17.076L10.8865 17.0759C10.8185 17.0237 10.761 16.9589 10.717 16.885L10.76 16.8594M10.76 16.8594C10.8008 16.928 10.854 16.988 10.9169 17.0362M10.76 16.8594L10.7171 16.8851C10.7144 16.8806 10.7114 16.8764 10.7073 16.8706C10.7066 16.8696 10.7058 16.8685 10.705 16.8673C10.7003 16.8606 10.6943 16.8519 10.6889 16.8417L10.9169 17.0362M10.9169 17.0362C10.972 17.078 11.0314 17.1127 11.0966 17.1346C11.0988 17.1354 11.1007 17.1367 11.1027 17.138L10.9169 17.0362ZM27.3936 20.7019L27.3919 20.7M27.3936 20.7019L27.3919 20.7M27.3919 20.7C27.3769 20.6733 27.356 20.6489 27.3394 20.6294C27.3339 20.6229 27.3288 20.617 27.3246 20.6118L27.2856 20.643C27.2825 20.6391 27.2794 20.6351 27.2763 20.6312C27.2517 20.5998 27.2273 20.5686 27.197 20.544M27.3919 20.7L27.3248 20.6121C27.3219 20.6083 27.3188 20.6044 27.3158 20.6005C27.2917 20.5697 27.2639 20.534 27.229 20.5056M27.197 20.544L27.229 20.5056M27.197 20.544L27.2284 20.5052C27.2286 20.5053 27.2288 20.5055 27.229 20.5056M27.197 20.544L27.229 20.5056" fill="#A6AEBF" stroke="#A6AEBF" stroke-width="0.1"/>
</svg>
