<svg width="20" height="20" viewBox="0 0 20 20" fill="none" xmlns="http://www.w3.org/2000/svg">
<path fill-rule="evenodd" clip-rule="evenodd" d="M15.1129 3.42067C15.2973 3.34305 15.4992 3.31628 15.6975 3.34314C15.8957 3.37001 16.0832 3.44953 16.2403 3.57343C16.3975 3.69733 16.5185 3.86108 16.5909 4.04764C16.6632 4.23419 16.6843 4.43674 16.6518 4.63418L14.9591 14.9012C14.795 15.8916 13.7083 16.4595 12.8001 15.9662C12.0403 15.5535 10.9119 14.9176 9.89689 14.2542C9.3894 13.9221 7.83483 12.8586 8.02588 12.1018C8.19007 11.4547 10.8022 9.02325 12.2948 7.57764C12.8807 7.0097 12.6135 6.68207 11.9216 7.20449C10.2029 8.50158 7.44525 10.4741 6.53326 11.0293C5.72873 11.5189 5.3093 11.6025 4.80778 11.5189C3.8928 11.3667 3.04424 11.1308 2.35166 10.8435C1.41578 10.4554 1.46131 9.16878 2.35091 8.79413L15.1129 3.42067Z" fill="#0088CC"/>
</svg>
