<svg width="24" height="24" viewBox="0 0 24 24" fill="none" xmlns="http://www.w3.org/2000/svg">
<g id="Group 16 1" clip-path="url(#clip0_1_1496)">
<g id="Android Sepet">
<g id="01.00.Checkout">
<g id="Group">
<g id="Group 14">
<g id="delivery">
<path id="Shape" d="M17.8741 14.4662C16.229 14.4662 14.8906 15.8045 14.8906 17.4496C14.8906 19.0947 16.229 20.4331 17.8741 20.4331C19.5195 20.4331 20.8575 19.0947 20.8575 17.4496C20.8575 15.8045 19.5192 14.4662 17.8741 14.4662ZM17.8741 18.9413C17.0514 18.9413 16.3824 18.2723 16.3824 17.4496C16.3824 16.6269 17.0514 15.9579 17.8741 15.9579C18.6968 15.9579 19.3658 16.6269 19.3658 17.4496C19.3658 18.2723 18.6968 18.9413 17.8741 18.9413Z" fill="#0E1A23"/>
<path id="Shape_2" d="M7.68268 14.4661C6.03756 14.4661 4.69922 15.8044 4.69922 17.4496C4.69922 19.0947 6.03756 20.433 7.68268 20.433C9.32779 20.433 10.6661 19.0947 10.6661 17.4496C10.6661 15.8044 9.32779 14.4661 7.68268 14.4661ZM7.68268 18.9413C6.86 18.9413 6.19095 18.2722 6.19095 17.4496C6.19095 16.6269 6.86 15.9578 7.68268 15.9578C8.50512 15.9578 9.17441 16.6269 9.17441 17.4496C9.17441 18.2723 8.50535 18.9413 7.68268 18.9413Z" fill="#0E1A23"/>
<path id="Path" d="M19.8838 5.92651C19.757 5.67466 19.4992 5.51578 19.2173 5.51578H15.2891V7.00751H18.7573L20.7883 11.0471L22.1214 10.3768L19.8838 5.92651Z" fill="#0E1A23"/>
<path id="Rectangle" d="M15.6359 16.7287H9.99219V18.2204H15.6359V16.7287Z" fill="#0E1A23"/>
<path id="Path_2" d="M5.44477 16.7286H2.85915C2.44717 16.7286 2.11331 17.0625 2.11331 17.4745C2.11331 17.8864 2.44722 18.2203 2.85915 18.2203H5.44482C5.8568 18.2203 6.19066 17.8864 6.19066 17.4745C6.19066 17.0625 5.85676 16.7286 5.44477 16.7286Z" fill="#0E1A23"/>
<path id="Path_3" d="M23.5121 12.1689L22.045 10.2794C21.904 10.0974 21.6865 9.99095 21.456 9.99095H16.0361V4.76992C16.0361 4.35794 15.7021 4.02408 15.2902 4.02408H2.85915C2.44717 4.02408 2.11331 4.35798 2.11331 4.76992C2.11331 5.18186 2.44722 5.51576 2.85915 5.51576H14.5443V10.7368C14.5443 11.1488 14.8782 11.4826 15.2902 11.4826H21.0908L22.177 12.8819V16.7285H20.1134C19.7014 16.7285 19.3676 17.0624 19.3676 17.4744C19.3676 17.8864 19.7015 18.2202 20.1134 18.2202H22.9228C23.3348 18.2202 23.6687 17.8863 23.6687 17.4744V12.6264C23.6687 12.4608 23.6135 12.2997 23.5121 12.1689Z" fill="#0E1A23"/>
<path id="Path_4" d="M5.39558 12.9496H1.96459C1.55261 12.9496 1.21875 13.2835 1.21875 13.6955C1.21875 14.1074 1.55265 14.4413 1.96459 14.4413H5.39554C5.80752 14.4413 6.14138 14.1074 6.14138 13.6955C6.14138 13.2835 5.80752 12.9496 5.39558 12.9496Z" fill="#0E1A23"/>
<path id="Path_5" d="M7.11055 10.0158H0.745841C0.333904 10.0158 0 10.3497 0 10.7617C0 11.1737 0.333904 11.5076 0.745841 11.5076H7.11055C7.52253 11.5076 7.85639 11.1736 7.85639 10.7617C7.85639 10.3498 7.52253 10.0158 7.11055 10.0158Z" fill="#0E1A23"/>
<path id="Path_6" d="M8.3293 7.08206H1.96459C1.55261 7.08206 1.21875 7.41597 1.21875 7.8279C1.21875 8.23989 1.55265 8.57374 1.96459 8.57374H8.3293C8.74128 8.57374 9.07514 8.23984 9.07514 7.8279C9.07514 7.41597 8.74128 7.08206 8.3293 7.08206Z" fill="#0E1A23"/>
</g>
</g>
</g>
</g>
</g>
</g>
<defs>
<clipPath id="clip0_1_1496">
<rect width="24" height="24" fill="white"/>
</clipPath>
</defs>
</svg>
