<svg width="16" height="17" viewBox="0 0 16 17" fill="none" xmlns="http://www.w3.org/2000/svg">
<g id="u:upload">
<path id="Vector" d="M5.80671 5.2428L7.33337 3.70946V10.1028C7.33337 10.2796 7.40361 10.4492 7.52864 10.5742C7.65366 10.6992 7.82323 10.7695 8.00004 10.7695C8.17685 10.7695 8.34642 10.6992 8.47145 10.5742C8.59647 10.4492 8.66671 10.2796 8.66671 10.1028V3.70946L10.1934 5.2428C10.2553 5.30528 10.3291 5.35488 10.4103 5.38872C10.4916 5.42257 10.5787 5.43999 10.6667 5.43999C10.7547 5.43999 10.8419 5.42257 10.9231 5.38872C11.0043 5.35488 11.0781 5.30528 11.14 5.2428C11.2025 5.18082 11.2521 5.10709 11.286 5.02585C11.3198 4.94461 11.3372 4.85747 11.3372 4.76946C11.3372 4.68145 11.3198 4.59432 11.286 4.51308C11.2521 4.43184 11.2025 4.3581 11.14 4.29613L8.47337 1.62946C8.40997 1.56877 8.33521 1.52119 8.25337 1.48946C8.09107 1.42278 7.90902 1.42278 7.74671 1.48946C7.66487 1.52119 7.59011 1.56877 7.52671 1.62946L4.86004 4.29613C4.79788 4.35829 4.74857 4.43208 4.71493 4.5133C4.68129 4.59451 4.66398 4.68156 4.66398 4.76946C4.66398 4.85737 4.68129 4.94441 4.71493 5.02563C4.74857 5.10684 4.79788 5.18064 4.86004 5.2428C4.9222 5.30495 4.99599 5.35426 5.07721 5.3879C5.15842 5.42154 5.24547 5.43886 5.33337 5.43886C5.42128 5.43886 5.50833 5.42154 5.58954 5.3879C5.67076 5.35426 5.74455 5.30495 5.80671 5.2428ZM14 8.1028C13.8232 8.1028 13.6537 8.17303 13.5286 8.29806C13.4036 8.42308 13.3334 8.59265 13.3334 8.76946V12.7695C13.3334 12.9463 13.2631 13.1158 13.1381 13.2409C13.0131 13.3659 12.8435 13.4361 12.6667 13.4361H3.33337C3.15656 13.4361 2.98699 13.3659 2.86197 13.2409C2.73695 13.1158 2.66671 12.9463 2.66671 12.7695V8.76946C2.66671 8.59265 2.59647 8.42308 2.47145 8.29806C2.34642 8.17303 2.17685 8.1028 2.00004 8.1028C1.82323 8.1028 1.65366 8.17303 1.52864 8.29806C1.40361 8.42308 1.33337 8.59265 1.33337 8.76946V12.7695C1.33337 13.2999 1.54409 13.8086 1.91916 14.1837C2.29423 14.5587 2.80294 14.7695 3.33337 14.7695H12.6667C13.1971 14.7695 13.7058 14.5587 14.0809 14.1837C14.456 13.8086 14.6667 13.2999 14.6667 12.7695V8.76946C14.6667 8.59265 14.5965 8.42308 14.4714 8.29806C14.3464 8.17303 14.1769 8.1028 14 8.1028Z" fill="#0E1A23"/>
</g>
</svg>
